<?xml version="1.0" encoding="utf-8"?>
<!-- Generator: Adobe Illustrator 24.0.1, SVG Export Plug-In . SVG Version: 6.00 Build 0)  -->
<svg version="1.1" id="_Layer_" xmlns="http://www.w3.org/2000/svg" xmlns:xlink="http://www.w3.org/1999/xlink" x="0px" y="0px"
	 viewBox="0 0 2760 1840" style="enable-background:new 0 0 2760 1840;" xml:space="preserve">
<style type="text/css">
	.st0{fill:#79C1E1;}
	.st1{fill:#F7B686;}
	.st2{fill:#2F1A31;}
	.st3{fill:#6F4975;}
	.st4{fill:#96A7E2;}
	.st5{fill:#020202;}
	.st6{fill:#E28569;}
	.st7{fill:#DB6B49;}
	.st8{fill:#FFFFFF;}
	.st9{fill:#060633;}
	.st10{opacity:0.3;}
	.st11{fill:#DD8964;}
	.st12{opacity:0.5;}
	.st13{fill:#E08B65;}
	.st14{fill:#74A1BD;}
	.st15{fill:#C4D7D4;}
	.st16{fill:#CFE2DE;}
	.st17{fill:#0094B8;}
	.st18{fill:#436E8E;}
	.st19{fill:#56335B;}
	.st20{fill:#D16B54;}
	.st21{fill:#9BBCB6;}
	.st22{opacity:0.4;}
	.st23{fill:#7AA098;}
	.st24{fill:#A2BEE0;}
	.st25{fill:#EAA678;}
	.st26{fill:#BED5DC;}
	.st27{fill:#BDD1F9;}
</style>
<title>bgf</title>
<ellipse class="st0" cx="1410.2" cy="1313.6" rx="1179.7" ry="80.5"/>
<path class="st1" d="M2218.3,979.5L2218.3,979.5c-2.3,0.5-3.8,2.7-3.4,5l6.5,35.9c0.4,2.3,2.6,3.8,4.9,3.4l0,0
	c2.3-0.5,3.8-2.7,3.4-5l-6.5-35.9C2222.8,980.6,2220.6,979.1,2218.3,979.5L2218.3,979.5z"/>
<path class="st1" d="M2228.9,977.5L2228.9,977.5c-2.3,0.5-3.8,2.7-3.4,5l7.3,40.1c0.4,2.3,2.6,3.8,4.9,3.4l0,0l0,0
	c2.3-0.5,3.8-2.7,3.4-5l-7.3-40.1C2233.4,978.6,2231.2,977.1,2228.9,977.5z"/>
<path class="st1" d="M2227.9,956.1l-1,1.1c-1.8,2.2-1.6,5.4,0.5,7.3l20.6,18.2c2.1,1.8,5.3,1.6,7.1-0.4c0,0,0,0,0.1-0.1l1-1.2
	c1.8-2.2,1.6-5.4-0.5-7.3l-20.6-18.2C2233,953.7,2229.8,953.9,2227.9,956.1C2228,956.1,2227.9,956.1,2227.9,956.1z"/>
<path class="st1" d="M2239.5,975.5L2239.5,975.5c-2.3,0.5-3.8,2.7-3.4,5l5.8,32.2c0.4,2.3,2.6,3.8,4.9,3.4l0,0
	c2.3-0.5,3.8-2.7,3.4-5l-5.8-32.1C2244,976.7,2241.8,975.1,2239.5,975.5L2239.5,975.5z"/>
<path class="st1" d="M2207.4,960.4c0,0-8.2,23,0.8,37.7c3.1,5.1,34.2-1.6,36-8.1s-4.3-27.8-4.3-27.8L2207.4,960.4z"/>
<path class="st1" d="M2207.7,981.4L2207.7,981.4c-2.3,0.5-3.8,2.7-3.4,5l5.8,32.1c0.4,2.3,2.6,3.8,4.9,3.4l0,0
	c2.3-0.5,3.8-2.7,3.4-5l-5.8-32.1C2212.2,982.6,2210,981,2207.7,981.4L2207.7,981.4z"/>
<path class="st1" d="M2246.3,965.3c4.3-47.5,14-115.3,36.3-169.1c5.2-12.5,7.3-17.1,11.4-23.9c3.2-5.5-2.6-17.5-11.7-23.2
	c-8.6-5.4-22-4.5-24.1-1.8c-3.6,4.5-7.4,13.2-13.4,27c-20.8,47.9-33.2,109.8-38.3,189.5L2246.3,965.3z"/>
<path class="st2" d="M2304.1,1274.8c0,0-0.3,13.8-9.5,17.7s-35.8,7.4-25.8,16.2c5.7,5.1,32.6,1.8,40.2,1.8s14.7,3.4,20.4-1.8
	c6.2-5.7,0-33.9,0-33.9s-6.6,3.5-12.4,3.3C2308.3,1277.8,2304.1,1274.8,2304.1,1274.8z"/>
<path class="st2" d="M2409.5,1274.8c0,0-0.3,13.8-9.5,17.7s-35.8,7.4-25.8,16.2c5.7,5.1,32.6,1.8,40.2,1.8s14.7,3.3,20.4-1.8
	c6.2-5.7,0-33.9,0-33.9s-6.5,3.5-12.4,3.3C2413.8,1277.8,2409.5,1274.8,2409.5,1274.8z"/>
<path class="st3" d="M2235.9,897.3c0,0-1.7,57.6,16.4,168.2c13.1,79.8,28.5,160.3,36.1,198.8c2.7,13.8,14.1,23.9,27.7,24.4l7.3,0.3
	c14.6,0.6,26.5-12.2,25.5-27.4l-18.4-260.9l-4.5-85.8L2235.9,897.3z"/>
<path class="st2" d="M2401.7,948c-0.8,7-39.9,6.2-87.8,0s-85.1-16.7-84.3-23.7s39.4-7.9,87.3-1.7S2402.5,941,2401.7,948z"/>
<path class="st3" d="M2290.8,938.5l102.1,333c4.3,13.9,16.6,23.5,30.7,23.7l6.1,0.1c14.5,0.3,25.6-13.3,22.9-28.2l-55.9-312.9
	c-0.8-3.7-3.5-6.6-7.1-7.7C2370.7,941,2288.9,924.7,2290.8,938.5z"/>
<path class="st4" d="M2385.7,756.3c0,0-13.6-38.8-62-37s-85,66.3-94,205.1c0,0,79.3-17.6,172.1,23.5
	C2401.8,947.9,2407,812.9,2385.7,756.3z"/>
<path class="st4" d="M2427.3,740.5l-41.9,35.8c0,0-88.2,9-111.6,4.6s-27-21.8-27-21.8s22.3-31,64.6-38.7c4.1-0.6,8.2-1,12.3-1.2
	c7.2-0.5,12,0.2,19.1,0.2C2408.6,718.9,2427.3,740.5,2427.3,740.5z"/>
<path class="st5" d="M2336.4,1087.3l-22-67.8c-4.8-15.1-15-27.8-28.6-35.8l0.9-1.5c14,8.2,24.5,21.3,29.4,36.8l22,67.8
	L2336.4,1087.3z"/>
<path class="st6" d="M2290.5,710.6c-0.3-0.1-6.5-1.6-8.4-6.1c-1-2.4-0.6-5.2,1.3-8.3c0.8-1.3,1.6-2.6,2.3-3.7
	c4.9-7.8,6.5-10.5,5.2-16.6l0.6-0.1c1.3,6.4-0.5,9.3-5.3,17c-0.7,1.1-1.5,2.4-2.3,3.7c-1.8,2.9-2.2,5.5-1.3,7.8
	c1.8,4.2,7.9,5.8,8,5.8L2290.5,710.6z"/>
<path class="st6" d="M2291.2,675.8c1.1,7-0.5,14.2-4.3,20.2c-6.4,10.3,0.6,17.8,9.3,13.9s12,7.3,23.2,1.1S2291.2,675.8,2291.2,675.8
	z"/>
<path class="st1" d="M2342.7,719.4c-4.8-0.5-9-3.6-10.9-8.1l-6-14.1l-1.7-4.1l-10.2-24.1l1.8,25l1.1,15l0.3,4.3
	c0.3,3.5-2.1,6.6-5.6,7.2h-0.1c-1.8,3-4.3,9.1,3.2,11.5C2323.4,734.8,2337.6,727.7,2342.7,719.4L2342.7,719.4z"/>
<path class="st2" d="M2325.8,696.7c0,0.1,0,0.3,0,0.4c-0.6,8.1-9.1,11.8-9.1,11.8l0,0l-1.1-15c2.6-1,6.3-2,8.5-0.9
	C2325.2,693.6,2325.9,694.7,2325.8,696.7z"/>
<ellipse class="st1" cx="2312.7" cy="672.9" rx="23.2" ry="29"/>
<path class="st1" d="M2332.8,677.3c-2.6,2.5-6.3,2.8-8.2,0.6s-1.3-6.1,1.3-8.6s6.3-2.8,8.2-0.6S2335.4,674.7,2332.8,677.3z"/>
<path class="st7" d="M2300.2,691.7c5.4,0,10.7-0.9,15.8-2.7c0,0,0.7,7.9-7.9,8.4C2303.1,697.8,2300.2,691.7,2300.2,691.7z"/>
<path class="st8" d="M2300.2,691.7c0,0,1.9,1.6,6.4,1.6s9.4-4.3,9.4-4.3S2306.5,691.7,2300.2,691.7z"/>
<path class="st9" d="M2310.4,673.2c-0.2,0-0.3-0.2-0.4-0.3c-0.1-0.3,0-0.6,0.3-0.7c2.4-1.1,5.2-0.5,6.8,1.5c0.2,0.2,0.2,0.5,0,0.8
	c-0.2,0.2-0.5,0.2-0.8,0c-1.7-1-3.7-1.5-5.7-1.3C2310.7,673.2,2310.6,673.2,2310.4,673.2z"/>
<path class="st9" d="M2314.6,679.1c0,1.3-0.7,2.3-1.6,2.4s-1.7-1-1.7-2.3s0.7-2.3,1.6-2.4S2314.6,677.8,2314.6,679.1z"/>
<path class="st9" d="M2291.6,676c-0.2,0-0.3,0-0.4-0.2c-0.2-0.2-0.2-0.5,0-0.8c1.7-1.9,4.6-2.4,6.9-1.2c0.3,0.1,0.4,0.4,0.3,0.7
	c-0.1,0.2-0.4,0.4-0.7,0.3c-2-0.3-4,0-5.7,1C2291.9,675.9,2291.8,676,2291.6,676z"/>
<path class="st9" d="M2297.7,679.8c0.5,1.2,0.3,2.4-0.6,2.8s-1.9-0.3-2.4-1.4s-0.3-2.4,0.6-2.8S2297.2,678.6,2297.7,679.8z"/>
<path class="st6" d="M2302.9,649.2c0,0,0.5,10.1,12.9,11.8s20.9,7,19.3,16.1s-21.6,27.8-6.9,35.1s11.5-6.3,27.4-3.2
	s18.8-18.4,7.8-30.9s-6.5-45.6-47.6-44.1s-26,34.7-26,34.7S2302.9,660.3,2302.9,649.2z"/>
<path class="st8" d="M2332.3,714c-3.1-1.3-5-3.1-5.6-5.6c-1.8-6.8,5.9-17,12.8-26c1.8-2.4,3.5-4.6,5-6.7c4.2-5.9,4.5-12.9,0.9-18.3
	c-3.9-5.8-11.4-8.3-19.4-6.4s-13.6,0.2-16.9-1.6c-2-1-3.8-2.5-5.2-4.4l0.3-0.2c0.1,0.1,6.4,9.4,21.7,5.8c8.2-1.9,15.7,0.6,19.8,6.6
	c3.7,5.5,3.4,12.7-0.9,18.7c-1.5,2.1-3.2,4.4-5,6.8c-6.8,9-14.5,19.1-12.7,25.7c0.6,2.4,2.4,4.1,5.4,5.3L2332.3,714z"/>
<path class="st3" d="M2290.8,694.5c-3.5-1.3-6.5-5.2-8.2-10.4c-2.7-8.5-0.8-18,4.2-21.1c1.8-1.2,4-1.4,6-0.6
	c3.5,1.3,6.5,5.2,8.2,10.4l0,0c2.7,8.5,0.8,18-4.2,21.1c-1.1,0.7-2.3,1.1-3.5,1.1C2292.4,695,2291.6,694.8,2290.8,694.5z
	 M2300,673.1c-1.6-4.9-4.4-8.6-7.6-9.8c-1.7-0.7-3.6-0.5-5.1,0.5c-4.6,2.9-6.3,11.8-3.7,19.9c1.5,4.9,4.4,8.6,7.6,9.8
	c1.7,0.7,3.6,0.5,5.1-0.5C2300.9,690.1,2302.5,681.2,2300,673.1z"/>
<g class="st10">
	<path class="st8" d="M2327.8,667.2c1.9,8.3-1.1,17.2-6.6,19.9s-11.5-1.8-13.4-10.1s1.1-17.2,6.6-19.8S2325.9,659,2327.8,667.2z"/>
</g>
<g class="st10">
	<path class="st8" d="M2301.2,673.5c1.9,8.3-0.6,17.3-5.5,20.1s-10.4-1.7-12.3-10s0.6-17.3,5.5-20.1S2299.4,665.2,2301.2,673.5z"/>
</g>
<path class="st3" d="M2313.4,687.2c-3.6-1.8-6.3-5.7-7.5-10.9c-2-8.8,1.3-18.4,7.4-21.3c2.4-1.2,5.2-1.1,7.5,0.1
	c3.6,1.8,6.3,5.7,7.4,10.8l0,0c2,8.9-1.3,18.4-7.4,21.3c-1.1,0.6-2.4,0.9-3.7,0.9C2315.9,688.1,2314.6,687.8,2313.4,687.2z
	 M2313.8,656c-5.6,2.7-8.7,11.7-6.8,20.1c1.1,4.8,3.7,8.6,6.9,10.2c2.1,1,4.5,1,6.6,0c5.7-2.7,8.7-11.7,6.8-20.1l0,0
	c-1.1-4.8-3.7-8.5-6.9-10.2c-1-0.5-2.2-0.8-3.4-0.8C2315.9,655.2,2314.8,655.5,2313.8,656L2313.8,656z"/>
<path class="st3" d="M2300.1,676.6c0.2,0,0.4-0.1,0.6-0.2l0,0c2-1.4,4.5-1.8,6.9-1.2c0.5,0.1,1-0.3,1.1-0.8s-0.2-1-0.8-1.1
	c-2.9-0.7-6-0.1-8.5,1.6c-0.4,0.4-0.5,1-0.1,1.4C2299.6,676.4,2299.8,676.6,2300.1,676.6z"/>
<path class="st1" d="M2387.7,880.9c0,0-13.2-14.5-24.6-14.3s-25.8,9.3-18.7,10.6s16.6,0.6,16.6,0.6s-20.3,2.6-17.6,7.2
	s20.3,2.1,20.3,2.1s-23.9,5.1-20,8.5s22-0.5,22-0.5s-22,5.6-17.4,9.5s18.2-4.8,20.9-0.2s14.7,21.7,28.1,15.8L2387.7,880.9z"/>
<path class="st11" d="M2369.2,878.9c-2.5-2.2-7.9-0.6-8-0.6l-0.2-0.8c0.2-0.1,5.9-1.7,8.8,0.8L2369.2,878.9z"/>
<path class="st11" d="M2373.5,888.3c-4.3-2.4-9.6-0.8-9.7-0.8l-0.3-0.8c0.2-0.1,5.7-1.7,10.4,0.9L2373.5,888.3z"/>
<path class="st11" d="M2374.8,896.2c-2.5-2.5-8.9-0.7-9-0.7l-0.2-0.8c0.3-0.1,7-2,9.8,0.9L2374.8,896.2z"/>
<path class="st2" d="M2427.3,740.5c3.5,5.1-3.6,12-18.3,22.7s-21,14.5-24.5,9.4s0.7-13.8,15.2-24.7
	C2410.4,740,2423.8,735.4,2427.3,740.5z"/>
<path class="st1" d="M2388.8,915.6l-12.9-28.9c-1.8-3.9-0.4-8.5,3.3-10.8c18.3-10.6,28.9-23.3,31.5-37.8
	c3.6-20.1-7.6-43.1-17.4-58.1c-5-7.7-5.6-15.1,2.4-24.5c3.3-3.9,6.5-6.6,17-11.1c5.1-2.2,10.1-2.8,13,0.9
	c4.5,5.8,7.6,10.6,13.8,22.2c14.7,27.5,20.2,55,15.9,79.5c-5.3,30-24,54.3-55.9,72.4c-3.7,2-8.2,0.7-10.3-3
	C2389,916.1,2388.9,915.9,2388.8,915.6z"/>
<g class="st12">
	<path class="st13" d="M2439.6,844.7c-0.5,0-1-0.1-1.4-0.2c-4.1-1.1-6.2-6.8-4.7-13c0.9-3.7,2.9-6.8,5.4-8.3
		c1.4-0.9,3.1-1.2,4.6-0.8c4.1,1.1,6.2,6.8,4.7,13c-0.9,3.7-2.9,6.8-5.4,8.3C2441.9,844.3,2440.8,844.7,2439.6,844.7z M2442.2,824.3
		c-0.8,0-1.5,0.2-2.2,0.7c-2.1,1.2-3.7,3.8-4.5,7c-1.2,4.9,0.3,9.7,3.3,10.5c1,0.2,2.1,0,3-0.5c2.1-1.2,3.7-3.8,4.5-7
		c1.2-4.9-0.3-9.7-3.3-10.5C2442.7,824.4,2442.4,824.3,2442.2,824.3z"/>
</g>
<path class="st3" d="M2363.2,940.5c0,0-95.5-18.5-126.4-9.8l14.8,22.3l55.2,3.2L2363.2,940.5z"/>
<g class="st12">
	<path class="st14" d="M1732.4,562.1c-1.6-35.2-32.7-65-67.5-65c-49.2,0-65.3,38.2-67.2,73.4c-2,36.5,29.7,61.5,64.4,61.5
		S1734.4,605.8,1732.4,562.1z"/>
	<path class="st15" d="M1720.2,565.8c0-28-27.6-57.9-55.2-58.8c-40.8-1.3-57.4,40.7-57.4,68.7s28.5,44.7,56.1,44.7
		S1720.2,593.8,1720.2,565.8z"/>
	<path class="st14" d="M1670.9,564.8c-0.4-3.8-4.4-6.4-8.2-6.4s-7.8,4.6-7.8,8.5s4.1,7,7.8,7S1671.6,571.9,1670.9,564.8z"/>
	<path class="st14" d="M1662.8,568.3h-1.4c-0.8,0-1.4-0.6-1.4-1.3c0-0.8-1.7-3.3-1-3.3l0.8-1.6l1.6-37.8l-1.7,1
		c-0.4,0.6-1.3,0.8-1.9,0.4c-0.6-0.4-0.8-1.3-0.3-1.9l4.2-6.2c0.3-0.5,1-0.7,1.5-0.5c0.6,0.2,1,0.7,1,1.3l2.3,48.6
		C1666.5,567.6,1663.5,568.3,1662.8,568.3z"/>
	<path class="st14" d="M1667.5,525.4c-0.4,0-0.8-0.2-1-0.5l-5.2-3.8c-0.5-0.6,0.2-3.5,0.7-4c0.6-0.5,1.4-0.4,1.9,0.2l0,0l4.6,5.8
		c0.5,0.6,0.4,1.5-0.2,1.9C1668.1,525.2,1667.8,525.4,1667.5,525.4z"/>
	<path class="st14" d="M1638.1,572.8c-0.4,0-0.7-0.2-1-0.4l-4-4.3c-0.4-0.4-0.5-1-0.3-1.5s0.7-0.8,1.3-0.8l0,0l32.1-1.7
		c0.8,0,1.2,2.4,1.2,3.2v1.4c0,0.8-0.6,1.4-1.4,1.4l0,0c-0.8,0-2.4,0.7-2.4-0.1l1.1-1.3l-27.4-0.1l1.8,1.9c0.5,0.5,0.5,1.4,0,2
		C1638.8,572.7,1638.5,572.8,1638.1,572.8z"/>
	<path class="st14" d="M1634.1,568.6c-0.3,0-0.6-0.1-0.9-0.3c-0.6-0.5-0.7-1.3-0.2-1.9l3.8-4.7c0.5-0.6,1.3-0.7,1.9-0.2l0,0
		c0.6,0.5,0.7,1.3,0.2,1.9l-1.5,3.5C1636.4,567.6,1635.3,568.2,1634.1,568.6z"/>
</g>
<path class="st16" d="M832.2,490c0.3,4.2-21.2,9.3-52.7,13.2l-5.6,0.7c-12.2,1.4-25.7,2.6-40,3.5c-12.1,0.8-23.7,1.3-34.4,1.6
	c-3.9,0.1-7.7,0.2-11.3,0.2c-31.8,0.3-53.6-2-53.9-6.2c-0.2-3.6,15.7-7.9,40.4-11.5c2-0.3,4-0.6,6-0.9c10.4-1.4,22.2-2.7,34.8-3.7
	c5.6-0.5,11.3-0.9,17.1-1.3c4.1-0.3,8.1-0.5,12-0.7c16.7-0.9,32.1-1.2,45.2-1h0.9C815.6,484.2,831.9,486.4,832.2,490z"/>
<path class="st2" d="M733.2,426.8L733.2,426.8c-2.4,0-4.3-1.9-4.3-4.3l0,0v-71.4c0-2.4,1.9-4.3,4.3-4.3l0,0l0,0
	c2.4,0,4.3,1.9,4.3,4.3l0,0v71.4C737.4,424.9,735.5,426.8,733.2,426.8z"/>
<path class="st2" d="M720.8,421.4c0.2-6.8,5.8-12.2,12.6-12s12.2,5.8,12,12.6c-0.2,6.7-5.6,12.1-12.4,12.1
	C726.3,434,720.7,428.3,720.8,421.4L720.8,421.4z"/>
<path class="st1" d="M713.2,609.5L713.2,609.5c2.1,0.9,4.6,0,5.5-2.1l0,0l14.7-33.2c0.9-2.1,0-4.6-2.1-5.6l0,0
	c-2.1-0.9-4.6,0-5.5,2.1l0,0l-14.7,33.2C710.1,606.1,711.1,608.6,713.2,609.5z"/>
<path class="st1" d="M703.4,605.1L703.4,605.1c2.1,0.9,4.6,0,5.5-2.1l0,0l16.4-37.2c0.9-2.1,0-4.6-2.1-5.6l0,0
	c-2.1-0.9-4.6,0-5.5,2.1l0,0l-16.4,37.2C700.3,601.6,701.3,604.1,703.4,605.1z"/>
<path class="st1" d="M693.6,600.6L693.6,600.6c2.1,0.9,4.6,0,5.5-2.1l0,0l13.1-29.8c0.9-2.1,0-4.7-2.1-5.6l0,0
	c-2.1-0.9-4.6,0-5.5,2.1l0,0L691.4,595C690.5,597.1,691.4,599.6,693.6,600.6z"/>
<path class="st1" d="M711.5,631.5c0,0,19.6-14.1,20.3-31.4c0.3-6-29-18.3-34.1-14s-12,25.3-12,25.3L711.5,631.5z"/>
<path class="st1" d="M722.9,614L722.9,614c2.1,0.9,4.6,0,5.5-2.1l0,0l13.1-29.7c0.9-2.1,0-4.6-2.1-5.6l0,0c-2.1-0.9-4.6,0-5.5,2.1
	l0,0l-13.1,29.7C719.9,610.5,720.8,613,722.9,614z"/>
<path class="st1" d="M682.3,605.2c-30,36.6-75.8,86.8-124.1,118.1c-11.2,7.3-15.6,9.9-22.7,13.2c-5.7,2.6-7.7,15.9-3.3,25.8
	c4.1,9.4,14,14.7,21.4,12.9c5.6-1.4,2.5,6,15.1-1.9c43.8-27.4,96.9-81.3,145.5-143.9L682.3,605.2z"/>
<path class="st2" d="M506.1,1282.8c0,0,0.3,13.7,9.5,17.6c9.2,3.9,35.7,7.4,25.8,16.2c-5.7,5.1-32.5,1.8-40.1,1.8
	s-14.7,3.3-20.3-1.8c-6.2-5.7,0-33.8,0-33.8s6.5,3.4,12.4,3.3C501.9,1285.8,506.1,1282.8,506.1,1282.8z"/>
<path class="st2" d="M400.9,1282.8c0,0,0.3,13.7,9.5,17.6s35.7,7.4,25.8,16.2c-5.7,5.1-32.5,1.8-40.1,1.8s-14.7,3.3-20.3-1.8
	c-6.2-5.7,0-33.8,0-33.8s6.5,3.4,12.4,3.3C396.7,1285.8,400.9,1282.8,400.9,1282.8z"/>
<path class="st17" d="M574.2,906.2c0,0,1.7,57.5-16.4,167.8c-13,79.6-28.5,159.9-36,198.3c-2.7,13.8-14.1,23.8-27.6,24.4l-7.3,0.3
	c-14.6,0.6-26.5-12.1-25.4-27.3l18.3-260.3l4.5-85.7L574.2,906.2z"/>
<path class="st17" d="M536.4,955.2l-118.9,324.4c-4.3,13.9-16.6,23.4-30.7,23.7l-6.1,0.1c-14.5,0.3-25.5-13.3-22.9-28.1l62-321.5
	c0.8-3.7,13.7-5.4,17.4-5.7C467.5,945.4,538.3,941.4,536.4,955.2z"/>
<path class="st6" d="M458.4,762.5c0,0,18.9-36.3,66.5-27.6c22.5,4.1,35.8-5.9,41.3,36.1c4.9,37.7-5.1,87-10.7,160
	c0,0-34.6-79.5-132.1-52.3c0,0-4.1-36.4,13.3-97.3C441.5,764.1,452,774.1,458.4,762.5z"/>
<path class="st6" d="M419.5,740.8l36.3,41.4c0,0,84,39.8,111.2-0.3c19.9-29.3-3.1-62.6-3.1-62.6s-21.4,11.8-47.2,10.9
	c-7.2-0.3-25.4,0.9-32.5,0.6C435.1,729.3,419.5,740.8,419.5,740.8z"/>
<path class="st5" d="M470.7,1136.8l-1.7-0.4l25.1-108.8c4.9-15.5,15.4-28.6,29.3-36.8l0.9,1.5c-13.6,8-23.8,20.7-28.5,35.7
	L470.7,1136.8z"/>
<path class="st2" d="M419.3,741.1c-3.8,3.7,0,14.4,12.9,27.2s18.9,17.4,24.5,11.1c3.7-4.1,3.3-21.2-10-32
	C436.3,739,422,738.4,419.3,741.1z"/>
<path class="st18" d="M438.9,947.8c0,0,65.1-11,128.8,3.3c2.9,0.7,4.9,3.4,4.6,6.4l-2.3,24.1l-66.6-16.8L438.9,947.8z"/>
<path class="st1" d="M317.9,952.5L317.9,952.5c-2.3-0.3-4.4,1.3-4.8,3.6l-5.2,36c-0.3,2.3,1.2,4.5,3.5,4.8l0,0
	c2.3,0.3,4.4-1.3,4.8-3.6l5.2-36C321.8,955,320.2,952.9,317.9,952.5z"/>
<path class="st1" d="M328.5,954.1L328.5,954.1c-2.3-0.3-4.4,1.3-4.8,3.6l-5.8,40.3c-0.3,2.3,1.2,4.5,3.5,4.8l0,0
	c2.3,0.3,4.4-1.3,4.8-3.6l0,0l5.8-40.3C332.4,956.6,330.8,954.5,328.5,954.1z"/>
<path class="st1" d="M334.4,933.6l-1.3,0.8c-2.4,1.5-3.2,4.5-1.9,7l13.7,23.9c1.3,2.4,4.4,3.3,6.8,2c0.1,0,0.1-0.1,0.2-0.1l1.3-0.8
	c2.4-1.5,3.2-4.6,1.8-7l-13.7-23.9c-1.3-2.5-4.4-3.4-6.8-2C334.5,933.5,334.5,933.5,334.4,933.6z"/>
<path class="st1" d="M339.2,955.7L339.2,955.7c-2.3-0.3-4.4,1.3-4.8,3.6l-4.7,32.3c-0.3,2.3,1.2,4.5,3.5,4.8l0,0
	c2.3,0.3,4.4-1.3,4.8-3.6l4.7-32.3C343.1,958.2,341.5,956.1,339.2,955.7z"/>
<path class="st1" d="M313.6,930.9c0,0-15,19-11.2,35.9c1.3,5.8,32.8,9.6,36.5,4.1s4.8-27.7,4.8-27.7L313.6,930.9z"/>
<path class="st1" d="M307.3,950.9L307.3,950.9c-2.3-0.3-4.4,1.3-4.8,3.6l0,0l-4.7,32.2c-0.3,2.3,1.2,4.5,3.5,4.8l0,0
	c2.3,0.3,4.4-1.3,4.8-3.5l4.7-32.2C311.2,953.5,309.6,951.3,307.3,950.9z"/>
<path class="st1" d="M348.8,948.2c19.1-43.5,49.8-104.4,87.9-147.9c8.8-10.1,12.3-13.8,18.3-18.9c4.8-4.1,3.1-17.4-3.7-25.8
	c-6.4-7.9-17.4-10.3-24-6.5c-5,2.9-9.4,6.9-19.4,18c-34.8,38.5-66.2,92.8-96.2,166.5L348.8,948.2z"/>
<g class="st12">
	<path class="st13" d="M370.4,852.9c-0.9,0-1.9-0.2-2.7-0.7c-1.4-0.8-2.5-2.2-2.9-3.8c-0.9-2.8-0.3-6.5,1.5-9.8
		c3-5.5,8.4-8.3,12.2-6.3c1.4,0.8,2.5,2.2,2.9,3.8c0.8,2.8,0.3,6.5-1.5,9.8C377.5,850.2,373.7,852.9,370.4,852.9z M375.8,833.8
		c-2.6,0-5.8,2.3-7.7,5.9l0,0c-1.5,2.8-2.1,5.9-1.4,8.2c0.3,1.1,0.9,2,1.9,2.5c2.7,1.4,7-1.1,9.4-5.5c1.5-2.8,2.1-5.9,1.4-8.2
		c-0.3-1.1-1-2-1.9-2.5C377,833.9,376.4,833.8,375.8,833.8L375.8,833.8z"/>
</g>
<path class="st1" d="M495.3,718.8l1.1-16.8l0.3-4.9l1.9-28.6l7.3,26.3l4.4,15.8c0,0,3.5,14.7,6.3,17.6c4,4.1,5.1,9.2-3.2,10.8
	c-10.1,2-19.2-1.4-27.7-8C485.7,731,495,727.4,495.3,718.8z"/>
<path class="st19" d="M517.1,657.7c2.1,4.6,3.3,9.5,3.4,14.5c0.3,8.5-12.5-9.4-12.5-9.4L517.1,657.7z"/>
<path class="st1" d="M522,674.3c-5.7-15.2-20.4-23.5-32.8-18.7s-17.8,21-12.1,36.2s20.4,23.5,32.8,18.7
	C522.3,705.6,527.8,689.5,522,674.3z"/>
<path class="st9" d="M500.6,681.5c0.1-0.1,0.2-0.3,0.1-0.4c0-0.3-0.3-0.4-0.6-0.4c-2.4,0.2-4.3,2.1-4.7,4.5
	c-0.1,0.3,0.1,0.5,0.4,0.6c0.3,0,0.5-0.1,0.6-0.4c0.9-1.6,2.2-2.9,3.9-3.7C500.4,681.6,500.5,681.6,500.6,681.5z"/>
<path class="st9" d="M500,688.2c0.6,1,1.6,1.5,2.4,1.1c0.8-0.6,0.9-1.8,0.3-2.6c-0.6-1-1.6-1.5-2.4-1.1
	C499.5,686.2,499.4,687.3,500,688.2z"/>
<path class="st9" d="M517.7,675.8c0.1-0.1,0.2-0.2,0.2-0.3c0-0.2-0.1-0.5-0.3-0.6c-1.7-0.9-3.7-0.2-4.6,1.4c0,0.1-0.1,0.2-0.1,0.3
	c-0.1,0.2,0,0.5,0.2,0.7c0.1,0.1,0.4,0.1,0.5,0l0,0c1-1,2.5-1.5,3.9-1.4C517.6,675.9,517.7,675.9,517.7,675.8z"/>
<path class="st9" d="M514.6,681.8c0.1,1.2,0.9,2,1.8,2s1.4-1.1,1.3-2.3s-0.9-2-1.8-2S514.5,680.6,514.6,681.8z"/>
<path class="st19" d="M459.9,688.1c0,0,11.8,15.2,23.2,13.8c0,0-12-10.9,5-23.4C488.1,678.5,470.1,679.9,459.9,688.1z"/>
<path class="st1" d="M477.7,693.7c2.5,1,5.4-0.2,6.5-2.8c0.8-2.7-0.8-5.4-3.4-6.2l0,0c-2.5-1-5.4,0.2-6.5,2.8
	C473.6,690.2,475.1,692.9,477.7,693.7z"/>
<path class="st19" d="M488.1,678.5c0,0,1.9,14.7,5.4,16.7s22.8-1.4,30.8-7.1l0,0c2.4,9.1-2.1,18.7-10.8,22.6c-2.9,1.2-5.9,2-9.1,2.2
	l0,0c-6.5,0.4-13.1-0.7-17-6c-1.2-1.6-1.5-13.1-1.5-13.1s-0.7-6.6-5.1-9.1C480.8,684.8,484.1,679.8,488.1,678.5z"/>
<path class="st8" d="M520.8,694.4c-4.7,2.4-9.8,4.1-15,4.9c0,0,2.9,7.2,10.6,3.8C521,701.1,520.8,694.4,520.8,694.4z"/>
<path class="st6" d="M480.3,679.5c0,0,49.1-4.8,61.8-19.2s-26.6-9.7-26.6-9.7S483.6,679.1,480.3,679.5z"/>
<path class="st20" d="M515.5,650.7c0,0-13.9-17.7-36.6-11.4s-33.2,25.2-18.9,48.9c13.1-3,25.1-9.3,35.1-18.2
	C511.7,654.9,515.5,650.7,515.5,650.7z"/>
<path class="st17" d="M423.6,872.9c0,0,39.4-16.8,46.3-44.9s1.5-48.8,32.1-51.4s54.4-7,64.6,2.5c9.5,9,11.4,121.2,5,186.5
	c-0.3,2.5-0.3,4.7-0.5,6.3c-2.8,28-153.1-2.6-153.1-2.6L423.6,872.9z"/>
<path class="st18" d="M502.8,781c0,0-7.8-40.8-23.6-50.2c0,0-8-2.8-10.2,0c0,0,19.5,29.8,19,55.6L502.8,781z"/>
<path class="st18" d="M544.5,777.5c0,0-10.2-35.8-21.9-47.3c4.1-1.4,8.6-0.7,12.1,1.8c0,0,18.8,22.8,20.3,46.7L544.5,777.5z"/>
<path class="st4" d="M801.8,542.4c6.5,27.3-12.2,63.4-44,71.1s-64.5-7.8-69.1-35.6c-6.7-40.4,14-55.8,45.8-63.5
	S795.3,515,801.8,542.4z"/>
<path class="st4" d="M698.7,532.2c0,0,17.9-18.2,13.2-38.1l27.7-6.7c0,0,4.8,20.5,28.2,25.3C767.8,512.7,735.3,539.9,698.7,532.2z"
	/>
<path class="st21" d="M712.7,501.4c0,0-9,0.8-9.2-9.5c0,0-7.7-5.1-3.2-12c0,0-6.6-5.7-3.4-13.6s39.7-13.5,43.3-10.5s3.3,7.6,0.5,9.3
	c0,0,5,2.3,4.9,6.7s-2.2,5.8-2.2,5.8s3.7,1,5.2,6.5S745.7,498.1,712.7,501.4z"/>
<g class="st22">
	<path class="st8" d="M761.4,588.1c0,0,9.5-10,10.7-23.2s14.4-12.4,18.4-1.8s-2.8,26-10.7,28.8S759.1,598.1,761.4,588.1z"/>
</g>
<path class="st23" d="M703,480.7c-0.9,0-1.8,0-2.8-0.1l0.1-1.2c9.4,0.6,18.8-1.7,26.9-6.5l0.7,1.1
	C720.4,478.3,711.8,480.7,703,480.7z"/>
<path class="st23" d="M703.5,492.6L703.5,492.6l-0.1-1.3l0,0c0.5,0,18.8-0.1,29-7l0.7,1C722.7,492.5,704.8,492.6,703.5,492.6z"/>
<path class="st1" d="M677.9,610.5c0,0,4.1-11.6,2.3-19.5s7.3-23.9,10.8-29.5c4-6.3,7.4-3.5,7.6,1.2c0.2,3.6-2.6,8-2.1,12.7
	c1.3,10.7,3.2,7.8,6.6,19.9s3.1,17.6-2.7,20.5S677.9,610.5,677.9,610.5z"/>
<path class="st2" d="M495.3,787.6c0-2.3,1.8-4.2,4.2-4.2l0,0c2.3,0,3.6,2,4.2,4.2c0.7,3.1-1.9,4.2-4.2,4.2
	C497.2,791.8,495.3,789.9,495.3,787.6L495.3,787.6z"/>
<path class="st2" d="M543.3,782c0-2.3,1.8-4.2,4.2-4.2l0,0c2.3,0,3.7,2,4.2,4.2c0.7,3.1-1.9,4.2-4.2,4.2
	C545.1,786.2,543.3,784.3,543.3,782L543.3,782z"/>
<path class="st6" d="M832.2,490.1L832.2,490.1c-0.2-3.7-16.6-5.8-41.5-6.2h-0.9c-13.1-0.2-28.5,0.2-45.2,1c-3.9,0.2-8,0.4-12,0.7
	c-5.8,0.4-11.5,0.8-17.1,1.3c-12.6,1.1-24.4,2.3-34.8,3.7l-6,0.8c-24.5,3.6-40.3,7.8-40.3,11.4c0-43,44.2-83.3,99-83.3
	s99.2,31.3,99.2,69.8C832.4,489.6,832.3,489.9,832.2,490.1z"/>
<path class="st21" d="M916.5,1325.9c-0.9,0-1.8-0.2-2.7-0.5c-4.2-1.5-6.4-6.1-4.9-10.3l0,0L1062.7,879c1.5-4.2,6.1-6.4,10.3-4.9
	c4.2,1.5,6.4,6.1,4.9,10.3l-153.8,436.1C923,1323.7,920,1325.9,916.5,1325.9z"/>
<path class="st21" d="M707.4,1325.9c-0.9,0-1.8-0.2-2.7-0.5c-4.2-1.5-6.5-6.1-5-10.3l0,0L853.6,879c1.5-4.2,6.1-6.4,10.3-4.9
	s6.4,6.1,4.9,10.3L715,1320.5C713.9,1323.7,710.9,1325.9,707.4,1325.9z"/>
<polygon class="st21" points="964.4,1182.1 755.3,1182.1 749.5,1198.5 959.5,1196 "/>
<polygon class="st21" points="1024,1028.6 814.9,1028.5 809.1,1045 1019.1,1042.5 "/>
<polygon class="st21" points="1053.7,925.6 844.6,925.5 838.8,942 1048.8,939.5 "/>
<path class="st21" d="M1027.6,1299.1c-3.7,0-6.9-2.5-7.8-6l-43.6-164.3c-1-4.4,1.7-8.7,6.1-9.7c4.2-1,8.4,1.5,9.6,5.6l43.6,164.4
	c1.1,4.3-1.4,8.8-5.8,9.9C1029,1299,1028.3,1299.1,1027.6,1299.1z"/>
<path class="st24" d="M1022.3,366.8h431c14.5,0,26.2,11.7,26.3,26.2l0,0v131c0,14.5-11.7,26.2-26.2,26.2H1075
	c-43.6,0-78.9-35.3-78.9-78.9l0,0V393C996.1,378.5,1007.9,366.8,1022.3,366.8z"/>
<path class="st3" d="M1034.7,506.2c-2.1,0-3.7,1.7-3.7,3.8c0,0.9,0.4,1.8,1,2.5c15.1,16.6,36.4,26.2,58.9,26.2h294.7
	c11.4-0.1,20.6-9.4,20.5-20.8V510c0-2.1-1.6-3.7-3.7-3.8l0,0L1034.7,506.2z"/>
<path class="st3" d="M1399.5,486.2h-377.6c-1.3-0.1-2.3-1.2-2.2-2.5c0.1-1.2,1-2.1,2.2-2.2h377.6c1.3,0.1,2.3,1.2,2.2,2.5
	C1401.6,485.2,1400.6,486.2,1399.5,486.2z"/>
<path class="st3" d="M1399.5,468.5h-377.6c-1.3,0-2.3-1.1-2.3-2.3c0-1.3,1-2.3,2.3-2.3h377.6c1.3,0,2.3,1.1,2.3,2.3
	C1401.8,467.5,1400.8,468.5,1399.5,468.5z"/>
<path class="st6" d="M1399.5,383.6c-0.1-3.9-3.3-7-7.2-7c-3.9,0.1-7,3.3-7,7.2c0.1,3.9,3.2,7,7.1,7
	C1396.4,390.8,1399.5,387.6,1399.5,383.6z"/>
<path class="st2" d="M1372.1,383.6c-0.1-3.9-3.3-7-7.2-7c-3.9,0.1-7,3.3-7,7.2c0.1,3.9,3.2,7,7.1,7
	C1369,390.8,1372.1,387.6,1372.1,383.6z"/>
<path class="st1" d="M754.3,823L754.3,823c-2.1-0.1-3.9,1.4-4.1,3.5l-2.6,32.8c-0.2,2.1,1.4,4,3.5,4.2l0,0c2.1,0.1,3.9-1.4,4.1-3.5
	l2.6-32.8C758,825.1,756.5,823.2,754.3,823z"/>
<path class="st1" d="M764,823.8L764,823.8c-2.1-0.2-3.9,1.4-4.1,3.5L757,864c-0.2,2.1,1.4,4,3.5,4.2l0,0c2.1,0.2,3.9-1.4,4.1-3.5
	l2.9-36.6C767.7,825.9,766.1,824,764,823.8L764,823.8z"/>
<path class="st1" d="M768.2,805l-1.1,0.8c-2.1,1.5-2.7,4.3-1.3,6.5l13.7,20.7c1.4,2.1,4.2,2.7,6.3,1.3c0,0,0,0,0.1,0l1.1-0.8
	c2.1-1.5,2.7-4.3,1.3-6.5l-13.7-20.7C773.2,804.2,770.3,803.6,768.2,805L768.2,805z"/>
<path class="st1" d="M773.7,824.6L773.7,824.6c-2.1-0.1-3.9,1.4-4.1,3.5l-2.4,29.4c-0.2,2.1,1.4,4,3.5,4.2l0,0
	c2.1,0.1,3.9-1.4,4.1-3.5l2.4-29.4C777.4,826.7,775.8,824.8,773.7,824.6z"/>
<path class="st1" d="M749.3,803.8c0,0-12.5,18-8,33c1.5,5.2,30.1,6.8,33.2,1.5s2.7-25.2,2.7-25.2L749.3,803.8z"/>
<path class="st1" d="M744.7,822.2L744.7,822.2c-2.1-0.2-3.9,1.4-4.1,3.5l0,0l-2.4,29.3c-0.2,2.1,1.4,3.9,3.5,4.1l0,0
	c2.1,0.2,3.9-1.4,4.1-3.5l0,0l2.4-29.3C748.4,824.3,746.8,822.4,744.7,822.2z"/>
<path class="st1" d="M782,817.3c14.7-40.3,38.9-97.1,70.7-138.5c7.4-9.6,10.3-13.2,15.4-18.1c4.1-4,1.8-15.8-4.8-23
	c-6.2-6.7-18.1-9.2-20.6-7.3c-4.2,3.1-9.5,9.7-17.9,20.3c-29.2,36.7-54.3,87.6-77.2,155.9L782,817.3z"/>
<g class="st12">
	<path class="st13" d="M798.3,721.8c-0.6,0-1.3-0.1-1.9-0.4c-3-1.4-3.9-6-2-10.3c1-2.4,2.8-4.3,5.2-5.3c1.2-0.5,2.6-0.5,3.8,0
		c3,1.4,3.9,6,2,10.3c-1,2.4-2.8,4.3-5.1,5.3C799.6,721.6,799,721.8,798.3,721.8z M801.6,707.1c-0.5,0-0.9,0.1-1.4,0.3
		c-1.9,0.9-3.5,2.5-4.3,4.5c-1.5,3.4-1,7.2,1.2,8.2c0.8,0.3,1.7,0.3,2.6,0c1.9-0.9,3.5-2.5,4.3-4.5c1.5-3.4,1-7.2-1.2-8.2
		C802.4,707.1,802,707.1,801.6,707.1L801.6,707.1z"/>
</g>
<path class="st1" d="M922.5,606.3l4.4-19.4l1.3-5.6l7.5-33.2l3.7,32.2l2.2,19.3l0.7,6.1c0.5,4.2,1.6,10,4.9,13.4
	c1.3,1.4,11.3,4.5,2.7,9.2c-10.8,5.8-32.2-0.2-40.8-9.5C909.1,618.7,921.1,612.5,922.5,606.3z"/>
<path class="st1" d="M963,554.4c-3.9-18.8-19.5-31.5-34.9-28.2s-24.7,21.2-20.9,40s19.5,31.5,34.8,28.2S966.8,573.3,963,554.4z"/>
<path class="st2" d="M950.2,547c16.3-0.6,23.5-10.7,23-19.5c-0.6-11.3-8.3-20.8-16.2-16c-7.8,4.8-5.1-5.7-13-6.2
	c-14.8-0.9-16.8,9.8-28.7,11.3c-15.8,1.9-31.8,30-17.2,48.5C898.1,565,937.3,547.5,950.2,547z"/>
<path class="st2" d="M963.8,534.5c0,0-16.1,18.3-13.1,27.6s2.7,13.1-7.1,19s-0.2,13.4-13.7,15s-31.2-13.3-33.1-39.9
	c-0.6-8.9,1.7-17.7,6.6-25.2L963.8,534.5z"/>
<path class="st1" d="M959.4,561c-2.2-2.7-5.8-3.3-8.2-1.3s-2.5,5.7-0.3,8.4s5.8,3.3,8.2,1.3S961.6,563.7,959.4,561z"/>
<path class="st2" d="M901.5,561.2h-0.2c-0.2-0.1-0.3-0.3-0.3-0.5l0,0c1-2.5,3-4.4,5.4-5.5c0.2-0.1,0.5,0,0.6,0.2s0,0.5-0.2,0.5l0,0
	c-2.2,1-4,2.8-5,5C901.8,561.1,901.7,561.2,901.5,561.2z"/>
<path class="st2" d="M907,553.9L907,553.9c-0.1,0-5.1-1.1-5.3-5.3c0-0.2,0.2-0.4,0.4-0.4l0,0c0.2,0,0.4,0.2,0.4,0.4l0,0
	c0.2,3.5,4.5,4.5,4.5,4.5c0.2,0.1,0.4,0.3,0.3,0.5C907.4,553.8,907.2,553.9,907,553.9z"/>
<path class="st2" d="M954.3,511c-0.5,0-0.9-0.1-1.3-0.4c-2.3-1.3-3.1-5.9-3.1-6.1s0.1-0.4,0.3-0.5l0,0c0.2,0,0.4,0.1,0.5,0.3l0,0
	c0,0,0.8,4.4,2.7,5.5c0.5,0.3,1.1,0.3,1.7,0.1c1.1-0.5,2.1-1.1,3-1.9c1.7-1.4,3.5-2.9,7.4-1.9c0.2,0.1,0.4,0.3,0.3,0.5
	s-0.3,0.4-0.5,0.3c-3.5-0.9-4.9,0.4-6.6,1.8c-0.9,0.9-2,1.6-3.2,2.1C955,510.9,954.7,511,954.3,511z"/>
<path class="st2" d="M915.5,515.1c-0.3,0-0.7,0-1,0c-0.2,0-0.4-0.2-0.4-0.5s0.2-0.4,0.5-0.4c6.3,0.5,11.2-4.9,11.3-4.9
	c0.2-0.2,0.4-0.2,0.6,0l0,0c0.2,0.2,0.2,0.4,0,0.6C926.3,510,921.7,515.1,915.5,515.1z"/>
<path class="st2" d="M955.4,571c-1.4,0-3.6-0.6-5.5-3.8c-0.1-0.1,0-0.2,0.1-0.3l0,0c0.1-0.1,0.2,0,0.3,0.1l0,0
	c2.8,4.8,6.3,3.4,6.4,3.4c0.1,0,0.2,0,0.3,0.1l0,0c0,0.1,0,0.2-0.1,0.3C956.4,570.9,955.9,571,955.4,571z"/>
<path class="st1" d="M1119.3,612.8c3.3-8-22.1-21.8-22.1-21.8c-2.8-0.6-24.1,49-70.4,53.3c-16.5,1.6-47.3-15.6-50.4-18.8
	c-0.4-0.4-27.5,25-27.5,25c5.5,5.8,17.7,26.5,39.4,34.4C1033.3,701.3,1106.4,666.4,1119.3,612.8z"/>
<path class="st2" d="M918.8,1149.6c0,0,0.3,12.2,8.4,15.6s31.6,6.5,22.8,14.4c-5,4.5-28.8,1.6-35.5,1.6s-13,3-18-1.6
	c-5.5-5,0-30,0-30s5.8,3.1,11,2.9C915,1152.3,918.8,1149.6,918.8,1149.6z"/>
<path class="st17" d="M988.8,782.3c0,0,1.6,54.9-15.7,160.3c-12.5,76.1-27.2,152.7-34.4,189.5c-2.6,13.2-13.5,22.8-26.4,23.3
	l-6.9,0.3c-14,0.6-25.3-11.6-24.3-26.1L898.7,881l4.3-81.9L988.8,782.3z"/>
<path class="st2" d="M842,1149.6c0,0,0.3,12.2,8.4,15.6s31.6,6.5,22.8,14.4c-5,4.5-28.8,1.6-35.5,1.6s-13,3-18-1.6c-5.5-5,0-30,0-30
	s5.8,3.1,11,2.9C838.2,1152.3,842,1149.6,842,1149.6z"/>
<path class="st17" d="M912,782.3c0,0,1.6,54.9-15.7,160.3c-12.5,76.1-27.2,152.7-34.4,189.5c-2.6,13.2-13.5,22.8-26.4,23.3l-6.9,0.3
	c-14,0.6-25.3-11.6-24.3-26.1L821.8,881l4.3-81.8L912,782.3z"/>
<path class="st6" d="M858.2,638.7c0,0,13.3-33.2,76.5-24.5c91,12.5,69,76.9,61.4,160c0,0-83.2-3.4-170.7,3
	C825.5,777.2,831.2,688.4,858.2,638.7z"/>
<path class="st6" d="M823,637.2c0,0,10.8,36.2,39.3,46.8c27.1,10.1,122.1,27.6,142,13.1c26.6-19.5,12.5-59.9,12.5-59.9
	s-17.9-5.1-60.3-18.5c-4-1.3-8.1-2.3-12.5-3.3c-7.3-1.5-14.6-2.4-22-2.7C854.8,609.2,823,637.2,823,637.2z"/>
<path class="st2" d="M892.7,966.1L892.7,966.1c-0.4,0-0.6-0.3-0.5-0.6l0,0c5.2-29.1,0.2-52.6-5-67.1c-5.6-15.7-12.4-24.7-12.5-24.8
	c-0.2-0.2-0.1-0.6,0.1-0.7c0.2-0.2,0.6-0.1,0.7,0.1c0.3,0.4,27.7,36.5,17.7,92.7C893.1,965.9,892.9,966.1,892.7,966.1z"/>
<path class="st17" d="M825.5,777.2c0,0,47.6-36.9,49.7-84.7s25.7-42.1,41.4-40.8s37.4,0,39.9,13.2s-7.4,47.1,13,77.9
	s26.7,31.4,26.7,31.4l-13.3,99.2l-159.7-18.1L825.5,777.2z"/>
<path class="st17" d="M897.6,655l-1.6-42.3c0,0,8.4-2.6,13.7-0.2l-1,45.1L897.6,655z"/>
<path class="st17" d="M937.2,657.6l23.3-37c0,0,14.3-1.5,15.9,5L949,667.2L937.2,657.6z"/>
<path class="st2" d="M1098.8,549.6L1098.8,549.6c-1,0.5-2.1,0.1-2.6-0.9l0,0l-26.3-53.9c-0.5-1-0.1-2.1,0.9-2.6l0,0
	c1-0.5,2.1-0.1,2.6,0.9l0,0l26.3,53.9C1100.1,548,1099.7,549.1,1098.8,549.6z"/>
<path class="st6" d="M1124.8,603.1L1124.8,603.1c-5.2,2.6-11.6,0.5-14.2-4.8c0,0,0-0.1-0.1-0.1l-24.2-49.6
	c-2.6-5.3-0.5-11.7,4.8-14.4l0,0c5.2-2.6,11.6-0.5,14.2,4.8v0.1l24.2,49.6C1132.2,593.9,1130.1,600.4,1124.8,603.1z"/>
<path class="st1" d="M1121,595.5l0.9,0.6c1.5,1,3.5,0.7,4.5-0.8l0,0l11.6-16.5c1-1.5,0.7-3.6-0.8-4.6l-0.9-0.6
	c-1.5-1-3.5-0.7-4.5,0.8l0,0l-11.5,16.5C1119.2,592.4,1119.6,594.4,1121,595.5z"/>
<path class="st1" d="M1113.1,589.9l0.8,0.5c1.5,1.1,3.6,0.7,4.6-0.8l0,0l15-21.5c1.1-1.5,0.7-3.6-0.8-4.7l-0.8-0.5
	c-1.5-1.1-3.6-0.7-4.6,0.8l0,0l-15,21.5C1111.3,586.7,1111.6,588.8,1113.1,589.9z"/>
<path class="st1" d="M1100.5,604.2l1.3-0.1c2.5-0.2,4.5-2.4,4.3-4.9l-1.4-24.9c-0.1-2.5-2.3-4.5-4.8-4.4l0,0l-1.3,0.1
	c-2.5,0.2-4.5,2.4-4.3,4.9l1.4,24.9C1095.8,602.4,1097.9,604.3,1100.5,604.2z"/>
<path class="st1" d="M1105.6,584.4L1105.6,584.4c1.7,1.2,4,0.8,5.3-0.9l0,0l16.8-24c1.2-1.7,0.8-4.1-0.9-5.4l0,0
	c-1.7-1.2-4-0.8-5.3,0.9c0,0,0,0,0,0.1l-16.8,24.1C1103.5,580.8,1103.9,583.2,1105.6,584.4z"/>
<path class="st1" d="M1116.2,615c0,0,19.8-9,23.5-24.2c1.3-5.3-18.2-27.1-23.4-24.2s-19.4,26-19.4,26L1116.2,615z"/>
<path class="st1" d="M1128.8,601.2l1.1,0.8c1.4,1,3.3,0.7,4.3-0.7l0,0l9.3-13.3c1-1.4,0.7-3.4-0.7-4.4l-1.1-0.8
	c-1.4-1-3.3-0.7-4.3,0.7l0,0l-9.3,13.3C1127,598.2,1127.3,600.1,1128.8,601.2z"/>
<path class="st2" d="M2020.4,1240.3c0,0-0.3,13.1-9.2,16.8s-34.6,7-25,15.5c5.5,4.8,31.5,1.7,38.8,1.7s14.2,3.2,19.7-1.7
	c6-5.4,0-32.3,0-32.3s-6.3,3.3-12,3.1C2024.5,1243.2,2020.4,1240.3,2020.4,1240.3z"/>
<path class="st2" d="M2173.3,1240.7c0,0,3.7,12.6-3.6,18.8s-30.8,17.3-19,22.3c6.7,2.9,30.5-8,37.5-10.2s14.5-1.3,18.2-7.6
	c4-7-9.9-30.7-9.9-30.7s-5,5.1-10.5,6.7C2178.1,1242.2,2173.3,1240.7,2173.3,1240.7z"/>
<path class="st13" d="M2015.2,966c-0.8,0-1.5-0.2-2.2-0.5c-2.3-1.2-4.1-3.3-4.9-5.7c-1.7-4.5-0.5-9.1,2.6-10.3
	c1.3-0.5,2.7-0.4,3.9,0.2c2.3,1.2,4.1,3.3,4.9,5.7l0,0c1.7,4.5,0.5,9.1-2.6,10.3C2016.3,965.9,2015.7,966,2015.2,966z M2012.3,950.7
	c-0.3,0-0.7,0.1-1,0.2c-2.3,0.9-3,4.7-1.7,8.3c0.7,2.1,2.2,3.8,4.1,4.8c0.8,0.4,1.8,0.5,2.6,0.2c2.3-0.9,3-4.7,1.7-8.3l0,0
	c-0.7-2.1-2.2-3.8-4.1-4.8C2013.4,950.8,2012.8,950.7,2012.3,950.7L2012.3,950.7z"/>
<path class="st25" d="M1774,894.7l-8.7-26.6c2.1-1.5,72.2-35.8,125.1-113.8c0,0,2.1-4.3,19.8,4.8c18.1,9.3,16.8,16.4,16.8,16.4
	C1884.4,857.7,1775.3,893.8,1774,894.7z"/>
<path class="st17" d="M1954.7,919.4c2.3,25.1,9.2,82.2,15.8,121.7c12.6,76,27.6,152.5,34.9,189.2c2.5,13,13.5,22.6,26.8,23.3l7,0.3
	c14.1,0.6,25.6-11.6,24.6-26l-16.5-230.2l-1.3-18.2l-3.2-59c-10.9,3.5,23.9-12.7,16.5-5.3l16-14
	C2075.2,901.3,1980.6,890.2,1954.7,919.4z"/>
<path class="st17" d="M2013.5,920.8l33.7,76.9l101.6,231.7c5.4,12.6,18.3,20.4,32,19.2l5.9-0.6c14-1.3,23.1-15.4,19.1-29.1
	c0,0-81-317-84.7-328.3c0,0-44.3,7.6-75.3,17.5C2034.8,911.5,2020.9,913.4,2013.5,920.8z"/>
<path class="st6" d="M2060.3,708.7c0,0-23.1-33.9-74.9-22.3c-57,12.8-60.9,43.7-54.1,103.1c4.3,37.6,17.2,108,26.7,161.3
	c0,0,50.2-60.8,145.8-117.3C2103.8,833.6,2081.9,740.1,2060.3,708.7z"/>
<path class="st6" d="M2102.1,826.5c0,0-9.5,12.3-35.8,0c-31.1-14.5-93.2-45.8-118.6-43.9s-59.5-32.9-59.5-32.9s32.6-38.4,75-56.3
	c4.1-1.7,8.3-3.3,12.6-4.6c7.4-2.3,15-3.7,22.4-5C2089.9,667.2,2102.1,826.5,2102.1,826.5z"/>
<path class="st1" d="M1989.1,691.4c1.2-5.5-3-4.3-6-8.3l-9.1-12.3l-2.7-3.6l-15.6-21l7.3,23.8l4.4,14.3l1.4,4.5
	c0.9,3.1,0.3,3.8-1,7.2c-0.5,1.4-2.4,6.9,2.8,7.4C1975.2,703.9,1987.5,698.3,1989.1,691.4z"/>
<path class="st2" d="M1977.3,663.6c0,0,20-16.5,10.2-32.3s-15.2,23.2-15.2,23.2l2.4,9.3L1977.3,663.6z"/>
<path class="st2" d="M1974,670.4c0,0.1,0,0.3,0.1,0.4c1.2,7.9-6.5,13.5-6.5,13.5h-0.1l-4.4-14.3c2.4-1.5,5.9-3.3,8.3-2.8
	C1972.7,667.6,1973.6,668.5,1974,670.4z"/>
<path class="st1" d="M1935.1,658c-3.2-14.2,3.7-27.9,15.5-30.6s24,6.7,27.2,20.9s-3.7,27.9-15.5,30.6S1938.3,672.2,1935.1,658z"/>
<path class="st2" d="M1973.9,646c0,0-6.3,3.9-11-0.1s-8-7.7-19.6-2.9s-23.6,1.4-25.5-5s3.8-10.9,10.9-10.1s-1.2-3.6,4.1-9.9
	s17.3,1.4,23.6-1.4s28.5-4.1,31.1,14.7L1973.9,646z"/>
<path class="st1" d="M1978.3,650c-1.6,1.7-4.3,1.8-6.1,0.1c-1.7-1.6-1.8-4.3-0.1-6.1c1.5-1.6,3.9-1.8,5.7-0.5
	C1979.7,645.3,1980,648.1,1978.3,650z"/>
<path class="st8" d="M1930.8,636.4c-0.5,0-1.1-0.1-1.6-0.2c-2.3-0.8-2.9-2-2.7-2.9c0.3-1,1.7-1.9,3.7-1.6c1.8,0.4,3.7,0.3,5.4-0.4
	l0.1,0.3c-1.8,0.7-3.7,0.9-5.6,0.5c-1.8-0.3-3.2,0.5-3.4,1.4c-0.2,0.8,0.4,1.8,2.5,2.5c4.4,1.4,12.4-4.8,12.5-4.8l0.2,0.2
	C1941.7,631.5,1935.4,636.4,1930.8,636.4z"/>
<path class="st8" d="M1951.9,622.2c-3.4-0.1-6.8-1.1-9.7-2.9l0.2-0.2l-0.1,0.1l0.1-0.1c0.3,0.3,6.9,4.2,12.9,2.3
	c1.8-0.6,3.6-1.3,5.4-2.1c3.4-1.5,6.3-2.8,9.4-1.9l-0.1,0.3c-3-0.8-5.9,0.4-9.3,1.9c-1.8,0.8-3.6,1.5-5.4,2.1
	C1954.3,622.1,1953.1,622.2,1951.9,622.2z"/>
<path class="st8" d="M1982.1,629.7c-1,0-3.1-1.9-3.6-3.2c-0.3-0.7,0-0.9,0.2-1c1.6-0.8,3.8,2.9,3.9,3l0,0c0.2,0.8-0.1,1-0.3,1.1
	L1982.1,629.7z M1979.1,625.7c-0.1,0-0.2,0-0.3,0.1c-0.1,0-0.3,0.2-0.1,0.7c0.5,1.2,2.8,3.2,3.4,3c0.2-0.1,0.2-0.4,0.2-0.7
	C1981.7,627.8,1980.2,625.7,1979.1,625.7L1979.1,625.7z"/>
<path class="st9" d="M1952.2,653.5c-0.1,0-0.3-0.1-0.3-0.3c-0.1-0.2,0-0.5,0.2-0.6l0,0c1.9-1,4.3-0.6,5.8,1c0.2,0.2,0.2,0.4,0,0.6
	c-0.2,0.2-0.4,0.2-0.6,0c-1.5-0.8-3.2-1.1-4.8-0.8C1952.3,653.5,1952.2,653.5,1952.2,653.5z"/>
<path class="st9" d="M1955.9,658.2c0.1,1-0.4,2-1.2,2s-1.5-0.7-1.6-1.8s0.4-2,1.2-2S1955.8,657.1,1955.9,658.2z"/>
<path class="st9" d="M1936.3,658c-0.1,0-0.2,0-0.3-0.1c-0.1-0.2-0.1-0.4,0-0.6c0.8-1.5,2.7-2,4.2-1.2c0.1,0,0.1,0.1,0.2,0.1
	c0.2,0.1,0.3,0.4,0.2,0.6c0,0.2-0.2,0.3-0.4,0.2l0,0c-1.3-0.2-2.6,0.1-3.7,0.9C1936.5,657.9,1936.4,658,1936.3,658z"/>
<path class="st9" d="M1941.7,660.8c0.1,0.8-0.4,1.5-1.2,1.7c-0.8,0.1-1.5-0.4-1.7-1.2c-0.1-0.6,0.2-1.2,0.8-1.5
	C1940.2,659.4,1941.2,659.9,1941.7,660.8z"/>
<path class="st5" d="M1954.5,672.8c-1.2,0-2.4-0.2-3.6-0.5c-0.2,0-0.3-0.2-0.2-0.4c0-0.2,0.2-0.3,0.4-0.2h0.1
	c0.3,0.1,7.4,2.3,11.4-3.6c0.1-0.1,0.3-0.2,0.4-0.1c0.1,0.1,0.2,0.3,0.1,0.4C1961.1,671.3,1957.9,673,1954.5,672.8z"/>
<path class="st5" d="M1963.6,669.6c-0.1,0-0.3-0.1-0.3-0.2c-0.3-0.8-0.9-1.5-1.6-1.9l-0.1-0.1c-0.1-0.1-0.2-0.3-0.1-0.4
	c0.1-0.1,0.3-0.2,0.4-0.1c0.9,0.5,1.6,1.3,1.9,2.3C1963.9,669.4,1963.8,669.6,1963.6,669.6L1963.6,669.6z"/>
<path class="st8" d="M1938.6,675.6c-0.5,0-0.9,0-1.3-0.1c-3.3-0.7-6.5-3.7-8.6-8c-3.5-7-3-15.6,0.9-19c1.4-1.2,3.4-1.7,5.2-1.3
	c3.3,0.7,6.5,3.7,8.6,8l0,0c3.5,7.1,3,15.6-0.9,19C1941.4,675.1,1940,675.6,1938.6,675.6z M1933.5,647.9c-1.2,0-2.4,0.4-3.3,1.2
	c-3.7,3.2-4,11.2-0.7,17.8c2,4.1,5,6.9,8,7.5c1.6,0.4,3.2,0,4.4-1.1c3.7-3.1,4-11.2,0.7-17.8c-2-4.1-5-6.9-8-7.5
	C1934.2,648,1933.9,647.9,1933.5,647.9z"/>
<g class="st10">
	<path class="st8" d="M1966.3,646.8c2.7,7,1.3,15.1-3.3,18.2s-10.4-0.1-13.1-7s-1.3-15.1,3.3-18.2S1963.6,639.8,1966.3,646.8z"/>
</g>
<g class="st10">
	<path class="st8" d="M1943.7,655.7c2.7,7,1.7,15.2-2.3,18.3s-9.4-0.1-12.2-7s-1.7-15.2,2.3-18.3S1941,648.7,1943.7,655.7z"/>
</g>
<path class="st8" d="M1958.7,666.4c-0.8,0-1.6-0.1-2.4-0.4c-3.4-1.1-6.3-4.1-8-8.5c-3-7.4-1.3-16.2,3.7-19.5
	c1.9-1.3,4.4-1.7,6.6-0.9c3.4,1,6.3,4.1,8,8.5l0,0c2.9,7.4,1.3,16.2-3.7,19.5C1961.7,666,1960.2,666.4,1958.7,666.4z M1956.3,637.7
	c-1.3,0-2.6,0.4-3.7,1.2c-4.7,3.1-6.2,11.4-3.4,18.4c1.6,4,4.4,7,7.4,7.9c2,0.6,4.1,0.3,5.9-0.8c4.7-3.1,6.2-11.4,3.4-18.4
	c-1.6-4-4.4-7-7.4-7.9C1957.7,637.8,1957,637.7,1956.3,637.7z"/>
<path class="st8" d="M1943,658.6c-0.2,0-0.4-0.1-0.6-0.2c-0.3-0.3-0.4-0.9-0.1-1.2c1.9-1.9,4.6-2.8,7.3-2.6c0.5,0,0.8,0.4,0.8,0.9
	s-0.4,0.8-0.9,0.8l0,0c-2.2-0.2-4.3,0.5-5.9,2C1943.5,658.5,1943.2,658.6,1943,658.6z"/>
<path class="st2" d="M1987.8,631.5l-0.3-0.3c2.7-2.9,0.5-6.2,0.5-6.3l0.4-0.3C1988.3,624.6,1990.7,628.3,1987.8,631.5z"/>
<path class="st2" d="M1991.9,635.5c0,0-2.8-2.1-4.9-1.8l-0.1-0.5c2.3-0.3,5.1,1.8,5.3,1.9L1991.9,635.5z"/>
<path class="st2" d="M2074.2,763.8c-4.4,4.3-17.8-1.8-29.8-13.7s-18.1-25.1-13.7-29.4s17.8,1.8,29.8,13.7S2078.7,759.5,2074.2,763.8
	z"/>
<path class="st25" d="M1763.2,882.4L1763.2,882.4c-1.4-1.5-3.7-1.6-5.2-0.2l-19.4,18c-1.5,1.4-1.6,3.7-0.2,5.2l0,0
	c1.4,1.5,3.7,1.6,5.2,0.2l19.4-18C1764.5,886.2,1764.6,883.9,1763.2,882.4z"/>
<path class="st25" d="M1769.6,889.3L1769.6,889.3c-1.4-1.5-3.7-1.6-5.2-0.2l-25.1,23.3c-1.5,1.4-1.6,3.7-0.2,5.2l0,0
	c1.4,1.5,3.7,1.6,5.2,0.2l25.1-23.3C1770.8,893.1,1770.9,890.8,1769.6,889.3z"/>
<path class="st25" d="M1783.4,878.5l1.3,0.2c2.4,0.4,4.1,2.6,3.7,5l-3.6,23.4c-0.4,2.4-2.6,4.1-5,3.7l-1.3-0.2
	c-2.4-0.4-4.1-2.6-3.7-5l3.6-23.4C1778.7,879.8,1781,878.2,1783.4,878.5z"/>
<path class="st25" d="M1775.9,896.2L1775.9,896.2c-1.4-1.5-3.7-1.6-5.2-0.2l-20.6,19c-1.5,1.4-1.6,3.7-0.2,5.2l0,0
	c1.4,1.5,3.7,1.6,5.2,0.2l20.6-19C1777.2,900,1777.3,897.6,1775.9,896.2z"/>
<path class="st25" d="M1771.9,865.7c0,0-20.4,4.5-26.9,17.9c-2.2,4.6,11.9,28.8,17.4,27.1s23.3-20.3,23.3-20.3L1771.9,865.7z"/>
<path class="st25" d="M1757,875.7l-0.2-0.2c-1.3-1.4-3.6-1.5-5-0.2l0,0l-15.7,14.5c-1.4,1.3-1.5,3.6-0.2,5l0,0l0.2,0.2
	c1.3,1.4,3.6,1.5,5,0.2l0,0l15.7-14.5C1758.3,879.3,1758.3,877.1,1757,875.7L1757,875.7z"/>
<path class="st4" d="M1889.7,869.6l-14.2-0.6c0.2-11.8-1-23.6-3.5-35.1c-5-21.3-14.3-32.8-27.6-34.3c-11.3-1.2-19.5,2.7-25,11.9
	c-2.9,4.9-4.7,10.4-5.5,16l-14.1-1.5c0.1-0.8,2.3-21,16.8-32.7c8-6.4,17.9-9.1,29.4-7.8C1892.3,790.7,1889.8,866.4,1889.7,869.6z"/>
<path class="st2" d="M1798.9,824.7c-0.4,1.6,2.9,3.6,7.2,4.6s8.2,0.6,8.6-1s-2.9-3.6-7.2-4.6S1799.3,823.2,1798.9,824.7z"/>
<path class="st26" d="M1910.3,886.9l-8.5,33.5c-1.2,4.7-5.3,8-10.2,8.1l-201.4,5.3c-4.8,0.1-9-2.9-10.5-7.4l-14.2-43.4
	c-1.8-5.7,1.2-11.7,6.9-13.6c1-0.3,2-0.5,3-0.5l215.3-6.3c10.8-0.3,19.8,8.2,20.1,18.9C1910.9,883.4,1910.7,885.2,1910.3,886.9z"/>
<path class="st4" d="M1671.1,1281.8h229.5c11,0,19.9-8.7,20.3-19.6l10.4-313.1c0.4-11.2-8.4-20.6-19.6-21c-0.4,0-0.8,0-1.2,0
	l-246,6.4c-11.2,0.3-20,9.5-19.8,20.7l6.1,306.7C1651,1272.9,1660,1281.8,1671.1,1281.8z"/>
<path class="st3" d="M1888,1258.3h-197.8c-10-0.1-18.1-8-18.4-18l-5.3-264.3c-0.2-10.1,7.8-18.5,17.9-18.8l212.1-5.5
	c10.2-0.3,18.6,7.8,18.9,17.9c0,0.4,0,0.7,0,1.1l-8.9,269.9C1906.1,1250.5,1897.9,1258.3,1888,1258.3z M1897,953.4h-0.4l-212.1,5.5
	c-9.1,0.3-16.3,7.8-16.2,16.9l5.3,264.4c0.2,9,7.6,16.2,16.6,16.3H1888c9,0,16.3-7.1,16.6-16.1l9-269.9c0.3-9.2-6.9-16.9-16.1-17.2
	C1897.3,953.4,1897.2,953.4,1897,953.4z"/>
<rect x="1634.3" y="1105.1" transform="matrix(2.408341e-02 -0.9997 0.9997 2.408341e-02 635.56 2863.1077)" class="st3" width="299.9" height="1.8"/>
<path class="st17" d="M1959.5,963.1c0,0-32.8-150.5-32.9-166.5s-6-38.9,32.9-46.1s52-10.8,59.1,7.3s23.1,57.7,54.1,57.5
	s37.4,21,37.4,21l27.3,116.2L1959.5,963.1z"/>
<path class="st5" d="M2046.4,998l-9.8-23.4c-6.2-14.7-10.3-21.8-23.5-28.1l0.7-1.5c13.7,6.5,18.1,14.1,24.3,28.9l9.8,23.4
	L2046.4,998z"/>
<path class="st1" d="M1898.4,850.5l10.3,36.8c79.4-40.8,140.2-106.7,153.4-123.4c1.9-2.5,2.6-5.7,1.7-8.7c-2-6.9-5.5-13.2-10.3-18.5
	c-4.4-4.9-9.2-9.4-14.4-13.5c-2.5-1.9-6-1.5-7.9,0.9C2017,741.8,1967,815.2,1898.4,850.5z"/>
<path class="st2" d="M1886.4,902.9l-34.8-52.5c-7.9,0.2-15.2-4.3-18.5-11.4c-6.1-12.4,3.9-10,8.9-5.9s11.3,1.5,11.7-3.7
	s-3.7-14,3.2-14.2s14.2,14.8,6.6,27l33.9,51.2c0,0,28.8-4,29.2,21.5c0,0-5.5,7.7-9.2,0.9s-9.9-15-18.2-8.5s-8.3,9.1-5.5,14.2
	s10.1,9,5.6,12.4s-9.3,2.7-13.7-4.7S1880,907.8,1886.4,902.9z"/>
<path class="st1" d="M1895.4,879.6l0.6,0.8c1.2,1.7,0.8,4.1-0.9,5.4l-19.4,13.9c-1.7,1.2-4.1,0.8-5.4-0.9l-0.6-0.8
	c-1.2-1.7-0.8-4.1,0.9-5.4l0,0l19.4-13.9C1891.8,877.5,1894.2,877.9,1895.4,879.6z"/>
<path class="st1" d="M1888.9,870.6l0.6,0.9c1.2,1.7,0.8,4-0.9,5.3l-22.3,16c-1.7,1.2-4,0.8-5.3-0.9l-0.6-0.9c-1.2-1.7-0.8-4,0.9-5.3
	l22.3-16C1885.4,868.5,1887.7,868.9,1888.9,870.6z"/>
<path class="st1" d="M1904.9,856.4l-0.1,1c-0.2,3-2.7,5.3-5.7,5.2l-31.1-1.5c-3-0.2-5.3-2.7-5.2-5.7v-1c0.2-3,2.7-5.3,5.7-5.2
	l31.2,1.5C1902.7,850.8,1905,853.4,1904.9,856.4z"/>
<path class="st1" d="M1882.5,861.7l0.6,0.8c1.2,1.7,0.8,4.1-0.9,5.4l-19.7,14.1c-1.7,1.2-4.1,0.8-5.4-0.9l-0.6-0.8
	c-1.2-1.7-0.8-4.1,0.9-5.4l0,0l19.6-14.1C1878.9,859.6,1881.3,860,1882.5,861.7z"/>
<path class="st1" d="M1917.1,873.9c0,0-10,22.5-27,26.8c-5.9,1.5-30.5-20.5-27.3-26.5s29-22.2,29-22.2L1917.1,873.9z"/>
<path class="st1" d="M1901.7,888.3l0.9,1.2c1.2,1.6,0.8,3.8-0.8,5l0,0l-14.1,10.1c-1.6,1.2-3.8,0.8-5-0.8l0,0l-0.9-1.2
	c-1.2-1.6-0.8-3.8,0.8-5l0,0l14.1-10.1C1898.3,886.3,1900.5,886.7,1901.7,888.3L1901.7,888.3z"/>
<path class="st18" d="M1954.6,694.5c0,0-14.8,49.3-14.1,69.3l12.1-2.2c0,0,9-58.2,10.7-68.2C1963.2,693.4,1955.8,690.4,1954.6,694.5
	z"/>
<path class="st18" d="M1992.8,751.1c-0.2-1.3-6.6-42.7,2.3-66.4c0,0,3.9-4.1,8.4-2.2c0,0-10.2,48.8-1.1,68.6L1992.8,751.1
	L1992.8,751.1z"/>
<path class="st2" d="M1950.6,765.2c0,0,3.8-3.5,2.4-6.2s-3.7-3.4-5.9-2.5s-2.5,4.6-1.7,6.3S1949.2,766.7,1950.6,765.2z"/>
<path class="st2" d="M2001.5,753.3c0,0-1.8-3.8-4.5-4.5s-4.9,1.6-4.6,4.5s2,4.1,4.6,3.9S2002.1,755.6,2001.5,753.3z"/>
<path class="st6" d="M587.4,1267.8l6.3,55.3c0.6,5.5,5.2,9.7,10.7,9.7h169.5c5.7,0,10.5-4.6,10.8-10.3l3.4-57.4
	c0.4-6-4.1-11.2-10.1-11.6c-0.3,0-0.5,0-0.8,0l-179.2,2.1c-6,0.1-10.8,5.1-10.7,11.1C587.4,1267.1,587.4,1267.4,587.4,1267.8z"/>
<path class="st2" d="M652.2,1246.2l-9.2-2.6l4.8-17c2.3-8,9.6-13.5,17.9-13.6h45.5c9.4,0.1,17.2,7,18.5,16.3l2,15l-9.5,1.3l-2-15
	c-0.6-4.5-4.4-7.9-8.9-8h-45.5c-4,0-7.6,2.7-8.6,6.6L652.2,1246.2z"/>
<path class="st3" d="M574.9,1251.3v6.7c0,5.7,4.5,10.4,10.3,10.6l200.9,2.6c5.8,0,10.5-4.6,10.5-10.4v-0.1v-7.1
	c0-5.7-4.5-10.5-10.3-10.6l-200.9-2.2C579.6,1240.8,574.9,1245.5,574.9,1251.3C574.9,1251.2,574.9,1251.3,574.9,1251.3z"/>
<path class="st6" d="M1140.1,876l6.3,55.3c0.6,5.5,5.2,9.7,10.7,9.7h169.5c5.8,0,10.5-4.6,10.8-10.3l3.4-57.4
	c0.4-6-4.1-11.2-10.1-11.6c-0.3,0-0.5,0-0.8,0l-179.2,2.1c-6,0.1-10.8,5.1-10.7,11.1C1140.1,875.3,1140.1,875.6,1140.1,876z"/>
<path class="st2" d="M1205,854.4l-9.2-2.6l4.9-17c2.3-8,9.6-13.5,17.9-13.6h45.5c9.4,0.1,17.2,7,18.4,16.3l2,15l-9.5,1.3l-2-15
	c-0.6-4.5-4.4-7.9-8.9-8h-45.5c-4,0-7.6,2.7-8.6,6.6L1205,854.4z"/>
<path class="st3" d="M1127.7,859.5v6.7c0,5.7,4.5,10.4,10.3,10.6l200.9,2.6c5.8,0,10.5-4.6,10.5-10.4v-0.1v-7.1
	c0-5.7-4.5-10.5-10.3-10.6l-200.9-2.1C1132.4,849,1127.7,853.7,1127.7,859.5C1127.7,859.5,1127.6,859.5,1127.7,859.5z"/>
<path class="st1" d="M1471.4,960.3c-60.7,36.2-133.2,32.3-183.4,22.6l7.7-38.7c60.2,11.6,102.5,0.3,141.2-21.7
	C1451.6,914.2,1496.5,945.4,1471.4,960.3z"/>
<path class="st4" d="M1087.3,1292.1c28.2,14.9,210.5,5.6,278,1.6c14.2-0.9,25.2-12.8,25.2-27c0.2-63.4,0.4-228.2,0.5-295.5
	c0.1-16.2-12.7-29.6-28.9-30.1c-60.8-1.5-200.1-4.5-248.4-5.3c-9.5-0.1-17.3,7.5-17.4,17C1094.2,1023.9,1061.4,1278.3,1087.3,1292.1
	z"/>
<path class="st27" d="M1219.5,972.7c-1.3-5.7-6.8-10.5-12.5-10.5s-12,1.6-12,12.2c0,5.8,6.3,8.9,12,8.9S1221.4,980.6,1219.5,972.7z"
	/>
<path class="st27" d="M1259.4,972.7c-1.3-5.7-6.8-10.5-12.5-10.5s-12,1.6-12,12.2c0,5.8,6.3,8.9,12,8.9S1261.3,980.6,1259.4,972.7z"
	/>
<path class="st27" d="M1298.4,972.7c-1.3-5.7-6.8-10.5-12.5-10.5s-12,1.6-12,12.2c0,5.8,6.3,8.9,12,8.9S1300.3,980.6,1298.4,972.7z"
	/>
<path class="st27" d="M1334.3,972.7c-1.3-5.7-6.8-10.5-12.5-10.5s-12,1.6-12,12.2c0,5.8,6.3,8.9,12,8.9S1336.2,980.6,1334.3,972.7z"
	/>
<path class="st2" d="M1166.5,953.6l-41.2,1.6c-3.8,0.1-6.8,3.1-7,6.9L1117,984c-0.3,4,2.8,7.5,6.8,7.8c0.3,0,0.7,0,1,0l42.6-3.3
	c3.8-0.3,6.7-3.5,6.7-7.3V961c0.1-4-3.2-7.3-7.2-7.4C1166.7,953.6,1166.6,953.6,1166.5,953.6z"/>
<path class="st2" d="M1356.8,1133.5c0-62.8-50.5-120.4-112.1-113.8c-76.4,8.2-112.1,51-112.1,113.8s50.2,113.8,112.1,113.8
	S1356.8,1196.4,1356.8,1133.5z"/>
<path class="st27" d="M1244.7,1255.5c-66.3,0-120.2-36.1-120.2-122c0-67.2,24.8-127.6,120.2-122c81,4.8,117.9,54.7,120.2,122
	C1367.8,1222.4,1311,1255.5,1244.7,1255.5z M1244.7,1027.9c-67-5.7-99.2,57.9-99.2,116.1s42.4,103.3,99.2,95.1
	c67.4-9.7,96.3-53.8,96.3-112.1S1302.1,1027.9,1244.7,1027.9z"/>
<path class="st27" d="M1327.4,1098.2h21.4l0,0v74.9l0,0h-16.4c-11.2,0-20.2-9.1-20.2-20.2v-39.4
	C1312.1,1105,1318.9,1098.2,1327.4,1098.2L1327.4,1098.2z"/>
<path class="st2" d="M1406.9,1287.7c0,0-0.4,14.4-10,18.5s-37.4,7.7-27,17c6,5.3,34.1,1.9,42,1.9s15.4,3.5,21.3-1.9
	c6.5-5.9,0-35.4,0-35.4s-6.8,3.6-13,3.5C1411.4,1290.9,1406.9,1287.7,1406.9,1287.7z"/>
<path class="st2" d="M1718.8,1275.1c0,0,14.2,0.3,18.2,10.1s7.7,38,16.8,27.4c5.2-6.1,1.8-34.6,1.7-42.7s3.4-15.6-1.9-21.6
	c-5.9-6.6-34.9,0.1-34.9,0.1s3.6,6.9,3.4,13.2C1722,1270.6,1718.8,1275.1,1718.8,1275.1z"/>
<path class="st17" d="M1417.1,1300.5c-16.4,3.6-32.9-5.7-38.3-21.6c-3.6-10.6-8-23.3-12.6-36.8c-21.3-63.2-9.7-96.3,8.4-115.3
	c27.3-28.6,164-65.9,165.4-66.1l13,83.1l-6.5-41.6l6.5,41.6c0,20-123.3,26.9-115.6,64.4c1.7,8.1,3.3,17.8,6,29.4
	c1.8,8,3.8,15.6,5.6,22.5c4.5,16.6-5.4,33.7-22,38.2c-0.3,0.1-0.7,0.2-1,0.2L1417.1,1300.5z"/>
<path class="st17" d="M1516.1,1310.2c-26-32.4-22.6-149.6-9.9-222.2c8.3-47.4,109.8-49,108.6-11.7c-0.4,11.2-1.7,23.6-2.4,37.4
	c-3.5,65.2-25.7,116.3-19.6,123.3c8.8,10.1,84.1-1.3,116.8,2.6c9.4,1.2,16.9,8.5,18.2,17.9l2.7,17.6c1.6,10.2-6.5,16.5-16.1,20.2
	C1660.4,1316.2,1542.8,1343.4,1516.1,1310.2z"/>
<path class="st6" d="M1585.4,902.3c0,0-14.8-28.5-78.8-15.5c-19.2,3.9-27.8,14.7-37.3,21.5c-14.8,10.5-15.8,19-9.9,35.1
	c13.3,36.4,30.3,89.6-6.9,144.6c0,0,154.8,42.8,158.3-12.5C1610.8,1075.6,1633.1,980.4,1585.4,902.3z"/>
<path class="st6" d="M1617,927.6l-46.5-5.4c0,0-77.1,38.3-102,39.8s-45-37.7-45-37.7s22.8-24.5,73.6-35.4c7.4-1.6,14.8-3.3,22.3-4.3
	C1621,872.2,1617,927.6,1617,927.6z"/>
<path class="st1" d="M1513.8,877.1l-8-14.8l-2.3-4.3l-13.8-25.3l4.4,27.1l2.6,16.3l0.8,5.2c0.6,3.5,0,7-1.8,10
	c-0.8,1.4-4,9.4,4.1,11.2c10.1,2.2,23.7-9.2,28.6-18.8C1528.3,883.7,1517,884.1,1513.8,877.1z"/>
<path class="st2" d="M1617,927.6c-0.3,1.3-2,2.2-4.5,2.8c-6.2,1.3-18,0.3-31-2.8c-10-2.5-18.7-5.7-24.4-8.9
	c-4.8-2.7-7.4-5.3-6.8-7.3s4.4-3.2,10.3-3.3c6.5-0.1,15.5,1,25.2,3.4c13.3,3.3,24.3,8,29,12C1616.5,925,1617.3,926.4,1617,927.6z"/>
<path class="st19" d="M1466.4,827c0,5.1,1,10.1,3,14.8c3.3,7.8,7.5-14,7.5-14L1466.4,827z"/>
<ellipse transform="matrix(0.9977 -6.749422e-02 6.749422e-02 0.9977 -53.4584 102.688)" class="st1" cx="1493" cy="842.5" rx="24.2" ry="29.6"/>
<path class="st2" d="M1516,832.3l-11.7,1.2c-2.6,0.3-5.2-0.6-7-2.5c-3.1-3.2-6.3-4.6-16.9-1.9c-13.4,3.3-24-3-27-9.8
	s2.9-13.4,10.4-11.4s2.8-5.9,9.2-8.2c11.9-4.3,16.1,4.8,26,2.4c13-3.2,38.6,2,32.2,27.8L1516,832.3z"/>
<path class="st9" d="M1491.5,841.6c-0.1-0.1-0.3-0.2-0.3-0.3c-0.1-0.3,0.1-0.5,0.3-0.6l0,0c2.3-0.8,4.8,0,6.2,2
	c0.2,0.2,0.1,0.5-0.1,0.7c-0.2,0.1-0.5,0.1-0.7-0.1c-1.5-1.1-3.3-1.7-5.1-1.7C1491.7,841.6,1491.6,841.6,1491.5,841.6z"/>
<path class="st9" d="M1494.9,847.4c-0.1,1.2-0.8,2.1-1.7,2s-1.5-1.1-1.4-2.3s0.8-2.1,1.7-2S1494.9,846.2,1494.9,847.4z"/>
<path class="st9" d="M1473.5,843.9c-0.1,0-0.2-0.1-0.3-0.2c-0.1-0.2-0.1-0.5,0.1-0.7c1.1-1.5,3.3-1.8,4.8-0.7
	c0.1,0.1,0.2,0.1,0.2,0.2c0.2,0.2,0.3,0.4,0.2,0.7c-0.1,0.2-0.3,0.3-0.4,0.2c0,0,0,0-0.1,0c-1.4-0.5-2.9-0.3-4.2,0.4
	C1473.6,843.8,1473.5,843.9,1473.5,843.9z"/>
<path class="st9" d="M1478.8,847.9c0.5,0.9,0.1,2-0.8,2.5c-0.8,0.3-1.8-0.4-2.1-1.5c-0.5-0.9-0.1-2,0.8-2.5
	C1477.5,846.1,1478.5,846.8,1478.8,847.9z"/>
<path class="st19" d="M1531.3,829.9c0,0-4.4,19-15.3,22.6c0,0,6.4-15.1-14.4-19.2C1501.6,833.4,1518.6,826.9,1531.3,829.9z"/>
<path class="st1" d="M1517.5,842.8c-1.9,2-5,2.1-7,0.3c-1.8-2.1-1.6-5.3,0.5-7.1c1.9-2,5-2.1,7-0.3
	C1519.8,837.8,1519.5,841,1517.5,842.8z"/>
<path class="st19" d="M1501.6,833.4c0,0,4.5,14.2,2.1,17.6s-21.4,8.6-31.1,6.9l0,0c1.8,9.4,9.9,16.3,19.3,15.9
	c3.2-0.1,6.3-0.8,9.2-2l0,0c6.1-2.4,11.7-6.4,13-12.8c0.4-2-4.1-12.6-4.1-12.6s-2.2-6.3,0.8-10.5
	C1510.9,836,1505.8,832.9,1501.6,833.4z"/>
<path class="st8" d="M1478.5,862.2c5.3,0.2,10.6-0.5,15.7-2c0,0,0.4,7.8-8.1,8C1481.1,868.3,1478.5,862.2,1478.5,862.2z"/>
<path class="st2" d="M1464.9,806.5l-0.1-0.7c3.2-0.6,2.9-3.2,2.9-3.3l0.7-0.1C1468.5,804.5,1467,806.3,1464.9,806.5z"/>
<path class="st8" d="M1475.8,826.1c-2.7-0.3-5.4-0.8-8.1-1.6c-5.5-1.7-8.9-4.2-9.8-7.4c-0.6-2.2-0.6-3.8,0.3-4.9
	c1.3-1.7,4.1-1.6,6.6-1.5h1.1v0.3h-1.1c-2.4-0.1-5.1-0.1-6.3,1.4c-0.7,1-0.8,2.5-0.2,4.6c2.1,7.4,17.4,8.7,17.6,8.7L1475.8,826.1z"
	/>
<path class="st8" d="M1495.3,805.5c-2.2,0-4.4-0.3-6.5-0.9c-2.2-0.5-4.2-1.5-6-2.8l0.2-0.3c1.8,1.3,3.8,2.2,5.9,2.8
	c5.4,1.4,11.1,1.1,16.3-1l0.1,0.3C1502.1,804.8,1498.7,805.5,1495.3,805.5z"/>
<path class="st2" d="M1497.4,1171.3L1497.4,1171.3c-0.3,0-0.6-0.3-0.6-0.6l1-35c-1-7-7.9-11.1-7.9-11.2c-0.3-0.2-0.4-0.5-0.2-0.8
	l0,0c0.2-0.3,0.6-0.4,0.8-0.2c0.3,0.2,7.5,4.5,8.6,12.1v0.1l-1,35C1498,1171,1497.7,1171.3,1497.4,1171.3L1497.4,1171.3z"/>
<path class="st17" d="M1464.9,948.4c0,0,49.8-17.7,63.5-4.9s28.2,52.8,55.3,57.6s37.2,9.5,37.2,9.5s0.2,108.2-17,165.1l-109.4-60.5
	l-55.7-21.9c0,0,21.8-16.8,23.5-36S1446.4,953.8,1464.9,948.4z"/>
<path class="st1" d="M1406.1,1021.1c0,0-15.2-12.3-26.4-10.3s-24.1,13.1-16.9,13.4c7.2,0.3,16.5-2,16.5-2s-19.7,5.7-16.4,9.8
	s20.4-1,20.4-1s-22.9,8.7-18.5,11.5s21.7-3.9,21.7-3.9s-21,8.9-15.8,12.1s17.3-7.5,20.6-3.4s17.8,19.2,30.1,11.3L1406.1,1021.1z"/>
<path class="st11" d="M1379.5,1022.6l-0.3-0.8c0.2-0.1,5.6-2.5,8.8-0.6l-0.4,0.7C1384.6,1020.3,1379.5,1022.6,1379.5,1022.6z"/>
<path class="st11" d="M1383.5,1031.4l-0.4-0.8c0.2-0.1,5.4-2.6,10.4-0.7l-0.3,0.8C1388.5,1029,1383.5,1031.3,1383.5,1031.4z"/>
<path class="st11" d="M1386.6,1039l-0.3-0.8c0.3-0.1,6.6-3,9.8-0.6l-0.5,0.7C1392.8,1036.2,1386.7,1039,1386.6,1039z"/>
<path class="st1" d="M1614.8,923.4c-0.5,1.8-1.3,4.2-2.3,7c-4.4,12.2-14,32.9-33.7,54.5c-47.8,52.5-118.3,70.1-169,75.6l-3.7-39.3
	c60.9-6.6,98.2-29.9,128.9-62.3c11.6-12.2,18.6-29.4,22.2-40.2c2-6,2.9-10,2.9-10.1s0.2-0.2,0.6-0.6c6.5-0.1,15.5,1,25.2,3.4
	C1599.1,914.7,1610.1,919.4,1614.8,923.4z"/>
<g class="st12">
	<path class="st13" d="M1524.9,1013h-0.5c-1.7,0-3.2-0.8-4.3-2c-2.8-3.3-1.3-9.2,3.4-13.5c2.8-2.5,6.2-3.9,9.1-3.7
		c1.7,0.1,3.2,0.8,4.3,2c2.8,3.3,1.3,9.2-3.4,13.4C1531.1,1011.5,1528.1,1012.8,1524.9,1013z M1531.9,995.8
		c-2.7,0.2-5.2,1.3-7.1,3.2c-3.7,3.4-5.2,8.2-3.2,10.6c0.7,0.8,1.8,1.3,2.9,1.3c2.4,0.2,5.2-1,7.5-3.2c3.7-3.4,5.2-8.2,3.2-10.6
		c-0.7-0.8-1.8-1.3-2.9-1.3H1531.9z"/>
</g>
<path class="st18" d="M1483,892.5c0,0-18.3,32.7-16.6,62.8l11-0.6c0,0,3.2-45.2,15.1-64.8C1489.1,889,1485.5,890,1483,892.5z"/>
<path class="st18" d="M1516.5,943.5c-0.4-1.7,6.1-47.6,20-60.7c0,0,6.5-2.5,9.6,0c0,0-18.1,40.8-17.7,63.8L1516.5,943.5z"/>
<path class="st2" d="M1468.5,950.8c0-2.3,1.8-4.2,4.2-4.2l0,0c2.3,0,3.7,2,4.2,4.2c0.7,3.1-1.9,4.2-4.2,4.2
	S1468.5,953.1,1468.5,950.8L1468.5,950.8z"/>
<path class="st2" d="M1516.5,945.2c0-2.3,1.8-4.2,4.2-4.2c2.3,0,3.7,2,4.2,4.2c0.7,3.1-1.9,4.2-4.2,4.2
	C1518.3,949.4,1516.5,947.5,1516.5,945.2z"/>
</svg>
