<svg id="Layer_1" data-name="Layer 1" xmlns="http://www.w3.org/2000/svg" viewBox="0 0 226.77 226.77"><defs><style>.cls-1{fill:#79c1e1;}.cls-2{fill:#243965;}.cls-3{fill:#ad695d;}.cls-4{fill:#fff;}.cls-5{fill:#0e7f93;}.cls-6{fill:#0094b8;}.cls-7{fill:#d39d81;}.cls-8{fill:#f26a58;}.cls-9{fill:#c9453d;}.cls-10{fill:#f7ddbf;}</style></defs><title>carp</title><path class="cls-1" d="M183.53,469.33c.31,13.14,3.56,31.15,13.9,40.56,7.88,7.14,21.93,10.55,33,11s22.4-.65,33.52.16a215.75,215.75,0,0,1,45.55,7.3c16.37,4.55,34.29,7.47,50.66,2.6a50,50,0,0,0,25.64-17c3.55-4.54,6.17-9.73,9.88-14.12s8.49-8.11,11.74-13,4.17-11.36.31-15.74Z" transform="translate(-183.53 -306.74)"/><polygon class="cls-2" points="165.25 168.27 168.18 168.27 161.08 94.6 158.14 94.6 165.25 168.27"/><polygon class="cls-2" points="94.82 168.27 91.89 168.27 98.99 94.6 101.93 94.6 94.82 168.27"/><rect class="cls-3" x="93.9" y="94.76" width="71.2" height="12.82"/><rect class="cls-2" x="93.9" y="94.76" width="71.2" height="6.98"/><rect class="cls-3" x="84.01" y="91.68" width="92.51" height="4.38"/><polygon class="cls-3" points="171.12 180.44 174.51 180.44 166.33 94.6 162.78 94.6 171.12 180.44"/><polygon class="cls-3" points="88.96 180.44 85.56 180.44 93.74 94.6 97.3 94.6 88.96 180.44"/><rect class="cls-4" x="88.49" width="23.63" height="28.56"/><rect class="cls-4" x="118.92" y="21.26" width="23.63" height="28.56"/><path class="cls-2" d="M388.16,486a9,9,0,0,0-.31-4.54,15.21,15.21,0,0,1-.31-3.73h-7.72c.47,1.13-.62,2.43-1.85,3.08a11.44,11.44,0,0,1-4,1.13,6.74,6.74,0,0,0-3.7,1.79,1.79,1.79,0,0,0-.47,1.14,2.77,2.77,0,0,0,.16,1.13Z" transform="translate(-183.53 -306.74)"/><path class="cls-5" d="M371.17,399.71A41.15,41.15,0,0,0,384.3,395c3.4,7.79,4.17,16.55,3.86,25s-1.54,17-1.7,25.47a193.27,193.27,0,0,0,2.17,32.62,21.93,21.93,0,0,1-9.73.16C374.11,452.29,369.32,426,371.17,399.71Z" transform="translate(-183.53 -306.74)"/><path class="cls-2" d="M379.05,491.56a9.18,9.18,0,0,0-.31-4.55,15.13,15.13,0,0,1-.31-3.73h-7.87c.46,1.14-.62,2.44-1.7,3.09a16.73,16.73,0,0,1-4,1.13,6.61,6.61,0,0,0-3.7,1.79,1.79,1.79,0,0,0-.47,1.13,2.82,2.82,0,0,0,.16,1.14Z" transform="translate(-183.53 -306.74)"/><path class="cls-6" d="M382.45,395.82c2.93,9.25,1.7,19.15.62,28.88-2.32,20.29-2.63,40.57-3.4,61-2.32-.17-7.26-.49-9.58-.65a656.26,656.26,0,0,1-6-85.36,31.76,31.76,0,0,0,15.13-.81Z" transform="translate(-183.53 -306.74)"/><path class="cls-7" d="M362.06,361.09a4.35,4.35,0,0,0-4.63-.32,11,11,0,0,0-4.32,4.22,43.9,43.9,0,0,0-2.78,5.52c-2.32,4.54-3.4,4.22-6.95,7.79a49.25,49.25,0,0,1-16.53-10.71c-.15-1.14-1.08-1.95-1.23-3.09v-.65c0-.16-.31-.32-.47-.32-.31.16-.31.49-.46.81a1.54,1.54,0,0,1-1.55,1,2.87,2.87,0,0,1-1.85-.65,5.82,5.82,0,0,0-1.7-.81,1.28,1.28,0,0,0-1.08.17,1.48,1.48,0,0,0-.46,1.13,6.52,6.52,0,0,0,.31,4.55,5.48,5.48,0,0,0,3.55,2.1,5.78,5.78,0,0,0,1.7.17c4.17,7.62,11.58,13.3,18.53,18.66a2.92,2.92,0,0,0,3.86,0,70.33,70.33,0,0,0,10.81-10.87c4.48-5.36,6-7.14,6.49-14.12A5.18,5.18,0,0,0,362.06,361.09Z" transform="translate(-183.53 -306.74)"/><path class="cls-2" d="M357.74,377.48a86.28,86.28,0,0,1-8.5,6.66,14.1,14.1,0,0,1-7.1,3.08,11.34,11.34,0,0,1-7.57-3.08,8.84,8.84,0,0,1-2.47-2.92,3.52,3.52,0,0,1,.93-4.71,3,3,0,0,1,1.7-.49,8.93,8.93,0,0,1,2.93.33c2.16.65,4,1.46,6.18,1.95a9.47,9.47,0,0,0,6.33-.33,33.85,33.85,0,0,0,4.48-2.92,4.52,4.52,0,0,1,4.94-.32Z" transform="translate(-183.53 -306.74)"/><polygon class="cls-2" points="125.49 45.98 128.02 42.5 131.58 45.35 129.05 48.83 125.49 45.98"/><polygon class="cls-2" points="126.33 42.03 124.94 41.7 124.01 43 124.63 44.3 125.56 45.11 127.26 42.84 126.33 42.03"/><polygon class="cls-2" points="124.4 43.37 125.24 42.21 132.98 48.4 132.14 49.56 124.4 43.37"/><polygon class="cls-2" points="120.83 39.97 121.39 39.2 126.06 42.94 125.5 43.71 120.83 39.97"/><path class="cls-8" d="M314.5,359.15a18.82,18.82,0,0,0,3.24,2.76,3.25,3.25,0,0,1,1.7,2.11,4.78,4.78,0,0,1-.62,1.94L317,369.05a2.33,2.33,0,0,0-.16,3.08,2.43,2.43,0,0,0,.62.49,3.21,3.21,0,0,0,1.54,1,1.69,1.69,0,0,0,1.7-.49,3.35,3.35,0,0,0,1.08-1.46c.93-1.62,1.09-3.73,2-5.35.47-.81,1.24-1.63,1.7-2.44a4.53,4.53,0,0,0,.93-2.76,3.8,3.8,0,0,0-.93-1.94,15,15,0,0,0-1.7-1.46l-5.71-4.22a3.16,3.16,0,0,0-2-.81,2.73,2.73,0,0,0-1.08.81,3.48,3.48,0,0,0-.93,4.7.81.81,0,0,0,.47,1Z" transform="translate(-183.53 -306.74)"/><path class="cls-7" d="M325.92,366.29c-.46-.81-.15-2-.77-2.76a2.42,2.42,0,0,0-1.08-.65l-2.62-1h-.31a.33.33,0,0,0-.31.32v.49a3.29,3.29,0,0,0,.62,1,1.63,1.63,0,0,1,.77.65,1.39,1.39,0,0,1,.15,1.14c0,.32-.15.81-.15,1.13a4.77,4.77,0,0,0,.62,2.11,4,4,0,0,0,1.08,1.3,1.63,1.63,0,0,0,1.7,0,2,2,0,0,0,.77-1.62Z" transform="translate(-183.53 -306.74)"/><path class="cls-7" d="M318.51,364c-.31,0-.62,0-.77.32a.5.5,0,0,0,0,.65l.46.49a3.68,3.68,0,0,0,.77.48,1.81,1.81,0,0,0,.93.17.51.51,0,0,0,.31-.17c.15-.16,0-.48-.15-.65C319.59,364.5,319.28,364,318.51,364Z" transform="translate(-183.53 -306.74)"/><path class="cls-7" d="M317.74,365.31a.61.61,0,0,0-.62.33c-.15.16,0,.49,0,.65l.46.48.47.49c.15.16.46.49.77.33.15-.17.31-.33.31-.49s-.16-.49-.16-.65A4.19,4.19,0,0,0,317.74,365.31Z" transform="translate(-183.53 -306.74)"/><path class="cls-7" d="M318.2,368.88c.31,0,.47-.32.62-.48a1.54,1.54,0,0,0-.15-.81c-.16-.17-.31-.49-.62-.49a.92.92,0,0,0-.62-.16c-.15,0-.31.16-.46.48a.74.74,0,0,0,0,.81,2.13,2.13,0,0,0,.46.65Z" transform="translate(-183.53 -306.74)"/><path class="cls-7" d="M318.82,369.37a1.33,1.33,0,0,0-1.08-1h-.31a.61.61,0,0,0-.15.48c0,.17.15.33.3.49s.47.33.62.49a.52.52,0,0,1,.31.16c.16,0,.31,0,.31-.16Z" transform="translate(-183.53 -306.74)"/><path class="cls-7" d="M361,361.91c-5.71-2.28-8.49-2.92-12-8.44a23.22,23.22,0,0,1-5.87,4.54,48.41,48.41,0,0,1,6.33,13.47,39.13,39.13,0,0,0,10.81-8.28Z" transform="translate(-183.53 -306.74)"/><path class="cls-7" d="M346.93,358.34a10.46,10.46,0,0,0,2.47-7.95,9,9,0,0,0-4.63-6.66,7.65,7.65,0,0,0-7.88.49,6.88,6.88,0,0,0-2.93,7.14,17.76,17.76,0,0,0,3.08,9.25,4.22,4.22,0,0,0,2.78,2.11,5.09,5.09,0,0,0,2.63-.81A16.64,16.64,0,0,0,346.93,358.34Z" transform="translate(-183.53 -306.74)"/><path class="cls-2" d="M328.7,343.25c.78.48,1.7,0,2.48-.49a20.46,20.46,0,0,1,6.94-2.27,8.47,8.47,0,0,1,4.48.32,6,6,0,0,0,1.55.65,3.26,3.26,0,0,0,1.23.16,5.21,5.21,0,0,1,3.56,2.76,10.17,10.17,0,0,1,1.23,4.71c0,1.62-.15,3.24-.31,4.87-.92-.17-2,0-2.78-.17a2.17,2.17,0,0,1-1.85-2.43v-.16a5.7,5.7,0,0,0-.16-2.28c-.3-1-1.54-1.13-2.47-1s-.31,3.73-1.23,4.22c-.77-.65-1.7-3.73-2.47-4.38a8.53,8.53,0,0,1-5.25.65,7.78,7.78,0,0,1-4.64-2.76h1.86A2.41,2.41,0,0,1,328.7,343.25Z" transform="translate(-183.53 -306.74)"/><path class="cls-4" d="M333.18,350.22a2.72,2.72,0,0,0-.46,2.11c.15.65.31,1.46.46,2.11a.89.89,0,0,0,.47.81,2,2,0,0,0,.92.33,3.78,3.78,0,0,0,2.63-1.79,8.06,8.06,0,0,1,2.31-2.27,2.4,2.4,0,0,0,1.09-.65.83.83,0,0,0,.15-1.13,41.36,41.36,0,0,0-6.49,0C334.11,349.9,333.65,349.9,333.18,350.22Z" transform="translate(-183.53 -306.74)"/><path class="cls-2" d="M332.87,350.71a47.51,47.51,0,0,1,8.34-.32v-.49a28.44,28.44,0,0,0-8.34.16Z" transform="translate(-183.53 -306.74)"/><path class="cls-9" d="M353.41,356.06a1.67,1.67,0,0,1,.78.65l3.55,3.57a23.28,23.28,0,0,0-11.12,6.17,11.79,11.79,0,0,1,5.25-9.9A1.51,1.51,0,0,1,353.41,356.06Z" transform="translate(-183.53 -306.74)"/><path class="cls-8" d="M349.55,362.56a8.27,8.27,0,0,1,4.79-3.9,9.26,9.26,0,0,1,6.49,1.46,45.58,45.58,0,0,1,16.37,14.77,75.38,75.38,0,0,1,9.57,20.28,31.45,31.45,0,0,1-22.85,9.41,33.93,33.93,0,0,0-6.8-18.33c-3.09-3.9-7.1-7.14-8.8-11.85A15,15,0,0,1,349.55,362.56Z" transform="translate(-183.53 -306.74)"/><path class="cls-9" d="M361.91,385.11a40,40,0,0,0-5.72-3.24,6.73,6.73,0,0,1-3.86-8.6,8.11,8.11,0,0,1,2-3.09,36.71,36.71,0,0,0,4.48-5.35c6.33,5.68,10,14.11,12.05,22.71.61,2.44.92,5-.16,7.31C366.85,392.74,365.31,387.87,361.91,385.11Z" transform="translate(-183.53 -306.74)"/><path class="cls-6" d="M359,386.25a7.15,7.15,0,0,1-1.54.81,36.26,36.26,0,0,1,6.18,17.69,32.75,32.75,0,0,0,23.16-9.58,34.32,34.32,0,0,0-1.23-3.57,56.82,56.82,0,0,1-9.42,5.68,7.4,7.4,0,0,1-10.2-3.73,30.83,30.83,0,0,0-4.63-7.14A2,2,0,0,0,359,386.25Z" transform="translate(-183.53 -306.74)"/><path class="cls-6" d="M370.56,370.83c-3.25-4.7-6.95-10.38-12.2-12a98.48,98.48,0,0,1,13.9,17.2A52.92,52.92,0,0,1,379.67,397l2.31-1.14C380.75,386.41,375.65,378.3,370.56,370.83Z" transform="translate(-183.53 -306.74)"/><path class="cls-7" d="M347.24,381.54c-2.32-2.92-4.64-5.68-6.95-8.92-8,8.92-17.76,16.06-28.73,19.63a8.4,8.4,0,0,0-4.79-1.46,7.11,7.11,0,0,0-4.63,3.08,16.29,16.29,0,0,1-4,4.06,3.45,3.45,0,0,0,3.86-1,5.91,5.91,0,0,1,3.86-1.63,10.13,10.13,0,0,1,3.4,1.79,5,5,0,0,0,4.32.16,6.26,6.26,0,0,0,1.7-1.14A89.73,89.73,0,0,0,347.24,381.54Z" transform="translate(-183.53 -306.74)"/><path class="cls-8" d="M359.59,365a6.22,6.22,0,0,0-5.71-5.36,6,6,0,0,0-4.48,1.95,23.44,23.44,0,0,0-3.09,3.73c-2,2.6-4,5-6.18,7.47,2.32,3.24,4.79,6.16,7.11,9.09l4.17-2.93a30.42,30.42,0,0,0,6.17-5.67A11.35,11.35,0,0,0,359.59,365Z" transform="translate(-183.53 -306.74)"/><path class="cls-2" d="M259.21,512.82c-.47-1.3.15-3.41.31-4.87a11.21,11.21,0,0,0,.31-3.9h8.33c-.46,1.3.62,2.6,1.86,3.25a19.47,19.47,0,0,0,4.32,1.3,7.12,7.12,0,0,1,3.86,1.78,3.28,3.28,0,0,1,.62,1.3,3,3,0,0,1-.15,1.14Z" transform="translate(-183.53 -306.74)"/><path class="cls-5" d="M266,446.45c0-16.72.78-31.16-1.85-47.55L244.23,401c-1.08,13.15,2.47,26.94,4.48,40.08,3.39,21.75,4.78,40.73,9.11,63.94,3.55.16,9,.48,12.51.65C266.47,487.83,266,464.78,266,446.45Z" transform="translate(-183.53 -306.74)"/><path class="cls-2" d="M234.19,515.25a30,30,0,0,0,3.86-.16,2.53,2.53,0,0,0,2-.81,4.3,4.3,0,0,0,.31-1.95,26.6,26.6,0,0,0-.78-8.6,12.23,12.23,0,0,1-5.4-.81,3.23,3.23,0,0,1-.31,2.92c-.46.81-1.24,1.62-1.7,2.43A8,8,0,0,0,231.1,512a2.77,2.77,0,0,0,.77,2.44A2.48,2.48,0,0,0,234.19,515.25Z" transform="translate(-183.53 -306.74)"/><path class="cls-6" d="M231.56,401A405.9,405.9,0,0,0,233,507l10-1c.16-21.91,2.94-43.65,5.56-65.39,1.7-13.15,3.4-26.45,4.94-39.6Z" transform="translate(-183.53 -306.74)"/><path class="cls-8" d="M273.42,359.63a90.66,90.66,0,0,1-8-11.19c-.93-1.46-1.55-3.25-2.94-3.9-1.85-.81-3.86.49-4.94,2.28a10.64,10.64,0,0,0-.31,8.43,21.79,21.79,0,0,0,4.32,7,70.73,70.73,0,0,0,6.64,7A17.55,17.55,0,0,1,273.42,359.63Z" transform="translate(-183.53 -306.74)"/><path class="cls-7" d="M301.21,387.38a22.41,22.41,0,0,0,4.79-.81c-.92-1-1.54-2.27-2.47-3.41a4.89,4.89,0,0,0-3.4-2.11,10.43,10.43,0,0,0-3.09.49h-.61a150.51,150.51,0,0,1-22.86-22.07,19.66,19.66,0,0,0-5.41,9.41c6.95,6.49,14.37,13.15,22.86,17.37a2.51,2.51,0,0,0,.93,1.29,1.79,1.79,0,0,0,.92.17H297c1.24,0,2.48-.17,3.71-.17A.56.56,0,0,1,301.21,387.38Z" transform="translate(-183.53 -306.74)"/><path class="cls-8" d="M263.22,344.38a8.13,8.13,0,0,1,1.86,4.06c1.7,8.6-.62,17.36-1.39,26.12a123.11,123.11,0,0,0,1.7,30.19,195.34,195.34,0,0,1-35.06.81c1.39-9.25-.47-20.29-2-29.37s-2.47-19,.62-27.59a9.53,9.53,0,0,1,2.16-3.89,6.44,6.44,0,0,1,4.17-2.28,70,70,0,0,1,23.94.33A8.18,8.18,0,0,1,263.22,344.38Z" transform="translate(-183.53 -306.74)"/><path class="cls-9" d="M231.1,404.1H239c-2.17-19.31.77-39.92-9.58-54.85-3.4,8.6-2.32,18.34-.62,27.58C230.33,385.11,232,395.33,231.1,404.1Z" transform="translate(-183.53 -306.74)"/><path class="cls-9" d="M245,342.11a6.48,6.48,0,0,0-3.4,1.46,5,5,0,0,0-1.85,4.06,6.23,6.23,0,0,0,1.54,3.57,11.2,11.2,0,0,0,7,4.38,9.47,9.47,0,0,0,7.42-2.11,10.8,10.8,0,0,0,2.62-4.71,3.59,3.59,0,0,0-.46-3.89,5.72,5.72,0,0,0-2.32-1.46,22.83,22.83,0,0,0-12.35-.65Z" transform="translate(-183.53 -306.74)"/><path class="cls-7" d="M216.89,388.68h0a120.13,120.13,0,0,1,13.13-23,22,22,0,0,0-9.73-8.44,51.36,51.36,0,0,0-3.4,6.49,106.11,106.11,0,0,0-7.41,23.85,2.7,2.7,0,0,0-2.16.65,8.66,8.66,0,0,0-1.86,2.76,13.55,13.55,0,0,1-1.7,2.92c-.61.65-1.39,1.14-1.54,1.95-.31,1.14.62,2.11,1.39,2.92a2.62,2.62,0,0,0,1.85,1c.47,0,.93-.32,1.39,0s.31.49.47.65c.46.49,1.39.33,2,0a3.05,3.05,0,0,1,2-.65c.31.17.62.17.93.33a1.07,1.07,0,0,0,.93-.65c.15-.32.3-.81.46-1.14a5.82,5.82,0,0,1,1.7-2.59c.77-.65.62-.49.92-1.46a25.63,25.63,0,0,0,.16-4.87,2.27,2.27,0,0,1,.46-.65Z" transform="translate(-183.53 -306.74)"/><path class="cls-8" d="M237.59,355.58a10.89,10.89,0,0,0,1.23-7.3,5.57,5.57,0,0,0-4.32-4.87,5.83,5.83,0,0,0-4.17,1.78,44.53,44.53,0,0,0-11.58,13.31,23.26,23.26,0,0,1,10.34,8.92c1.39-2.11,2.94-4.05,4.48-6A43.32,43.32,0,0,0,237.59,355.58Z" transform="translate(-183.53 -306.74)"/><path class="cls-7" d="M244.07,343.08a2.79,2.79,0,0,0-1.85,1.46,6.1,6.1,0,0,0-.15,4.38,6.28,6.28,0,0,0,2.62,3.41,8.68,8.68,0,0,0,3.4,1.3A7.4,7.4,0,0,0,253,353a5.85,5.85,0,0,0,3.24-4.38,6.25,6.25,0,0,0-.61-4.71,3.76,3.76,0,0,0-1.86-1.13A16.62,16.62,0,0,0,244.07,343.08Z" transform="translate(-183.53 -306.74)"/><path class="cls-7" d="M246.23,328.8a2.12,2.12,0,0,0-1.23,1.95,55,55,0,0,1-2.47,15.09,19.24,19.24,0,0,0,12,1c-.15-4.22-.3-8.6-.61-12.82-1.86-.17-4.79-5.2-6.64-5.36A3,3,0,0,0,246.23,328.8Z" transform="translate(-183.53 -306.74)"/><path class="cls-2" d="M247.47,328.64h-.31c-4.63,6.65.62,13.31,7.41,14.28l-.3-8.92C252.1,333.83,249.32,329,247.47,328.64Z" transform="translate(-183.53 -306.74)"/><path class="cls-7" d="M248.86,315.34a27.91,27.91,0,0,1,9.73.16c1.54.48,1.7,5.19,2.32,6.65.31.81-.78,2.11-.78,2.92,0,2.44.62,1.95.16,4.38-.77,4.06-1.39,6.49-4.48,9.25-1.54,1.46-5.1.65-6.64-.81a17.17,17.17,0,0,1-4-4.22,23.86,23.86,0,0,1-2.31-9.25,9.79,9.79,0,0,1,1.23-6.33A8.11,8.11,0,0,1,248.86,315.34Z" transform="translate(-183.53 -306.74)"/><path class="cls-2" d="M264.3,314.36c-.46.65-.92,1.46-1.39,2.11a3.4,3.4,0,0,0,2.48-.32,6.49,6.49,0,0,1-4.48,4.54,12,12,0,0,1-6.34.16,8.24,8.24,0,0,0-2.78-.32c-1.69.32-2.78,2.11-3.55,3.73-.46-.81-1.23-1.62-2.16-1.46a1.69,1.69,0,0,0-1.39,1.46A3.43,3.43,0,0,0,245,327c.46.81,1.39,1.62,1.24,2.6,0,1.29-1.7,2.1-1.55,3.4-2.32-3.24-2.78-7.62-3.09-11.84a2.91,2.91,0,0,1,.47-2.27c.46-.49,1.23-.65,1.69-1.14s.47-1.46.62-2.27a3.12,3.12,0,0,1,2.16-2.27,9.46,9.46,0,0,1,3.09-.65,15.84,15.84,0,0,1,6.8.32c1.39.33,2.47,1.14,3.86,1.46A4.91,4.91,0,0,0,264.3,314.36Z" transform="translate(-183.53 -306.74)"/><rect class="cls-10" x="27.18" y="77.24" width="102.39" height="6.33"/><rect class="cls-2" x="39.23" y="77.24" width="1.54" height="3.41"/><rect class="cls-2" x="42.62" y="77.24" width="1.54" height="3.41"/><rect class="cls-2" x="46.02" y="77.24" width="1.54" height="3.41"/><rect class="cls-2" x="49.57" y="77.24" width="1.54" height="3.41"/><rect class="cls-2" x="52.97" y="77.24" width="1.54" height="3.41"/><rect class="cls-2" x="56.37" y="77.24" width="1.54" height="3.41"/><rect class="cls-2" x="59.77" y="77.24" width="1.54" height="3.41"/><rect class="cls-2" x="63.16" y="77.24" width="1.54" height="3.41"/><rect class="cls-2" x="66.56" y="77.24" width="1.54" height="3.41"/><rect class="cls-2" x="70.11" y="77.24" width="1.54" height="3.41"/><rect class="cls-2" x="73.51" y="77.24" width="1.54" height="3.41"/><rect class="cls-2" x="76.91" y="77.24" width="1.54" height="3.41"/><rect class="cls-2" x="80.31" y="77.24" width="1.54" height="3.41"/><rect class="cls-2" x="83.7" y="77.24" width="1.54" height="3.41"/><rect class="cls-2" x="87.26" y="77.24" width="1.54" height="3.41"/><rect class="cls-2" x="90.65" y="77.24" width="1.54" height="3.41"/><rect class="cls-2" x="94.05" y="77.24" width="1.54" height="3.41"/><rect class="cls-2" x="97.45" y="77.24" width="1.54" height="3.41"/><rect class="cls-2" x="100.85" y="77.24" width="1.54" height="3.41"/><rect class="cls-2" x="104.24" y="77.24" width="1.54" height="3.41"/><rect class="cls-2" x="107.64" y="77.24" width="1.54" height="3.41"/><rect class="cls-2" x="111.19" y="77.24" width="1.54" height="3.41"/><rect class="cls-2" x="114.59" y="77.24" width="1.54" height="3.41"/><rect class="cls-2" x="117.99" y="77.24" width="1.54" height="3.41"/><path class="cls-2" d="M203.3,396.79a5.43,5.43,0,0,0,2.63,1.14,7.28,7.28,0,0,0,6.95-1.3,10.43,10.43,0,0,0,2.62-6.16,6.11,6.11,0,0,0-.15-4.39,4.55,4.55,0,0,0-3.86-2.27,8.89,8.89,0,0,0-6.8,2.44,9.68,9.68,0,0,0-2.78,7A4.88,4.88,0,0,0,203.3,396.79Z" transform="translate(-183.53 -306.74)"/><ellipse class="cls-8" cx="25.17" cy="84.38" rx="4.32" ry="4.54"/><path class="cls-7" d="M295.65,383.16c0-.32-.46-.65-.77-.81a5.66,5.66,0,0,0-2.31.16.8.8,0,0,0-.62.33,1,1,0,0,0,0,1l.46,1.46c.16.33.31.81.46,1.14a1.4,1.4,0,0,0,1.09.49,1.3,1.3,0,0,0,.77-1.3,4.71,4.71,0,0,1,.31-1.46C295.19,383.81,295.65,383.49,295.65,383.16Z" transform="translate(-183.53 -306.74)"/><path class="cls-7" d="M301.37,381.7a1.82,1.82,0,0,1,1.54.49,3.73,3.73,0,0,1,.93,1.46l.62,1.3a.62.62,0,0,1,.15.49c0,.16-.31.32-.62.48a1.62,1.62,0,0,1-1.23,0A13.35,13.35,0,0,1,301.37,381.7Z" transform="translate(-183.53 -306.74)"/><path class="cls-7" d="M307.24,385.27c.15.17.15.17.15.33a.33.33,0,0,1-.31.32h-1.39c-.92-.16-.77-.48-1.54-1.13a3.51,3.51,0,0,1-1.39-2.44,1.46,1.46,0,0,1,1.39-.16,1.65,1.65,0,0,1,.93.81Z" transform="translate(-183.53 -306.74)"/><path class="cls-7" d="M300.29,380.89c-.47-.16-.93.16-1.24.81a2,2,0,0,0,.16,1.63c.15.48.46,1,.61,1.46.16.32.16.81.31,1.13s.47.65.78.65a1,1,0,0,0,.92-.65,3.2,3.2,0,0,0,.16-1.3,21.42,21.42,0,0,0-.78-2.92A1.59,1.59,0,0,0,300.29,380.89Z" transform="translate(-183.53 -306.74)"/><path class="cls-7" d="M299.21,385.44a10.34,10.34,0,0,0,.31-2.11,2.49,2.49,0,0,0-.31-1.46,1.39,1.39,0,0,0-1.24-.65,1.83,1.83,0,0,0-.77.81,2.77,2.77,0,0,0-.16,1.13,6.61,6.61,0,0,0,.31,2.44,1.32,1.32,0,0,0,.78.81c.3,0,.61,0,.77-.33A.86.86,0,0,0,299.21,385.44Z" transform="translate(-183.53 -306.74)"/><polygon class="cls-2" points="35.98 103.85 29.65 198.29 32.28 198.29 44.48 103.85 35.98 103.85"/><polygon class="cls-2" points="113.67 103.85 120.15 198.29 117.53 198.29 105.17 103.85 113.67 103.85"/><path class="cls-3" d="M223.22,411.72a157.63,157.63,0,0,1-4.63,20.61,36.8,36.8,0,0,1,10,2.6c1.7-3.41,6.18-4.87,10.19-4.38s7.57,2.11,11.28,3.4a32.05,32.05,0,0,0,6.48,1.63h0a2.54,2.54,0,0,1,1.08.16h1.39a2.52,2.52,0,0,0,1.08-.16h0a32,32,0,0,0,6.49-1.63c3.71-1.46,7.41-3.08,11.27-3.4s8.5,1,10.2,4.38a35.37,35.37,0,0,1,10-2.6,157.66,157.66,0,0,1-4.64-20.61Z" transform="translate(-183.53 -306.74)"/><path class="cls-2" d="M291.64,427.62H297c-.92-3.73-1.85-7.62-2.47-11.35a43.69,43.69,0,0,1-.77-4.71H223.22c-.3,1.62-.61,3.08-.77,4.71-.77,3.73-1.54,7.62-2.47,11.35h5.25c1.08-3.73,1.85-7.46,2.63-11.19H289C289.79,420.32,290.56,424.05,291.64,427.62Z" transform="translate(-183.53 -306.74)"/><rect class="cls-3" x="23.47" y="100.28" width="104.86" height="6"/><rect class="cls-4" x="23.47" y="98.33" width="104.86" height="2.11"/><polygon class="cls-3" points="32.28 103.85 25.17 207.54 28.11 207.54 41.54 103.85 32.28 103.85"/><polygon class="cls-3" points="117.53 103.85 124.48 207.54 121.7 207.54 108.11 103.85 117.53 103.85"/></svg>