<svg id="Layer_1" data-name="Layer 1" xmlns="http://www.w3.org/2000/svg" viewBox="0 0 226.77 226.77"><defs><style>.cls-1{fill:#79c1e1;}.cls-2{fill:#fff;}.cls-3{fill:#243965;}.cls-4{fill:#ebe1dc;}.cls-5{fill:#f26a58;}.cls-6{fill:#0e7f93;}.cls-7{fill:#d39d81;}.cls-8{fill:#0094b8;}.cls-9{fill:#c9453d;}</style></defs><title>clim</title><path class="cls-1" d="M183.52,474.09c.31,12.2,3.55,28.93,13.9,37.67,7.88,6.63,21.93,9.79,33.06,10.25s22.39-.61,33.52.15a230.53,230.53,0,0,1,45.57,6.78c16.37,4.22,34.29,6.93,50.66,2.41a50.48,50.48,0,0,0,25.65-15.82c3.55-4.22,6.17-9,9.88-13.11s8.65-7.54,11.74-12.06,4.17-10.55.31-14.61l-224.29-1.66" transform="translate(-183.52 -306.91)"/><path class="cls-2" d="M296.44,450.73h77.7a6.61,6.61,0,0,1,6.64,6.48v22a6.61,6.61,0,0,1-6.64,6.48h-77.7a6.61,6.61,0,0,1-6.65-6.48v-22A6.72,6.72,0,0,1,296.44,450.73Z" transform="translate(-183.52 -306.91)"/><rect class="cls-3" x="109.68" y="165.82" width="70.44" height="10.7"/><polygon class="cls-2" points="178.57 170.04 110.6 170.04 111.37 167.47 179.19 167.47 178.57 170.04"/><polygon class="cls-4" points="178.57 173.65 110.6 173.65 111.37 171.09 179.19 171.09 178.57 173.65"/><path class="cls-4" d="M379.7,480.27a3.46,3.46,0,0,1-3.56,3.46h0a3.46,3.46,0,0,1-3.55-3.46V456.46a3.46,3.46,0,0,1,3.55-3.47h0a3.46,3.46,0,0,1,3.56,3.47Z" transform="translate(-183.52 -306.91)"/><path class="cls-4" d="M369.35,458.57a1.21,1.21,0,0,1-1.24,1.2,1.21,1.21,0,1,1,0-2.41h0C368.73,457.51,369.35,458,369.35,458.57Z" transform="translate(-183.52 -306.91)"/><path class="cls-4" d="M369.35,463.69a1.24,1.24,0,1,1-1.24-1.21c.62.16,1.24.61,1.24,1.21Z" transform="translate(-183.52 -306.91)"/><path class="cls-5" d="M357.92,365h0a2,2,0,0,1-2-2h0V355.2h4V363a2,2,0,0,1-2,2Z" transform="translate(-183.52 -306.91)"/><ellipse class="cls-3" cx="174.4" cy="55.82" rx="0.77" ry="0.75"/><path class="cls-5" d="M280.06,365h0a2,2,0,0,1-2-2V355.2h4V363a1.92,1.92,0,0,1-2,2Z" transform="translate(-183.52 -306.91)"/><ellipse class="cls-3" cx="96.7" cy="55.82" rx="0.77" ry="0.75"/><rect class="cls-5" x="89.28" y="45.57" width="93.61" height="3.47"/><path class="cls-3" d="M352.66,515.07a11,11,0,0,0-.31-4.52,9.76,9.76,0,0,1-.15-3.61h-6.8a3,3,0,0,1-1.54,3,14.17,14.17,0,0,1-3.55,1.21,5.62,5.62,0,0,0-3.25,1.65,1.71,1.71,0,0,0-.46,1.21,2.55,2.55,0,0,0,.15,1.05Z" transform="translate(-183.52 -306.91)"/><path class="cls-6" d="M352.82,507.54a74.59,74.59,0,0,1-8.19,0c-4.32-13-11.12-25.32-15.14-38.27A104.37,104.37,0,0,1,325.63,429l17.3-1.81c1.86,11.31-.77,23.51.16,35C344.17,477.55,352.2,492,352.82,507.54Z" transform="translate(-183.52 -306.91)"/><path class="cls-7" d="M342.93,387.59c-1.7-1.2-4-.3-5.87.46l-14.21,6.17a9.24,9.24,0,0,1-4.48,1.06,7,7,0,0,1-2.93-1.21,73.62,73.62,0,0,1-10-8.28l-2-2.26c0-.31-.16-.61-.16-.91-.15-.3-.15-.6-.46-.9-.16-.3-.31-.76-.46-1.06a4.18,4.18,0,0,0-.78-.9c-.15-.3-.46-.6-.61-.91a10.06,10.06,0,0,0-.47-1.2,2.42,2.42,0,0,0-1.23-.91c-.16,0-.47,0-.47.15v.16a5.82,5.82,0,0,1,.62,1.05,5.08,5.08,0,0,1,.31,1.51,1.13,1.13,0,0,1-.15.6c-.31-.15-.78-.3-1.09-.45-.15-.15-.46-.3-.61-.6h.46c.15,0,.31-.16.46-.31,0-.3,0-.6-.31-.75a1.61,1.61,0,0,0-.77-.3,2.64,2.64,0,0,0-1.54.45c-.31.15-.47.3-.47.6s.31.31.47.46a1.16,1.16,0,0,1,.31.6c-.31.15-.62.15-.78.45a1.05,1.05,0,0,0-.46.9c0,.16.15.31.31.46a.66.66,0,0,0-.31.9c0,.3.31.6.62.75h.31l-.31.31a1.16,1.16,0,0,0,.15,1.2,2.55,2.55,0,0,0,.62,1.06,3.9,3.9,0,0,0,1.08.6l1.7.75a3,3,0,0,0,1.24.3h0c3.7,6,9.73,13.57,15,17.33a7.64,7.64,0,0,0,2.94,1.51,9,9,0,0,0,2.78-.45,121.5,121.5,0,0,0,12.2-4.52,29.07,29.07,0,0,0,6-3.32,11.6,11.6,0,0,0,4.17-5.27C344.79,391.06,344.63,388.65,342.93,387.59Z" transform="translate(-183.52 -306.91)"/><path class="cls-3" d="M330.27,517.79a11.34,11.34,0,0,0-.31-4.52,9.61,9.61,0,0,1-.16-3.62c-1.85-.15-4.94,0-6.79,0a3,3,0,0,1-1.55,3,13.78,13.78,0,0,1-3.55,1.21,5.74,5.74,0,0,0-3.09,1.81,1.68,1.68,0,0,0-.47,1.2,2.45,2.45,0,0,0,.16,1.06h15.76Z" transform="translate(-183.52 -306.91)"/><path class="cls-8" d="M321,428.43c-2.94,27.58-5.87,55.75,1.7,82.58l9.88-.91c-1.7-17.18-2.93-33.45,2.32-50.18,3.4-10.85,9.11-22.9,7.72-34.05l-19.77-1.06Z" transform="translate(-183.52 -306.91)"/><path class="cls-3" d="M289,358.66a2.41,2.41,0,0,1,1.24,3.47,2.55,2.55,0,0,1-3.56,1.2,2.5,2.5,0,0,1-1.39-3.16l-1.23.45a4.12,4.12,0,0,0,2.93,5.27,4.25,4.25,0,0,0,5.41-2.86,4.12,4.12,0,0,0-2.94-5.27h-.15Z" transform="translate(-183.52 -306.91)"/><path class="cls-3" d="M291.8,364.24c-.15-.15-.46-.3-.62-.15a.46.46,0,0,0,0,.6c.16.15.31.3.47.3a63.76,63.76,0,0,1,15.44,9.95c1.24-.31,1.39-1.06,1.09-2.11l-11.13-6.78a8.13,8.13,0,0,0-2.62-1.21A16.61,16.61,0,0,1,291.8,364.24Z" transform="translate(-183.52 -306.91)"/><path class="cls-3" d="M289.79,366.35a1.19,1.19,0,0,1-.31-.61c.16-.15.31-.3.47-.15h0l.46.46c3.09,5.12,8.65,9.79,9.89,13.86-.16.45-.62.9-1.08.75-.16,0-.31-.15-.47-.3-2.62-3.31-4.32-5.88-6.79-9.34a7.5,7.5,0,0,1-1.39-2.41A13.16,13.16,0,0,0,289.79,366.35Z" transform="translate(-183.52 -306.91)"/><path class="cls-7" d="M342.47,387a16.27,16.27,0,0,1-3.25-8.29,34.73,34.73,0,0,1-7.87,1.81,40.48,40.48,0,0,1-.93,8.59A65.24,65.24,0,0,1,342.47,387Z" transform="translate(-183.52 -306.91)"/><path class="cls-7" d="M328,381.42a15,15,0,0,0,6.33,0,13.83,13.83,0,0,0,6.34-2.57c2.16-1.8,4.47-4.37,4.17-7.23-.62-5.27-7.88-7.23-12.21-5.42a10.8,10.8,0,0,0-5.25,4.82,18.49,18.49,0,0,0-2.32,6.33,4.33,4.33,0,0,0,.16,2.41A3.56,3.56,0,0,0,328,381.42Z" transform="translate(-183.52 -306.91)"/><path class="cls-3" d="M343.7,369.36a8.33,8.33,0,0,0-5.87-4.22A7.9,7.9,0,0,0,331,367a4.74,4.74,0,0,1,2.47,3.16,6.55,6.55,0,0,1,.31,1.66,1.19,1.19,0,0,1,1.23-.15,1.66,1.66,0,0,1,.93,1.51,3.67,3.67,0,0,1-.62,1.81,4.16,4.16,0,0,1-1.23,1.05,8.26,8.26,0,0,0,.62,2.11,6.14,6.14,0,0,0,3.7,3.32c2-1.51,5.72-4.53,6.8-6.63C346,372.68,344.63,371.47,343.7,369.36Z" transform="translate(-183.52 -306.91)"/><path class="cls-9" d="M339.69,364.54a17.29,17.29,0,0,1,5.56,4.37,4,4,0,0,1,1.23,2.26,4.85,4.85,0,0,1-1.23,3.77c-.93,1.05-1.7,2.11-2.47,3.16-2.16-2-3.71-4.37-5.72-6.48a15.56,15.56,0,0,0-6.95-4.82c1.08-.6,2-1.51,3.09-2.11a6.15,6.15,0,0,1,3.55-1.06A4.87,4.87,0,0,1,339.69,364.54Z" transform="translate(-183.52 -306.91)"/><path class="cls-5" d="M329.8,364.39a12,12,0,0,1-3.86-2.11,1.18,1.18,0,0,0-.77-.3c-.16.15-.47.3-.47.45a3.47,3.47,0,0,0,1.24,3.46,8.11,8.11,0,0,0,3.55,1.51c1.86.45,3.56,1.66,5.56,1.81a5.53,5.53,0,0,0-1.85-3.62A30.66,30.66,0,0,0,329.8,364.39Z" transform="translate(-183.52 -306.91)"/><path class="cls-5" d="M337.37,385.33a14.22,14.22,0,0,0-9.11,4.22,22.71,22.71,0,0,0-5.25,10.1,86.82,86.82,0,0,0-3.56,27.42,6.84,6.84,0,0,0,1.08,3.92c1.24,1.66,3.56,1.81,5.56,2a93.21,93.21,0,0,0,19.47-1.51,77.09,77.09,0,0,1-1.24-27.87,53.78,53.78,0,0,0,1.08-11.15,7.64,7.64,0,0,0-1.7-4.83A7,7,0,0,0,337.37,385.33Z" transform="translate(-183.52 -306.91)"/><path class="cls-9" d="M337.83,391.36a5.38,5.38,0,0,1,1.09,2.71A26.84,26.84,0,0,1,336,409.9a25.24,25.24,0,0,1-7.26,9.79c-.46.45-1.24.75-1.7.45a1.3,1.3,0,0,1-.62-1.35,49.1,49.1,0,0,1,2.94-22.61c.93-2.41,2.16-4.82,4.63-5.57A3.41,3.41,0,0,1,337.83,391.36Z" transform="translate(-183.52 -306.91)"/><path class="cls-8" d="M323.93,411.1a35.52,35.52,0,0,1,5.87-20.79c1.24-1.81,2.78-3.47,4.95-3.62s4,1.36,5.4,3a20.73,20.73,0,0,1,4.79,10.55,10.65,10.65,0,0,0-.62-6.93,19.54,19.54,0,0,0-4.32-5.73,7.35,7.35,0,0,0-4.48-2.11,7.66,7.66,0,0,0-3.25,1.21,21.86,21.86,0,0,0-7.87,10.7,48.66,48.66,0,0,0-2.32,13.26Z" transform="translate(-183.52 -306.91)"/><path class="cls-8" d="M328.26,426.47c-4.64-4.52,0-16.27-1.55-25.31,0-1.21-2.16,1.65-4.63,1.8a83.17,83.17,0,0,0-2.47,24,6.84,6.84,0,0,0,1.08,3.92c1.23,1.66,3.55,1.81,5.56,2a93.07,93.07,0,0,0,19.46-1.51c-.15-.9-.31-1.65-.46-2.56C338.92,429.48,332.89,429.18,328.26,426.47Z" transform="translate(-183.52 -306.91)"/><path class="cls-8" d="M343.86,415.47a38.07,38.07,0,0,0,.31-7.23c-2.32,8.29-5.25,16.42-10.2,23.5l2.47.76c1.86-3.17,3.4-6.33,4.95-9.65A29.68,29.68,0,0,0,343.86,415.47Z" transform="translate(-183.52 -306.91)"/><path class="cls-5" d="M338.61,390.76a3.9,3.9,0,0,0-6-2.71,9.21,9.21,0,0,0-2.62,2.26,54.13,54.13,0,0,0-6.34,9.64,30.69,30.69,0,0,1,10.2,5.12,28.77,28.77,0,0,0,4.63-10.39A6.62,6.62,0,0,0,338.61,390.76Z" transform="translate(-183.52 -306.91)"/><path class="cls-7" d="M323.62,400.1a56.86,56.86,0,0,1-3.09,5.27c-4.63,7.54-11.43,12.51-18.53,18.69a6.41,6.41,0,0,0-2.32-.45c-.31,0-.77.15-.77.45a2.25,2.25,0,0,1-.93-.3,2.25,2.25,0,0,0-.93-.3.65.65,0,0,0-.61.6.77.77,0,0,0-1.09,0c-.3.3-.46.6-.77.9s-.62.31-.77.46c-.77.6-.77,1.65-1.54,2.26a1.21,1.21,0,0,0,1.54-.15c.15-.16.31-.61.62-.76a1,1,0,0,1,.92-.15,5.41,5.41,0,0,1,1.55.15,3.32,3.32,0,0,1,1.24.76,1.13,1.13,0,0,1-.16,1.35,2.66,2.66,0,0,1-1.54.45,3.25,3.25,0,0,0-2,1.06c-.31.3-.47.9-.16,1.2a.69.69,0,0,0,.78.15,3,3,0,0,0,1.08-.3c.61-.3.46-.6,1.23-.9a3.91,3.91,0,0,1,2.63.15s1.85,1.21,3.71-1.21l2-1.35a2.51,2.51,0,0,0,1.09-.6c6.79-4.07,14.36-8.74,20.08-14a53.75,53.75,0,0,0,7.41-8.29A40.7,40.7,0,0,0,323.62,400.1Z" transform="translate(-183.52 -306.91)"/><path class="cls-3" d="M316.05,493.83H283.92V480.12h32.13Zm-30.58-1.51h29v-10.7h-29Z" transform="translate(-183.52 -306.91)"/><polygon class="cls-5" points="130.38 179.68 102.88 179.68 99.17 187.37 99.17 197.46 134.24 197.46 134.24 187.37 130.38 179.68"/><rect class="cls-5" x="106.89" y="172.15" width="19.93" height="3.62"/><rect class="cls-3" x="100.72" y="187.06" width="32.59" height="0.9"/><path class="cls-3" d="M301.69,501.21h-2.16a1.76,1.76,0,0,1-1.86-1.81h0v-6.78a1.77,1.77,0,0,1,1.86-1.81h2.31a1.77,1.77,0,0,1,1.86,1.81h0v6.78a2,2,0,0,1-2,1.81Zm-2.32-9a.33.33,0,0,0-.31.3v6.78a.33.33,0,0,0,.31.3h2.32a.33.33,0,0,0,.31-.3h0v-6.78a.33.33,0,0,0-.31-.3h-2.32Z" transform="translate(-183.52 -306.91)"/><path class="cls-7" d="M259.21,317.52c-.62.16-1.39,1.36-3.4,2.57-2.32,1.5-4.63,2.86-6.95,4.22a42.1,42.1,0,0,1,12.51,5.57,35,35,0,0,1,3.55-8.59C262.45,321.59,261.83,317.07,259.21,317.52Z" transform="translate(-183.52 -306.91)"/><path class="cls-7" d="M271.72,311.8a6.08,6.08,0,0,0-3.71-3,8.64,8.64,0,0,0-8.49,1.51,7.56,7.56,0,0,0-2,7.08,10.46,10.46,0,0,0,4.32,6.18,20.2,20.2,0,0,0,7.11,3.17,81.59,81.59,0,0,0,2.93-10.55A6,6,0,0,0,271.72,311.8Z" transform="translate(-183.52 -306.91)"/><path class="cls-3" d="M268.79,308c-3.4-1.51-7-1.66-9.89.6l-.46.91c-1.39.45-1.24,1-1.7,2.26a12.11,12.11,0,0,0-.16,4.07,37.29,37.29,0,0,1,.47,4.07,12.41,12.41,0,0,0,3.08-.91,9.84,9.84,0,0,0,4.64-.45,4.7,4.7,0,0,1,0-2.11,1.63,1.63,0,0,1,1.54-1.36.59.59,0,0,1,.47.15,1.83,1.83,0,0,1,.77,1.81l.77.15a8.78,8.78,0,0,1,.62-3.91c.46,0,.93.15,1.39.15a5.88,5.88,0,0,0,5.56-2.11C273.42,311,271.26,309.09,268.79,308Z" transform="translate(-183.52 -306.91)"/><path class="cls-3" d="M240.21,439l5.71.3a7,7,0,0,0,2.78,5.42c1.09.91,2.48,1.36,3.56,2.26a3.34,3.34,0,0,1,1.39,3.62l-9-.15a8,8,0,0,1-1.86-.3,4.11,4.11,0,0,1-1.54-1.66,8.71,8.71,0,0,1-1.55-3.16C239.44,443.05,240.67,440.94,240.21,439Z" transform="translate(-183.52 -306.91)"/><path class="cls-6" d="M230.79,362a40.44,40.44,0,0,0,1.54,21.85c2,5.72,5.41,11,6.49,16.87a45.22,45.22,0,0,1,0,11.15,165.76,165.76,0,0,0,.62,27.73l8,.45c1.23-9.94,2.32-19.89,3.55-30a81.5,81.5,0,0,0,.77-12.36c-.15-5.12-1.39-10.1-2-15.22a77.44,77.44,0,0,1,.15-19.89Z" transform="translate(-183.52 -306.91)"/><path class="cls-9" d="M267.86,327.92c-1.86-.3-3.55-.75-5.41-1.2a38.42,38.42,0,0,0-10-2.26,7.54,7.54,0,0,0-4.79,1.05,4,4,0,0,0-2.16,4.07,4.94,4.94,0,0,0,2,2.86c2.93,2.41,6.95,3,10.66,3.47,3.24.3,6.48.6,9.73.6A11.79,11.79,0,0,0,267.86,327.92Z" transform="translate(-183.52 -306.91)"/><path class="cls-7" d="M290.41,334.1a20.68,20.68,0,0,1-.62-5.27,71.48,71.48,0,0,1-21.93-.76,11.79,11.79,0,0,1,0,8.59A87.72,87.72,0,0,0,290.41,334.1Z" transform="translate(-183.52 -306.91)"/><rect class="cls-3" x="166.37" y="1.12" width="5.41" height="44.9"/><rect class="cls-2" x="99.94" y="1.12" width="66.89" height="44.9"/><path class="cls-3" d="M302.61,315.72a.65.65,0,0,1-.61.6H289a.66.66,0,0,1-.62-.6h0a.66.66,0,0,1,.62-.61h13A.65.65,0,0,1,302.61,315.72Z" transform="translate(-183.52 -306.91)"/><path class="cls-3" d="M302.61,318.73a.65.65,0,0,1-.61.6H289a.66.66,0,0,1-.62-.6h0a.66.66,0,0,1,.62-.6h13A.65.65,0,0,1,302.61,318.73Z" transform="translate(-183.52 -306.91)"/><path class="cls-3" d="M302.61,321.74a.65.65,0,0,1-.61.61H289a.66.66,0,0,1-.62-.61h0a.67.67,0,0,1,.47-.6h13a.69.69,0,0,1,.77.6Z" transform="translate(-183.52 -306.91)"/><path class="cls-3" d="M302.61,324.76a.66.66,0,0,1-.46.6H289a.66.66,0,0,1-.62-.6h0a.67.67,0,0,1,.62-.61h13a.66.66,0,0,1,.61.61Z" transform="translate(-183.52 -306.91)"/><path class="cls-3" d="M302.61,327.77a.66.66,0,0,1-.46.6H289a.66.66,0,0,1-.62-.6h0a.66.66,0,0,1,.62-.6h13a.65.65,0,0,1,.61.6Z" transform="translate(-183.52 -306.91)"/><path class="cls-3" d="M302.61,330.78a.65.65,0,0,1-.61.61H289a.66.66,0,0,1-.62-.61h0a.66.66,0,0,1,.62-.6h13a.65.65,0,0,1,.61.6Z" transform="translate(-183.52 -306.91)"/><path class="cls-3" d="M302.61,333.8a.65.65,0,0,1-.61.6H289a.66.66,0,0,1-.62-.6h0a.66.66,0,0,1,.62-.6h13A.65.65,0,0,1,302.61,333.8Z" transform="translate(-183.52 -306.91)"/><ellipse class="cls-8" cx="145.2" cy="22.97" rx="17.3" ry="16.88"/><ellipse class="cls-3" cx="145.2" cy="22.97" rx="15.91" ry="15.52"/><path class="cls-8" d="M328.72,343.29a13.56,13.56,0,1,1,13.9-13.56h0A13.68,13.68,0,0,1,328.72,343.29Zm0-26.22a12.8,12.8,0,0,0-13,12.66,13,13,0,0,0,13,12.81,12.8,12.8,0,0,0,13-12.66h0A12.74,12.74,0,0,0,328.72,317.07Z" transform="translate(-183.52 -306.91)"/><path class="cls-8" d="M328.72,340.13a10.4,10.4,0,1,1,10.66-10.4,10.55,10.55,0,0,1-10.66,10.4Zm0-19.89a9.64,9.64,0,1,0,9.89,9.64h0A9.74,9.74,0,0,0,328.72,320.24Z" transform="translate(-183.52 -306.91)"/><path class="cls-8" d="M328.72,336.66a6.78,6.78,0,1,1,6.95-6.78,6.84,6.84,0,0,1-6.95,6.78Zm0-13a6,6,0,1,0,6.18,6A6.12,6.12,0,0,0,328.72,323.7Z" transform="translate(-183.52 -306.91)"/><path class="cls-8" d="M328.72,333.5a3.62,3.62,0,1,1,3.71-3.62h0A3.53,3.53,0,0,1,328.72,333.5Zm0-6.63a2.89,2.89,0,0,0-2.93,2.86,3,3,0,0,0,2.93,2.86,2.9,2.9,0,0,0,2.94-2.86h0A2.9,2.9,0,0,0,328.72,326.87Z" transform="translate(-183.52 -306.91)"/><ellipse class="cls-8" cx="170.69" cy="31.86" rx="2.32" ry="3.92"/><path class="cls-3" d="M356.37,336.21h9.42a2.09,2.09,0,0,1,2.17,2.11h0a2.09,2.09,0,0,1-2.17,2.11h-9.42a2.09,2.09,0,0,1-2.16-2.11h0A2.09,2.09,0,0,1,356.37,336.21Z" transform="translate(-183.52 -306.91)"/><polygon class="cls-3" points="77.24 213.59 74.92 213.43 83.11 110.36 48.97 110.36 40.78 213.59 38.46 213.43 46.8 108.1 85.58 108.1 77.24 213.59"/><rect class="cls-3" x="44.95" y="145.78" width="36.3" height="2.26"/><rect class="cls-3" x="46.81" y="122.42" width="36.3" height="2.26"/><rect class="cls-3" x="42.94" y="169.89" width="36.3" height="2.26"/><rect class="cls-3" x="41.09" y="194" width="36.3" height="2.26"/><polygon class="cls-3" points="94.23 204.69 85.89 110.36 51.75 110.36 60.09 204.54 57.77 204.69 49.28 108.1 88.05 108.1 96.55 204.54 94.23 204.69"/><rect class="cls-3" x="53.6" y="142.61" width="36.3" height="2.26"/><rect class="cls-3" x="51.75" y="121.21" width="36.3" height="2.26"/><rect class="cls-3" x="55.61" y="164.76" width="36.3" height="2.26"/><rect class="cls-3" x="57.46" y="186.76" width="36.3" height="2.26"/><path class="cls-3" d="M246.54,450.28a19.66,19.66,0,0,1,.77-5.12,4.15,4.15,0,0,1,1.55-2.41,4.72,4.72,0,0,1,3.24-.31,11.76,11.76,0,0,0,3.25.46,4.68,4.68,0,0,0,1.7,4.06,33.56,33.56,0,0,0,3.7,2.72,4.41,4.41,0,0,1,1.86,3.91l-13.44-.3a2.87,2.87,0,0,1-1.55-.3A3,3,0,0,1,246.54,450.28Z" transform="translate(-183.52 -306.91)"/><path class="cls-8" d="M254.57,407c-6,10.7-2.31,24.71-7.57,36a57,57,0,0,0,11.13,1.65A175.62,175.62,0,0,1,265.54,417c1.7-4.82,3.55-9.8,3.09-14.92s-3.09-9.64-6.18-13.56-6.64-7.69-9.27-12.06S248.86,367,249.94,362l-16.68-.76a5.31,5.31,0,0,0-3.09.46,4.54,4.54,0,0,0-1.7,3.61c-.62,7.39,3.55,14.32,8.8,19.74S248.7,394.68,254,400.1a6.07,6.07,0,0,1,2,3.47A8,8,0,0,1,254.57,407Z" transform="translate(-183.52 -306.91)"/><path class="cls-9" d="M251.79,321.74a2.73,2.73,0,0,1,2.17,0,16.19,16.19,0,0,1,5.71,2.41,6.53,6.53,0,0,1,2.78,5.28,18.12,18.12,0,0,0-12.66-5.58C250.56,323.25,250.87,322.2,251.79,321.74Z" transform="translate(-183.52 -306.91)"/><path class="cls-5" d="M253.49,323.1c-4.48-.3-8.65,2.26-11.89,5.27a45.93,45.93,0,0,0-11,17,63,63,0,0,0-3.71,19.89,103.35,103.35,0,0,0,24.56,1.21,37.82,37.82,0,0,1,5.72-18.08c2.16-3.47,4.94-6.79,6-10.7a11.74,11.74,0,0,0-1.39-9.65A11.51,11.51,0,0,0,253.49,323.1Z" transform="translate(-183.52 -306.91)"/><path class="cls-9" d="M250.4,331.24a2.5,2.5,0,0,0-2,.9,3.32,3.32,0,0,0-.78,1.66,14.73,14.73,0,0,0,3.09,13.26l9-7.38a17.64,17.64,0,0,1-5.25-4.83,6.55,6.55,0,0,0-1.24-1.65,3,3,0,0,0-2.16-.91Z" transform="translate(-183.52 -306.91)"/><path class="cls-8" d="M255.19,343.29c-5.87,10.85-15.14,16.88-27.49,13.11a43.71,43.71,0,0,0-.62,9,103.3,103.3,0,0,0,24.56,1.21,37.92,37.92,0,0,1,5.71-18.08c1.09-1.81,2.48-3.62,3.56-5.43C258.74,342.54,256.12,343.29,255.19,343.29Z" transform="translate(-183.52 -306.91)"/><path class="cls-8" d="M239.9,331.69a30.82,30.82,0,0,1,6.64-5.12,15.28,15.28,0,0,1,8.19-2,10,10,0,0,1,7.41,3.61A11.68,11.68,0,0,0,251,326.57a25.64,25.64,0,0,0-9.73,6.32,57.15,57.15,0,0,0-11.74,15.22C230.94,341.63,235.11,336.21,239.9,331.69Z" transform="translate(-183.52 -306.91)"/><path class="cls-8" d="M246.08,325.21c-5.41,3.62-8.65,9.64-9.89,16a78.35,78.35,0,0,0-1.23,19,4.94,4.94,0,0,1,2-.91c-1.08-11.6.47-21.09,6.49-31.19Z" transform="translate(-183.52 -306.91)"/><path class="cls-5" d="M264.46,336.36a19.88,19.88,0,0,1-2.63-3.62,25.53,25.53,0,0,0-3.39-5.57,6.74,6.74,0,0,0-4.95-2.11,5.22,5.22,0,0,0-4.63,2.71,7,7,0,0,0-.16,4.67,23.33,23.33,0,0,0,7,11.61A16.14,16.14,0,0,0,264.46,336.36Z" transform="translate(-183.52 -306.91)"/><path class="cls-7" d="M306.48,344.8a5.37,5.37,0,0,0-3.09-.15,21.55,21.55,0,0,1-3.09.3,5.35,5.35,0,0,1,2.93-.75h1.39a1.41,1.41,0,0,0,1.24-.61,9.26,9.26,0,0,0-6-.3,12.4,12.4,0,0,1-2.47.91,9.63,9.63,0,0,1,.47-1.21,4,4,0,0,1,.92-.75,1.37,1.37,0,0,0,.47-1.06c0-.15-.16-.15-.16-.3h-.31c-.92.45-1.54,1.36-2.47,1.81a2.8,2.8,0,0,0-1.39.9c-.31.3-.31.76-.62,1.06v-.15a42.1,42.1,0,0,1-18.38-.91A25.18,25.18,0,0,1,264,336.51a14.26,14.26,0,0,1-8.5,7.23,27.75,27.75,0,0,0,4.79,3.62A37,37,0,0,0,279,352a40.55,40.55,0,0,0,14.68-2.41c.3.15.46.3.61.3a3.51,3.51,0,0,0,2.17.15c.61-.15,1.39-.45,2-.6,2-.6,4-.9,6-1.36.31,0,.46-.15.77-.3,0-.3-.31-.3-.62-.3a39,39,0,0,0-4.17.3,2.13,2.13,0,0,1,1.24-.75,4.37,4.37,0,0,1,1.39-.15,14.8,14.8,0,0,0,2.47-.6c.15,0,.46-.16.46-.31s-.31-.3-.61-.3a.93.93,0,0,1,.61-.15C306.32,345.25,306.63,345.1,306.48,344.8Z" transform="translate(-183.52 -306.91)"/></svg>