<svg id="Layer_1" data-name="Layer 1" xmlns="http://www.w3.org/2000/svg" xmlns:xlink="http://www.w3.org/1999/xlink" viewBox="0 0 225.47 226.77"><defs><style>.cls-1{fill:none;}.cls-2{fill:#fff;}.cls-3{fill:#d39d81;}.cls-4{fill:#79c1e1;}.cls-5{fill:#243965;}.cls-6{fill:#0e7f93;}.cls-7{fill:#0094b8;}.cls-8{fill:#f26a58;}.cls-9{fill:#c9453d;}.cls-10{clip-path:url(#clip-path);}.cls-11{fill:#f7ddbf;}</style><clipPath id="clip-path" transform="translate(-183.96 -307.45)"><rect class="cls-1" x="368.69" y="414.57" width="42.04" height="61.1"/></clipPath></defs><title>dahen</title><rect class="cls-2" x="58.11" y="23.87" width="20.62" height="19.95"/><rect class="cls-2" x="81.81" y="23.87" width="20.62" height="19.95"/><rect class="cls-2" x="58.11" y="46.81" width="20.62" height="19.95"/><rect class="cls-2" x="81.81" y="46.81" width="20.62" height="19.95"/><path class="cls-3" d="M256.85,417.24a21.17,21.17,0,0,0-2-3.77c-1.78-3.61-3.73-6.6-5.52-10.05a29.93,29.93,0,0,1-9.41,6.44,48.31,48.31,0,0,0,5.19,7.54c1.3,1.41,1.63,2.2,2.76,3.61a10.62,10.62,0,0,0,3.41,2.51,3.11,3.11,0,0,0,3.57-1.41C255.88,421,257.17,418.5,256.85,417.24Z" transform="translate(-183.96 -307.45)"/><rect class="cls-4" x="133.6" width="29.22" height="84.03"/><rect class="cls-4" x="106.97" width="29.22" height="181.73"/><rect class="cls-4" x="159.89" width="29.22" height="13.98"/><path class="cls-5" d="M371.13,494.36a12.6,12.6,0,0,0-.16-4.24,23.52,23.52,0,0,1-.17-3.45h-5.19a3.54,3.54,0,0,1-1.14,3,8.45,8.45,0,0,1-2.76,1.1,3.39,3.39,0,0,0-2.43,1.73,2.84,2.84,0,0,0-.33,1.1v1.1Z" transform="translate(-183.96 -307.45)"/><path class="cls-6" d="M366.1,430.9a56.07,56.07,0,0,0,.65-8.95,17.58,17.58,0,0,0-1.3-6.44H351.32a130.83,130.83,0,0,0,2.93,37.23c2.59,12.41,6.49,24.34,10.39,36.44l7.3-2.51C367.72,468.29,364.15,449.6,366.1,430.9Z" transform="translate(-183.96 -307.45)"/><path class="cls-5" d="M356.68,500.8a12.6,12.6,0,0,0-.16-4.24,25,25,0,0,1-.16-3.45h-5.2a3.53,3.53,0,0,1-1.13,3,8.63,8.63,0,0,1-2.76,1.1,3.39,3.39,0,0,0-2.44,1.73,2.82,2.82,0,0,0-.32,1.1v1.1Z" transform="translate(-183.96 -307.45)"/><path class="cls-7" d="M345,415.67a129.56,129.56,0,0,0,0,49.95c1.95,10.05,5,20.1,4.39,30.47l8.92-.79a177.17,177.17,0,0,1,1-50.73c1.62-9.58,3.89-19.48,1.13-28.74Z" transform="translate(-183.96 -307.45)"/><path class="cls-3" d="M369.18,379.7a14.65,14.65,0,0,0-3.41-2.83c-9.74-6.59-17.69-13.19-24.51-22.62,0-.62-.65-3-.65-3.61V350c-.16-.15-.16-.31-.32-.47s-.33-.31-.33-.47c-.16-.47-.32-.94-.49-1.41a1.19,1.19,0,0,0-.32-.63,3.34,3.34,0,0,0-1-.63l-.49-.16-2.27-2a1.1,1.1,0,0,0-.49.94h0l-.65-.15a1.62,1.62,0,0,0,.81,1.41c.49.16.81.31,1.3.47h0a.56.56,0,0,1,.16.32,5.89,5.89,0,0,1-1.62-.32,1.6,1.6,0,0,0,.81,1.26,5.17,5.17,0,0,0,1.46.47h.16v.16a4.25,4.25,0,0,1,.33,1.41,1.75,1.75,0,0,1-.49,1.26,1,1,0,0,1-1.3.15,2.75,2.75,0,0,1-.81-1.1,3.53,3.53,0,0,0-2.43-1.41c-.33,0-.49,0-.65.32a.29.29,0,0,0,0,.47c.16.15.16.31.32.47a5.35,5.35,0,0,1,1.46,1.25c.33.48.49,1.26.81,1.73s1,.63,1.3,1.1.65,1.1,1.3,1.26h0c5.85,12.25,14.61,22.3,24.35,27.8a11.2,11.2,0,0,0,3.73,1.57,4.19,4.19,0,0,0,3.74-1.41A3,3,0,0,0,369.18,379.7Z" transform="translate(-183.96 -307.45)"/><path class="cls-3" d="M355.54,373.1l9.74,3.46a63,63,0,0,1-.48-9.58c-1.95-.47-4.87.15-6.66-.32Z" transform="translate(-183.96 -307.45)"/><path class="cls-3" d="M359.6,353.94a2.73,2.73,0,0,0-1.94.16,4,4,0,0,0-1.3,1.57c-.33.63-.82,1.25-1.3,2a17.87,17.87,0,0,0-1.79,7.7,2.21,2.21,0,0,0,.33,1.72,2.17,2.17,0,0,0,1.46.79,16.67,16.67,0,0,0,6.17.63,2.15,2.15,0,0,0,2.43-1.57,18.16,18.16,0,0,0,1.62-5,6.86,6.86,0,0,0-5.51-7.85l-.17-.16Z" transform="translate(-183.96 -307.45)"/><path class="cls-5" d="M367.39,355.82c-.48-.31-1.94-1.88-2.27-2.19a5.76,5.76,0,0,0-4.54-.95c-1.46.47-1.46,2.36-2.28,6.13.82-.79,1.3-1.57,1.63-1.26a.94.94,0,0,1,.48,1.1,3.66,3.66,0,0,1-.32,1.26c-.16.31-.32.63-.49.94a1,1,0,0,1-1.13.16,4.4,4.4,0,0,0,.81,4.4,18.25,18.25,0,0,0,3.57,3.45,9.94,9.94,0,0,0,4.38-3.3,8.46,8.46,0,0,0,1.95-6.12c-.16-1.1.33-1.73-.65-2.52A1.6,1.6,0,0,0,367.39,355.82Z" transform="translate(-183.96 -307.45)"/><path class="cls-8" d="M354.25,352.21a2.84,2.84,0,0,1-.82-1.1.81.81,0,0,1,.49-1.1,1.5,1.5,0,0,1,1.14.16,29.64,29.64,0,0,1,5.35,3.3A8.15,8.15,0,0,0,358.3,356Z" transform="translate(-183.96 -307.45)"/><path class="cls-9" d="M369,354.73a5.06,5.06,0,0,1,2,3.14c.16,1.88-1.63,4.24-2.28,6.12A37.8,37.8,0,0,1,358,356a1.62,1.62,0,0,1-.81-1.41,2,2,0,0,1,1.13-1.89c1.63-1.25,3.41-2.35,5.36-1.57A21.13,21.13,0,0,1,369,354.73Z" transform="translate(-183.96 -307.45)"/><path class="cls-8" d="M358.3,372.32A57.17,57.17,0,0,1,368,377.5a12,12,0,0,1,2.76,2.2,8.3,8.3,0,0,1,1.46,6.75c-1,4.87-4.7,9.9-4.7,14.77,0,7.69-1.46,11.15.48,17.12-8,2.2-17.36,1.88-25.48,2.36.65-8.17.81-14.93.81-23.09.16-8.17,1.62-16.81,7.14-23.09a7.81,7.81,0,0,1,3.74-2.67A9,9,0,0,1,358.3,372.32Z" transform="translate(-183.96 -307.45)"/><path class="cls-9" d="M355.22,378.44a5.26,5.26,0,0,1,1.46,3,15.28,15.28,0,0,1-1.62,9.26c-1.3,3-3.09,5.66-4.38,8.64-2.76,6.44-2.93,14.14-4.06,21.05-1.3.32-2.92.16-4.22.47a220.1,220.1,0,0,1,2.27-32.67,28.61,28.61,0,0,1,1.46-5.34,8.42,8.42,0,0,1,3.57-4.24A4.76,4.76,0,0,1,355.22,378.44Z" transform="translate(-183.96 -307.45)"/><polygon class="cls-5" points="149.83 54.66 148.21 54.66 148.21 9.42 163.63 5.18 163.63 3.46 162 3.46 162 1.89 165.25 1.89 165.25 6.28 149.83 10.52 149.83 54.66"/><rect class="cls-7" x="135.06" y="0.63" width="27.27" height="3.77"/><path class="cls-5" d="M334.6,372.32a16.74,16.74,0,0,0-1.13,3.77,2.48,2.48,0,0,1-.65-1.1,13.41,13.41,0,0,0-1.14-2.67c-.32-.47-.48-.95-.81-1.42a11,11,0,0,1-1.46-3.14,4,4,0,0,1,.49-3.3,3.29,3.29,0,0,1,3.08-1.25s.16,0,.16.15v.32c0,.16.33.63.65.63a1.41,1.41,0,0,1,1,.47c.32.31.16.94,0,1.25v.48c0,.31.48.47.65.62a.7.7,0,0,1,0,.79c-.17.31-.33.47-.49.78-.33.79.16,1.58,0,2.52A2.17,2.17,0,0,1,334.6,372.32Z" transform="translate(-183.96 -307.45)"/><path class="cls-8" d="M333,360.22h0a1.5,1.5,0,0,1,1.62,1.57v11.47a1.59,1.59,0,0,1-1.62,1.57h0a1.6,1.6,0,0,1-1.62-1.57V361.79A1.86,1.86,0,0,1,333,360.22Z" transform="translate(-183.96 -307.45)"/><path class="cls-8" d="M345,391.48a40.17,40.17,0,0,0,4.22-3.14,21,21,0,0,0,5.85-6.6,8,8,0,0,0-.33-8.32,3.46,3.46,0,0,0-1.94-1.42c-1.3-.15-2.44.79-3.41,1.73-3.57,3.61-6.66,5.34-10.07,8.48C339.15,386.45,341.58,389.44,345,391.48Z" transform="translate(-183.96 -307.45)"/><path class="cls-3" d="M339.31,382.37a15.71,15.71,0,0,0-1.62,1.57c-.81-4.24-1.95-6.91-2.6-11l.16-1.1a3.56,3.56,0,0,0,.49-2.52c-.16-.47-.49-.94-.65-1.41a1.4,1.4,0,0,1,0-1.57,2.45,2.45,0,0,1,.65-.63,2.92,2.92,0,0,0,.81-2c0-.16,0-.47-.32-.47h-.33l-.81.31a3.75,3.75,0,0,0-1.62,1.1c-.49.79-.33,1.73-1.14,2.2H332a.16.16,0,0,1-.16-.16,3.61,3.61,0,0,1-.65-1.1,1.15,1.15,0,0,1,.16-.78V362h-.16l-2.28,2.51a.56.56,0,0,0-.16.32v.31c0,1.1-.32,1.42-.32,2.52,0,.31.32.62.48.94.33.63.65,1.41,1,2-.17,4.4.32,9.27.48,13.51a36,36,0,0,0,1.63,9.27,4.36,4.36,0,0,0,5.35,2.82c.33-.15.65-.15.82-.31,2.27-1.26,4.54-2.67,6.65-4.09C341.58,389.44,339.15,386.45,339.31,382.37Z" transform="translate(-183.96 -307.45)"/><path class="cls-8" d="M404.89,475.2c0-.94-6.65-1.57-14.93-1.57S375,474.41,375,475.2V512c0,.95,6.66,1.57,14.94,1.57s14.93-.78,14.93-1.57Z" transform="translate(-183.96 -307.45)"/><ellipse class="cls-5" cx="206.16" cy="168.54" rx="13.15" ry="1.41"/><g class="cls-10"><polygon class="cls-5" points="202.59 172.31 194.14 138.38 200.8 131.94 200.31 129.74 198.36 130.21 198.04 128.64 201.45 127.86 202.59 132.41 195.93 138.85 204.21 171.99 202.59 172.31"/><polygon class="cls-8" points="186.29 128.96 197.97 126.21 199.43 132.01 187.75 134.76 186.29 128.96"/><path class="cls-8" d="M391.09,493.42h0a1.73,1.73,0,0,1-2.11-1.26h0l-3.24-12.56a1.66,1.66,0,0,1,1.3-2h0a1.73,1.73,0,0,1,2.11,1.25h0l3.24,12.57a1.82,1.82,0,0,1-1.3,2Z" transform="translate(-183.96 -307.45)"/><path class="cls-5" d="M409.28,422.74H380.06v7.54l14.44,3.61V471h1.63V433.89l13.31-3.61ZM407.65,429l-12.5,3.3L381.68,429v-4.71h26Z" transform="translate(-183.96 -307.45)"/><path class="cls-7" d="M395.32,468.6h0a1.85,1.85,0,0,1,1.94,1.89v14.13a1.85,1.85,0,0,1-1.94,1.89h0a1.85,1.85,0,0,1-1.95-1.89V470.49A2,2,0,0,1,395.32,468.6Z" transform="translate(-183.96 -307.45)"/><rect class="cls-8" x="199.01" y="113.72" width="23.86" height="4.71"/><rect class="cls-5" x="191.71" y="148.12" width="12.99" height="10.68"/><rect class="cls-2" x="191.22" y="155.34" width="13.96" height="3.46"/><path class="cls-7" d="M389.63,465.77H374.86v1.73a2.06,2.06,0,0,0,1,1.57l2.92,1.42a3.77,3.77,0,0,1,1.95,3.14L380.06,487a2,2,0,0,0,1.94,2h.17a2.12,2.12,0,0,0,2.11-2v-.16l-.65-13.19a3.44,3.44,0,0,1,1.95-3.14l3.08-1.57a1.73,1.73,0,0,0,1-1.57Z" transform="translate(-183.96 -307.45)"/></g><path class="cls-3" d="M232.66,384.88a2,2,0,0,0,0-1.41,43.86,43.86,0,0,1-1.13-9.27,22.84,22.84,0,0,1-9.26-1.41,20.27,20.27,0,0,1-1.94,10.68,14.4,14.4,0,0,0,11,2.2A2.25,2.25,0,0,0,232.66,384.88Z" transform="translate(-183.96 -307.45)"/><path class="cls-5" d="M232,380.49a41.73,41.73,0,0,1-.48-6.29,20.46,20.46,0,0,1-8.77-1.25C223.25,378.6,226,382.37,232,380.49Z" transform="translate(-183.96 -307.45)"/><path class="cls-3" d="M230.39,379.39a7.58,7.58,0,0,1-3.73-.63,9.78,9.78,0,0,1-4.06-3.62,16.13,16.13,0,0,1-1.79-6.75,7.47,7.47,0,0,1,1.14-5.5,7.57,7.57,0,0,1,3.9-2.35,17.58,17.58,0,0,1,8.11-.32,4.45,4.45,0,0,1,1.95.95,6.81,6.81,0,0,1,.49,4.39c-.65,3,.32,2.36.16,4.4a13.21,13.21,0,0,1-2.44,6.76C233.15,378,233.64,379.23,230.39,379.39Z" transform="translate(-183.96 -307.45)"/><path class="cls-5" d="M221.3,369a15.62,15.62,0,0,0,.81,5.5c-1.3-.47-1.78-2.67-2.11-4.09a17.39,17.39,0,0,1,0-4.08,2.68,2.68,0,0,1,.33-1.1,3.4,3.4,0,0,1,.81-.47l2.92-.94a17.6,17.6,0,0,1-1.3,5,1.17,1.17,0,0,0-.32-.78c-.17-.32-.49-.32-.82-.32A1.69,1.69,0,0,0,221.3,369Z" transform="translate(-183.96 -307.45)"/><path class="cls-9" d="M232,356.45a23.76,23.76,0,0,0-6.65.16,8.48,8.48,0,0,0-3.74,1.41,6.2,6.2,0,0,0-1.62,4.09c-.16,1.41,0,3-.16,4.4,5.68-1.42,11.36-2.83,17.21-2.05-.49-1.1,0-2.82-.17-4.08a4.16,4.16,0,0,0-1.78-2.83A4.69,4.69,0,0,0,232,356.45Z" transform="translate(-183.96 -307.45)"/><path class="cls-8" d="M237.7,366.51c.32.15.48.31.81.31a.9.9,0,0,0,.81-.47.94.94,0,0,0-.16-.63,6.81,6.81,0,0,0-5.2-3,20,20,0,0,0-6.17.47,12.59,12.59,0,0,0-4.06,1.57,23.24,23.24,0,0,0,3.9,2.2,7,7,0,0,0,4.38.47l2.93-.94A4.06,4.06,0,0,1,237.7,366.51Z" transform="translate(-183.96 -307.45)"/><path class="cls-5" d="M232.66,531.43c-.48-1.26.17-3.3.33-4.71a10.07,10.07,0,0,0,.32-3.77h8.77c-.49,1.26.65,2.51,1.95,3.14a21.73,21.73,0,0,0,4.54,1.26,7.76,7.76,0,0,1,4.06,1.72,3.21,3.21,0,0,1,.65,1.26,2.61,2.61,0,0,1-.16,1.1Z" transform="translate(-183.96 -307.45)"/><path class="cls-6" d="M218.87,436.4c1.46,29.69,15.25,58.43,13.31,88.28l10.38-.63a495.27,495.27,0,0,0-4.05-87.65Z" transform="translate(-183.96 -307.45)"/><path class="cls-5" d="M214.64,526.09c-1.29-.63-2.43-2-1.94-3.14h-8.61a9.86,9.86,0,0,1-.32,3.77c-.33,1.26-.81,3.45-.33,4.71h15.75a10.48,10.48,0,0,0-2.6-4.71C215.94,526.56,215.29,526.25,214.64,526.09Z" transform="translate(-183.96 -307.45)"/><path class="cls-7" d="M210.26,436.4c-.16,0-.16,0-.32.16a2.84,2.84,0,0,0-.81,1.88c-1.79,12.73-.33,25.76-1.14,38.64-1,15.55-5.2,30.63-5,46.18a39.05,39.05,0,0,0,10.55.47A672.31,672.31,0,0,0,231,436.4Z" transform="translate(-183.96 -307.45)"/><path class="cls-8" d="M215.78,382.84a43.61,43.61,0,0,1,22.89.94,4.43,4.43,0,0,1,3.89,6.29,111,111,0,0,0-1,49,80.28,80.28,0,0,1-33.44,2.52c.16-10.37,0-20.58-.65-30.95-.32-7.07-1-14.45,1.14-21.2a9.51,9.51,0,0,1,2.92-4.87A7.84,7.84,0,0,1,215.78,382.84Z" transform="translate(-183.96 -307.45)"/><path class="cls-9" d="M228.93,382.06a19,19,0,0,0-8.44.47,3.22,3.22,0,0,0-2,1.57,2.46,2.46,0,0,0,.49,2.51,6.61,6.61,0,0,0,2.11,1.57,14.52,14.52,0,0,0,5.84,1.57,8.86,8.86,0,0,0,5.68-1.57,6.26,6.26,0,0,0,2.11-2.51,2.24,2.24,0,0,0-.16-2,3.47,3.47,0,0,0-1.3-.79A15.24,15.24,0,0,0,228.93,382.06Z" transform="translate(-183.96 -307.45)"/><path class="cls-9" d="M207,402.48a5.52,5.52,0,0,1,.81-1.73l5.52-8.33A32,32,0,0,1,208.48,415c-.49-3.61-1-7.22-1.46-11Z" transform="translate(-183.96 -307.45)"/><path class="cls-8" d="M213.35,383.47c-3.09.63-6.33,3.3-8.45,5.5a41.09,41.09,0,0,0-5.51,8.64c-.65,1.41-1.3,2.67-1.95,3.92A18.85,18.85,0,0,1,209,405.46c1.14-2.2,2.28-4.24,3.41-6.6A21,21,0,0,0,213.35,383.47Z" transform="translate(-183.96 -307.45)"/><path class="cls-3" d="M185.59,445.2c-.49.94-.81,1.73-1.3,2.67-.16.31-.16.47-.33.78a2.88,2.88,0,0,0,.33,1.26c.65,1.41,1.46,3,2.11,4.4a2,2,0,0,0,.49-1.89c-.17-.78-.82-1.25-1-2a4.59,4.59,0,0,1,.16-2c.17-.79.49-1.41.65-2.2a1.31,1.31,0,0,0,.17-.78c0-.32-.33-.48-.65-.48Z" transform="translate(-183.96 -307.45)"/><path class="cls-3" d="M185.59,449.6a7,7,0,0,1,1.95,2.35,2.15,2.15,0,0,0,.32-1.73,8.59,8.59,0,0,0-.81-1.72,3,3,0,0,1-.49-1.73,3.73,3.73,0,0,0-1,1.41Z" transform="translate(-183.96 -307.45)"/><path class="cls-3" d="M208.8,404.83a19.19,19.19,0,0,0-11.2-3.77c-5.84,13-8.44,25.76-9.9,40.37a18.19,18.19,0,0,1-1.95,2.83,2.26,2.26,0,0,0-.49.62c0,.32-.16.48-.16.79a7.63,7.63,0,0,1-.32,1.88c-.17.48-.17.95-.33,1.26v.94a35.77,35.77,0,0,0,.33,4.4,1.36,1.36,0,0,0,1.29-.47,2.23,2.23,0,0,0,.33-1.41c0-.47-.16-.95-.16-1.42a7.24,7.24,0,0,1,.48-2.67,7.39,7.39,0,0,1,.82-1.57,2,2,0,0,1,1.62-.78,1.22,1.22,0,0,1,1.3.94,5.24,5.24,0,0,1-.16,1.57,3.26,3.26,0,0,0,1,3.14,1.25,1.25,0,0,0,.81.32.52.52,0,0,0,.49-.48v-.62a12.52,12.52,0,0,1-.16-2.52c.16-.78.64-1.41.81-2.2a7.39,7.39,0,0,0,0-1.88,5.17,5.17,0,0,0-.49-3.14c2.11-9,5.52-15.87,9.09-23.72C204.42,412.53,206.69,408.76,208.8,404.83Z" transform="translate(-183.96 -307.45)"/><path class="cls-8" d="M249.55,403.42a46.06,46.06,0,0,1-2.28-5c-1.62-4.71-3.08-9.74-6.49-13.51a16.63,16.63,0,0,0-4.71,11A24.35,24.35,0,0,0,239,407.5c.49.79.82,1.57,1.3,2.36A31.31,31.31,0,0,0,249.55,403.42Z" transform="translate(-183.96 -307.45)"/><path class="cls-3" d="M248.08,416a5.44,5.44,0,0,1,1.3-4.08l12.18-16,4.54,2.35a147.6,147.6,0,0,1-6.49,16.65,24.44,24.44,0,0,1-4.55,6.91,4.11,4.11,0,0,1-3.24,1.42,3.18,3.18,0,0,1-2.11-1.42,11.09,11.09,0,0,1-2.6-7.69Z" transform="translate(-183.96 -307.45)"/><path class="cls-3" d="M261.88,397.92c-1.3-.47-1.62-1.88-1.78-3.14s2.43-1.57,1.29-2c.33-1.57.65-1.89,1-3.46,3.08.16,1.14-1.73,4.22-1.57-.33,3,2.11,5.5,1.14,8.33a9.78,9.78,0,0,1-3.09,4.86C262.69,399.8,262.86,399.65,261.88,397.92Z" transform="translate(-183.96 -307.45)"/><rect class="cls-5" x="72.56" y="56.86" width="12.99" height="10.68"/><rect class="cls-2" x="72.07" y="64.09" width="13.96" height="3.46"/><path class="cls-8" d="M270.32,374.52H255.55v1.72a2.06,2.06,0,0,0,1,1.57l2.92,1.42a3.76,3.76,0,0,1,1.94,3.14l-.64,13.35a2,2,0,0,0,1.94,2h.17a2.12,2.12,0,0,0,2.11-2v-.16l-.65-13.19a3.44,3.44,0,0,1,1.94-3.14l3.09-1.57a1.72,1.72,0,0,0,1-1.57Z" transform="translate(-183.96 -307.45)"/><path class="cls-3" d="M261.88,392.11c0-.32-.16-.63.16-.94s.33-.48.65-.79a2.3,2.3,0,0,0,1-3.14c0-.16-.16-.16-.16-.31a8.67,8.67,0,0,1-3.25,2.51,4.53,4.53,0,0,0-.81,3.77,3.47,3.47,0,0,1,.81,1.73,4,4,0,0,0,.49,1.88,1.55,1.55,0,0,0,1.46,1.1,1.7,1.7,0,0,0,1.46-1.41,3.46,3.46,0,0,0-.65-3C262.37,393.21,261.72,392.74,261.88,392.11Z" transform="translate(-183.96 -307.45)"/><path class="cls-3" d="M267.89,393.05c.32,0-.81-2-.65-2.36v-.78a7.63,7.63,0,0,0-.49-2,6.09,6.09,0,0,0-3.08-2.52,1,1,0,0,0-.65-.15,1.17,1.17,0,0,0-.33.63,3.09,3.09,0,0,0,1.63,2.35,1,1,0,0,0-.65,1.42,2.08,2.08,0,0,0,.48.62,1.51,1.51,0,0,0,.33,2.2h.16a1,1,0,0,0-.32,1.1,2.73,2.73,0,0,0,.81,1.1,4.48,4.48,0,0,1,.81.94C266.59,394.31,268.05,394.62,267.89,393.05Z" transform="translate(-183.96 -307.45)"/><path class="cls-7" d="M207.66,433.89a5.55,5.55,0,0,0,3.74-3.3,13.21,13.21,0,0,0,1-5c.49-5,.81-10.05,1.14-15.07a147.87,147.87,0,0,0,24.83-1.57,44.63,44.63,0,0,0,.82,16,87.48,87.48,0,0,1,2.43,15.86,118.53,118.53,0,0,1-34.9,1.89A33.31,33.31,0,0,0,207.66,433.89Z" transform="translate(-183.96 -307.45)"/><path class="cls-7" d="M215.13,412.21h3.09c.16-5,.32-9.89,0-14.92a55.75,55.75,0,0,0-2.93-14.61l-2.11.48C216.11,392.58,215.62,402.63,215.13,412.21Z" transform="translate(-183.96 -307.45)"/><path class="cls-7" d="M237.37,411.11a67,67,0,0,0,.81-14V383.78l-1.78-.62c-.17,9.58-.65,19-1.3,28.58A2.48,2.48,0,0,1,237.37,411.11Z" transform="translate(-183.96 -307.45)"/><path class="cls-5" d="M361.23,501.27c-1.46,0-3.25,1.26-4.39,1.89a11.23,11.23,0,0,1-3.73,1.57c.65,2.2,2.11,5.81,2.76,8a3,3,0,0,1,3.73.78,15.7,15.7,0,0,1,2.6,3.77,8.37,8.37,0,0,0,3.08,3.15,2.42,2.42,0,0,0,1.47.15c.32-.15.81-.31,1.13-.47Z" transform="translate(-183.96 -307.45)"/><path class="cls-6" d="M334.12,458.55l-18.35,4.55c1.79,2,1.14,5,.49,7.7A354.41,354.41,0,0,0,308,507.56a8.79,8.79,0,0,0,7.63,10.05,8,8,0,0,0,1.95.16c13-.79,26-3.15,38.63-4.4.17-2.52-.65-7.54-.48-10.06-11.53.95-21.75.48-31,.79.33-6.6,5.52-11.15,8.61-17.12a37,37,0,0,0,5-13.51A20.58,20.58,0,0,0,334.12,458.55Z" transform="translate(-183.96 -307.45)"/><path class="cls-5" d="M365.28,505.83c-1.46-.16-3.24,1.25-4.38,1.88a10.08,10.08,0,0,1-3.57,1.57c.65,2.2,2.11,5.82,2.76,8a3.1,3.1,0,0,1,3.73.79,15.7,15.7,0,0,1,2.6,3.77,8.23,8.23,0,0,0,3.09,3.14,2,2,0,0,0,1.29.16c.33-.16.82-.32,1.14-.47Z" transform="translate(-183.96 -307.45)"/><path class="cls-7" d="M338.18,463.26,320,467.82c1.78,2,1.13,5,.48,7.69a354.41,354.41,0,0,0-8.28,36.76,8.86,8.86,0,0,0,7.47,10.05,8.7,8.7,0,0,0,2.11.16c12.82-.79,26-3.14,38.63-4.4.17-2.51-.64-7.54-.48-10.05-11.69.94-21.75.47-31,.78.33-6.59,5.52-11.15,8.61-17.12a40.1,40.1,0,0,0,5-13.51A21.45,21.45,0,0,0,338.18,463.26Z" transform="translate(-183.96 -307.45)"/><path class="cls-3" d="M316.75,427.14a5.26,5.26,0,0,0-3.9-3.15,6.16,6.16,0,0,0-5,2.36c-2.6,3-3.9,6.75-5.36,10.37a66.84,66.84,0,0,1-11.68,19.47A47.45,47.45,0,0,1,277,466.87a23.74,23.74,0,0,0-2.92-1.1,9.22,9.22,0,0,0-3.57.32c-.49.16-1,.31-1,.78a.59.59,0,0,0,.65.63h1a3.47,3.47,0,0,1,1.3.79,9.88,9.88,0,0,0-3.57,1.25,17.72,17.72,0,0,1-4.87,2.52c-1,.31-.65,2-.32,3s1.62,1.57,2.76,1.73a14.4,14.4,0,0,0,6.33-.16,11.84,11.84,0,0,0,5-3.14H278c11.85-4.87,22.08-11.15,30.36-20.58a45.27,45.27,0,0,0,7.95-13.82C317.88,434.36,319.18,431.53,316.75,427.14Z" transform="translate(-183.96 -307.45)"/><path class="cls-5" d="M297.76,461.53c7.79-6,16.88-20.57,7.46-31.41a47.09,47.09,0,0,0-2.76,6.44A66.89,66.89,0,0,1,290.78,456a22.11,22.11,0,0,1-3.9,3.77C290.45,462,294,463.42,297.76,461.53Z" transform="translate(-183.96 -307.45)"/><path class="cls-3" d="M301.17,412.53c.81-.16.16.94.48,1.73,2.11,3.61,8.12,7.06,10.72,9.11a25,25,0,0,1-11,7.22L296,420.7c1.62-1.26,2.11-6.44,3.9-7.54A4.45,4.45,0,0,1,301.17,412.53Z" transform="translate(-183.96 -307.45)"/><path class="cls-3" d="M296,402.63a27.75,27.75,0,0,0-8.93,1.42c-1.46.62-.81,4.71-1.3,6.12-.16.79,1,1.73,1.14,2.51.33,2.2-.32,2.2.33,4.25a15.33,15.33,0,0,0,4.54,6.91c1.46,1.25,5.52.31,6.82-1.26a19,19,0,0,0,3.24-4.08,18.15,18.15,0,0,0,1-8.33,8.47,8.47,0,0,0-2-5.5A7.49,7.49,0,0,0,296,402.63Z" transform="translate(-183.96 -307.45)"/><path class="cls-5" d="M281.52,403.57l1.63,1.73a4.25,4.25,0,0,1-2.44.16,7.1,7.1,0,0,0,4.71,3.46,11.1,11.1,0,0,0,6-.63,12.28,12.28,0,0,1,2.59-.63c1.63.16,2.76,1.57,3.74,2.83.48-.79,1-1.57,1.78-1.57A1.55,1.55,0,0,1,301,410a3.4,3.4,0,0,1,.17,2.52c-.33.78-1.14,1.57-.82,2.35.17,1.1,2.93.48,2.93,1.57.32-4.24,1.46-4.71.32-9.42-.16-.63-.16-1.57-.65-2-.65-.47-1.3-.47-1.78-.79s-.49-1.25-.82-1.88a3.13,3.13,0,0,0-2.27-1.73,9.27,9.27,0,0,0-2.92-.16,18.92,18.92,0,0,0-6.49,1.1c-1.14.47-2.28,1.26-3.41,1.73A7.59,7.59,0,0,1,281.52,403.57Z" transform="translate(-183.96 -307.45)"/><path class="cls-8" d="M296.13,426a9.5,9.5,0,0,1,6.5-5,17.77,17.77,0,0,1,13.79,2.36,27.82,27.82,0,0,1,9.74,10.05,90.09,90.09,0,0,1,6,12.72l7.95,19.79A58.46,58.46,0,0,1,315,473.47c-4.22-14.61-15.74-26.39-18.83-41.31A9.84,9.84,0,0,1,296.13,426Z" transform="translate(-183.96 -307.45)"/><path class="cls-9" d="M304.74,449.44a6.87,6.87,0,0,1-1.63-3.46,7.68,7.68,0,0,1,.81-3.29c2.12-4.72,4.23-9.27,6.34-14A43.34,43.34,0,0,1,312,460.28Z" transform="translate(-183.96 -307.45)"/><path class="cls-8" d="M310.09,431.22a10.13,10.13,0,0,0-5-8.33L302,422a10,10,0,0,0-6.33,6.6,29.46,29.46,0,0,0-1.14,9.27,11.62,11.62,0,0,1-.16,2.35,35.9,35.9,0,0,1,12,5.34c.65-1.57,1.3-3,1.79-4.55A24.51,24.51,0,0,0,310.09,431.22Z" transform="translate(-183.96 -307.45)"/><path class="cls-3" d="M252.79,445a2,2,0,0,0,1.62-.31,3.74,3.74,0,0,0,1.14-1.1c.33-.47.65-.79,1-1.26a7.5,7.5,0,0,1,2.75-1.73,7.8,7.8,0,0,0,2.6-1.88c.16-.16.33-.47,0-.63-.16,0-.16-.16-.32-.16a2.87,2.87,0,0,0-1.63.47l-1.46.95c-.48.31-1.46.63-2.11.94a6.41,6.41,0,0,0-1.3,1.57,13.68,13.68,0,0,1-2.43,2.83.21.21,0,0,0,0,.31C252.63,445.2,252.63,445.2,252.79,445Z" transform="translate(-183.96 -307.45)"/><path class="cls-5" d="M267.56,443.31a17.89,17.89,0,0,1-5-.47,13,13,0,0,0-6,.79H256c-.16,0-.16-.16-.16-.32s0-.15.16-.31a7.24,7.24,0,0,1,4.54-3.14,9.34,9.34,0,0,1,5.85.31,25.86,25.86,0,0,0,4.38,1.89A11.3,11.3,0,0,1,267.56,443.31Z" transform="translate(-183.96 -307.45)"/><path class="cls-3" d="M306.36,445.51a39,39,0,0,0-12-5.34,16.42,16.42,0,0,1-1.46,6.76c-5.68-3-11.85-4.72-18-7.07L270,437.5a36.05,36.05,0,0,1-5.85.47c-.64,0-1.29-.15-1.94-.15a2.5,2.5,0,0,0-1.79.62,4.21,4.21,0,0,1-1,.79,11.23,11.23,0,0,1-2.28,1.57,6.91,6.91,0,0,0-2.76,3.3c0,.16-.16.31,0,.47a.31.31,0,0,0,.49,0,3.45,3.45,0,0,0,1.63-.94c.48-.47.81-1.1,1.29-1.57a8.54,8.54,0,0,1,4.39-1.57c1.3,0,2.43,2.2,4.38,3a7.18,7.18,0,0,0,2.6.79c.48,0,1,.15,1.46.15,1.3.63,2.43,1.42,3.57,2l.65.48v-.16c6.82,4.24,11.69,8.8,18.5,14,1.3.94,3.25-.16,4.55-.94a10,10,0,0,0,3.25-4.09C302.14,455.09,307,446,306.36,445.51Z" transform="translate(-183.96 -307.45)"/><path class="cls-6" d="M285.91,484.78c0-.94-6.82-1.73-15.26-1.73s-15.26.79-15.26,1.73v37.7c0,.94,6.82,1.73,15.26,1.73s15.26-.79,15.26-1.58Z" transform="translate(-183.96 -307.45)"/><ellipse class="cls-5" cx="86.85" cy="177.96" rx="14.12" ry="1.26"/><path class="cls-5" d="M272.6,488.55l-.49,1.26a54.71,54.71,0,0,1-4.87,11.93,31.18,31.18,0,0,1-10.71,11.63,2.66,2.66,0,0,1-1.95.63,1.71,1.71,0,0,1-1-1.1,4.44,4.44,0,0,1,0-2,24.84,24.84,0,0,1,1.79-6.12v-3.61a33,33,0,0,0-3.41,9.42,7.49,7.49,0,0,0,0,2.67,3.24,3.24,0,0,0,2.11,2.2h.65a3.33,3.33,0,0,0,2.43-.94,34.44,34.44,0,0,0,11.37-12.1,67.29,67.29,0,0,0,5-12.25l.49-1.26Z" transform="translate(-183.96 -307.45)"/><path class="cls-5" d="M275.19,489.18a1.79,1.79,0,1,1-1.78-1.73h0A1.77,1.77,0,0,1,275.19,489.18Z" transform="translate(-183.96 -307.45)"/><ellipse class="cls-11" cx="79.01" cy="150.17" rx="15.91" ry="15.39"/><ellipse class="cls-2" cx="79.01" cy="155.2" rx="15.91" ry="15.39"/><ellipse class="cls-5" cx="74.87" cy="158.94" rx="14.61" ry="14.14"/><path class="cls-4" d="M250.19,463.26a13,13,0,0,0,14.13,11.47,12.81,12.81,0,0,0,11.85-11.47C267.56,467.5,259,467.5,250.19,463.26Z" transform="translate(-183.96 -307.45)"/><rect class="cls-4" x="78.73" y="164.92" width="5.84" height="13.82"/><polygon class="cls-5" points="91.63 212.44 102.24 176.16 103.8 176.59 93.19 212.86 91.63 212.44"/><path class="cls-8" d="M280.71,533.32l.65-2.2a1.78,1.78,0,0,0-.81-1.89l-3.25-1.57a2.43,2.43,0,0,1-.65-.47,1.7,1.7,0,0,1,0-1.26c.49-1.41,1-2.82,1.46-4.08a3.33,3.33,0,0,0,.17-2.2,3.16,3.16,0,0,0-2.11-1.41,1.41,1.41,0,0,0-1.14,0,1.43,1.43,0,0,0-.65.94c-.65,2.2-1.3,4.4-2.11,6.44a6.84,6.84,0,0,0-.49,3.14,5.52,5.52,0,0,0,2.6,3.61,20.81,20.81,0,0,0,4.38,1.73,1.41,1.41,0,0,0,1.14,0C280.55,534.1,280.71,533.79,280.71,533.32Z" transform="translate(-183.96 -307.45)"/><path class="cls-5" d="M276.82,525.15v.15l-.33,1.26a.71.71,0,0,0,0,.79l.49.47.65.47a8.31,8.31,0,0,1,.65-1.89l-.81-1.1-.17-.15Z" transform="translate(-183.96 -307.45)"/><path class="cls-5" d="M273.57,528.76c0,.31-.16.63-.33.63s-.32-.32-.32-.63.16-.63.32-.63S273.57,528.45,273.57,528.76Z" transform="translate(-183.96 -307.45)"/><path class="cls-5" d="M277.3,516.82a2.75,2.75,0,0,1,1.14.63,1.22,1.22,0,0,1,.16,1.26c-.16.47-.16.94-.32,1.41a12,12,0,0,1-2.92-1.41,2.24,2.24,0,0,0,.32-.94,1,1,0,0,1,.65-.79A.79.79,0,0,1,277.3,516.82Z" transform="translate(-183.96 -307.45)"/><path class="cls-7" d="M294.83,485.72c-.32,1.1-4.05.95-8.27-.15s-7.31-3-7-4.09,4.05-1.1,8.27.16C291.91,482.74,295.16,484.62,294.83,485.72Z" transform="translate(-183.96 -307.45)"/><path class="cls-7" d="M286.56,485.72c-4.22-1.1-7.31-3-7-4.08.64-2.2,4.05-1.1,8.27.16Z" transform="translate(-183.96 -307.45)"/><path class="cls-7" d="M287.69,481.64c4.22,1.1,8.28,1.57,7,4.08-.48,1.1-4.06.95-8.28-.15Z" transform="translate(-183.96 -307.45)"/></svg>