<svg id="Layer_1" data-name="Layer 1" xmlns="http://www.w3.org/2000/svg" viewBox="0 0 226.77 226.77"><defs><style>.cls-1{fill:#79c1e1;}.cls-2{fill:#282525;}.cls-3{fill:#0094b8;}.cls-4{fill:#243965;}.cls-5{fill:#f26a58;}.cls-6{fill:#b5dee5;}.cls-7{fill:#f7f4f2;}.cls-8{fill:#0e7f93;}.cls-9{fill:#c9453d;}.cls-10{fill:#d39d81;}</style></defs><title>elec</title><path class="cls-1" d="M183.57,475.53c.31,11.88,3.56,28.15,13.91,36.66,7.87,6.45,21.93,9.53,33.05,10.12s22.4-.59,33.52,0a236.25,236.25,0,0,1,45.57,6.6c16.38,4,34.3,6.75,50.67,2.35a50.66,50.66,0,0,0,25.64-15.4c3.55-4.11,6.18-8.8,9.89-12.76s8.65-7.34,11.74-11.73,4.17-10.27.31-14.23Z" transform="translate(-183.57 -306.72)"/><path class="cls-2" d="M337.12,377.85h-.46a3,3,0,0,1-2.48-3.08,8.18,8.18,0,0,1,.62-2.64c.16-.14.16-.44.31-.73a3.45,3.45,0,0,0,0-2.49l-.46-.74.77-.29a31.91,31.91,0,0,1,10.5-2.93l2.78-.3-5.25,3.82c-.31.14-.46.44-.62.58a2,2,0,0,0,.16,1.62c0,.29.15.73.15,1a4.7,4.7,0,0,1-1.39,4,7.38,7.38,0,0,1-3.7,1.91C337.89,377.85,337.43,377.85,337.12,377.85Zm-.16-8.8a4.72,4.72,0,0,1-.3,2.94l-.31.73a11.33,11.33,0,0,0-.62,2.2,1.64,1.64,0,0,0,1.08,1.61h.77a6.91,6.91,0,0,0,2.94-1.46,3.78,3.78,0,0,0,1.08-2.79c0-.29-.16-.59-.16-.88a4,4,0,0,1,0-2.64,3.58,3.58,0,0,1,1.09-1l.77-.58a19.81,19.81,0,0,0-6.34,1.9Z" transform="translate(-183.57 -306.72)"/><rect class="cls-3" x="162.81" y="81.1" width="2.32" height="89.75"/><rect class="cls-3" x="153.7" y="0.73" width="2.32" height="44.88"/><rect class="cls-3" x="157.87" y="0.73" width="2.32" height="44.88"/><rect class="cls-3" x="163.9" y="0.73" width="2.32" height="44.88"/><rect class="cls-3" x="167.6" y="0.73" width="2.32" height="44.88"/><rect class="cls-3" x="171.31" y="0.73" width="2.32" height="44.88"/><polygon class="cls-4" points="179.5 83.16 183.67 89.02 183.67 37.84 179.5 43.7 179.5 83.16"/><path class="cls-5" d="M369.4,395.6h-2.16V344.71h2.16a2.7,2.7,0,0,1,2.78,2.64V393.1a2.91,2.91,0,0,1-2.78,2.5Z" transform="translate(-183.57 -306.72)"/><path class="cls-5" d="M334.8,350.43h26.11a2.31,2.31,0,0,1,2.31,2.2v35.19a2.31,2.31,0,0,1-2.31,2.2H334.8a2.32,2.32,0,0,1-2.32-2.2V352.63A2.22,2.22,0,0,1,334.8,350.43Z" transform="translate(-183.57 -306.72)"/><path class="cls-4" d="M335.42,352.48h24.87a1.23,1.23,0,0,1,1.24,1.32v33a1.33,1.33,0,0,1-1.24,1.32H335.42a1.23,1.23,0,0,1-1.24-1.32v-33A1.15,1.15,0,0,1,335.42,352.48Z" transform="translate(-183.57 -306.72)"/><rect class="cls-6" x="153.08" y="54.26" width="4.33" height="13.2"/><rect class="cls-6" x="159.11" y="54.26" width="4.33" height="13.2"/><rect class="cls-6" x="165.13" y="54.26" width="4.33" height="13.2"/><rect class="cls-6" x="171.16" y="54.26" width="4.33" height="13.2"/><path class="cls-5" d="M340.52,355.85a1.39,1.39,0,1,1-1.39-1.32h0A1.35,1.35,0,0,1,340.52,355.85Z" transform="translate(-183.57 -306.72)"/><path class="cls-5" d="M346.7,355.85a1.39,1.39,0,1,1-1.39-1.32h0A1.35,1.35,0,0,1,346.7,355.85Z" transform="translate(-183.57 -306.72)"/><path class="cls-5" d="M352.88,355.85a1.38,1.38,0,0,1-1.55,1.18,1.3,1.3,0,0,1-1.24-1.18,1.26,1.26,0,0,1,1.24-1.46,1.3,1.3,0,0,1,1.55,1.17Z" transform="translate(-183.57 -306.72)"/><path class="cls-5" d="M359.05,355.85a1.39,1.39,0,1,1-1.39-1.32h0A1.35,1.35,0,0,1,359.05,355.85Z" transform="translate(-183.57 -306.72)"/><rect class="cls-4" x="145.67" y="157.66" width="46.65" height="28.16"/><rect class="cls-3" x="147.37" y="167.34" width="41.09" height="0.88"/><rect class="cls-3" x="166.06" y="165.72" width="4.48" height="5.57"/><path class="cls-4" d="M378.83,459c-.16-1.46-.31-2.93-.47-4.54a4.15,4.15,0,0,1-3.7-1.62,7.45,7.45,0,0,1-1.55-4A8.88,8.88,0,0,1,374,444a6,6,0,0,1,3.71-2.93v-.73l-.62-1.47-1.86.73a3.85,3.85,0,0,0-1.7.88,3.69,3.69,0,0,0-.92,1.18l-4.17,5.72a2.57,2.57,0,0,0-.62,1.32l-.16,9.09c0,.44-.15.73-.15,1.17Z" transform="translate(-183.57 -306.72)"/><path class="cls-4" d="M390.72,459a3.14,3.14,0,0,0-.15-1.17l-.16-9.09a3.43,3.43,0,0,0-.62-1.32l-4.17-5.72c-.31-.44-.61-.74-.92-1.18a6.35,6.35,0,0,0-1.7-.88l-1.86-.73-.61,1.47v.73a6.05,6.05,0,0,1,3.7,2.93,8.79,8.79,0,0,1,.93,4.84,7.44,7.44,0,0,1-1.54,4,5.05,5.05,0,0,1-3.71,1.62c-.16,1.46-.31,2.93-.47,4.54Z" transform="translate(-183.57 -306.72)"/><path class="cls-5" d="M367.09,456.75h23.79a1.67,1.67,0,0,1,1.69,1.62v37.25a1.67,1.67,0,0,1-1.69,1.61H367.09a1.82,1.82,0,0,1-1.86-1.61V458.37A1.73,1.73,0,0,1,367.09,456.75Z" transform="translate(-183.57 -306.72)"/><rect class="cls-4" x="185.83" y="153.55" width="19.31" height="9.39"/><rect class="cls-3" x="187.22" y="154.72" width="16.53" height="7.19"/><path class="cls-7" d="M389.64,477.73a5.26,5.26,0,1,1-5.25-5h0A5.28,5.28,0,0,1,389.64,477.73Z" transform="translate(-183.57 -306.72)"/><ellipse class="cls-4" cx="196.8" cy="182" rx="2.47" ry="2.35"/><ellipse class="cls-4" cx="203.59" cy="182" rx="2.47" ry="2.35"/><path class="cls-7" d="M373.11,475.38c.31.29.16.88-.15,1.17h0L370.79,478a1,1,0,0,1-1.23-.15h0c-.31-.29-.16-.88.15-1.17h0l2.17-1.47a.84.84,0,0,1,1.23.15Z" transform="translate(-183.57 -306.72)"/><path class="cls-7" d="M373.11,479.63a.88.88,0,0,1-.15,1.18h0l-2.17,1.46a1,1,0,0,1-1.23-.14h0a.88.88,0,0,1,.15-1.18h0l2.17-1.46A1,1,0,0,1,373.11,479.63Z" transform="translate(-183.57 -306.72)"/><path class="cls-7" d="M373.11,483.89c.31.29.16.88-.15,1.17h0l-2.17,1.47a1,1,0,0,1-1.23-.15h0c-.31-.29-.16-.88.15-1.17h0l2.17-1.47a1,1,0,0,1,1.23.15Z" transform="translate(-183.57 -306.72)"/><path class="cls-7" d="M373.11,488.29c.31.29.16.88-.15,1.17h0l-2.17,1.47a1,1,0,0,1-1.23-.15h0c-.31-.29-.16-.88.15-1.17h0l2.17-1.47a.84.84,0,0,1,1.23.15Z" transform="translate(-183.57 -306.72)"/><path class="cls-4" d="M247.83,446.63a9.38,9.38,0,0,1,.31-4.1,12.5,12.5,0,0,0,.31-3.38h6.49a2.63,2.63,0,0,0,1.54,2.79,13.28,13.28,0,0,0,3.4,1,4.8,4.8,0,0,1,3.09,1.61,1.54,1.54,0,0,1,.47,1,2.28,2.28,0,0,1-.16,1Z" transform="translate(-183.57 -306.72)"/><path class="cls-8" d="M247.22,368c2,4.4,5.09,8.36,7.87,12.46s7.57,15,7.88,19.8c.31,4.4-1.23,8.65-2.31,12.91-2.17,7.77-4.64,18.48-5.1,26.54l-7.57.88c-.77-10.12-.16-23.17,2.62-33a5.39,5.39,0,0,0,.31-2.2,4.43,4.43,0,0,0-.77-1.46c-5.56-7.63-13.59-21.42-19.15-29a143.47,143.47,0,0,0,15.13-9.68Z" transform="translate(-183.57 -306.72)"/><path class="cls-9" d="M232.23,336.64a5.61,5.61,0,0,0-4,1.17,4.09,4.09,0,0,0-.93,3.67,6.55,6.55,0,0,0,4.17,4.69,16.15,16.15,0,0,0,5.25.74c1.7,0,3.55,0,5.25-.15a47,47,0,0,0,1.09-9.24A66.91,66.91,0,0,0,232.23,336.64Z" transform="translate(-183.57 -306.72)"/><path class="cls-4" d="M263.28,321.68a1.6,1.6,0,0,1-1.08-.58,3.16,3.16,0,0,1-.62-2.64,5,5,0,0,1,2.47-3.08,1.69,1.69,0,0,1,.78-.3,11.29,11.29,0,0,1,4.94-.73.75.75,0,0,1-.46,1,.52.52,0,0,1-.31.14h1.85a.27.27,0,0,1,0,.44c0,.15-.15.15-.31.3h0a1.1,1.1,0,0,1-.77,1,4.62,4.62,0,0,1-1.39.3,10,10,0,0,0-2.78.88,1.15,1.15,0,0,0-.47,1.32h0c0,.14.16.29.16.58s-.31.44-.46.59A3,3,0,0,1,263.28,321.68Z" transform="translate(-183.57 -306.72)"/><path class="cls-10" d="M267.92,317.87a2.88,2.88,0,0,0-2.17.88c-.15.29-.46.73-.62,1a1.56,1.56,0,0,1-.92.73,1.35,1.35,0,0,1-1.08-.29v-1a6.94,6.94,0,0,1,.31-1.91c.15-.44.3-1.17.77-1.32a3.12,3.12,0,0,0,1.23-.58c.47-.3,1.09-.15,1.55-.44a1.18,1.18,0,0,0,.62-1.32,7.22,7.22,0,0,0-3.09.58,18,18,0,0,0-2.47,1,10.42,10.42,0,0,0-1.55,2,8.67,8.67,0,0,0-.93,1.18,6,6,0,0,0-.31,1.61,22.72,22.72,0,0,1-.61,4.54h0c-.47,1-.78,1.91-1.24,2.79h0a24,24,0,0,1-5.41,9.09,5.63,5.63,0,0,1-1.85,1.47,6.1,6.1,0,0,1-2.78.15c-1.54-.15-3.09-.3-4.63-.59a37.86,37.86,0,0,1-1.08,9.24c3.24-.15,6.64-.29,9.73-.29a8.17,8.17,0,0,0,4.17-.74,5.18,5.18,0,0,0,2.16-2.93,56.27,56.27,0,0,0,2.78-7,61.46,61.46,0,0,0,2-7.63c0-.29.62-1.76.62-2.05v-.15a6.21,6.21,0,0,1,1.23-1.76,4.1,4.1,0,0,0,1.39-1.46c.31-.59.31-1.32.62-2a10,10,0,0,1,1.7-1.91.77.77,0,0,0,.31-.59C268.53,318,268.22,317.87,267.92,317.87Z" transform="translate(-183.57 -306.72)"/><path class="cls-10" d="M219.72,328.87Z" transform="translate(-183.57 -306.72)"/><polygon class="cls-4" points="54.53 190.07 52.21 189.78 67.04 85.21 45.57 85.21 30.74 190.07 28.42 189.78 43.56 83.01 69.67 83.01 54.53 190.07"/><rect class="cls-4" x="35.68" y="146.8" width="24.1" height="2.2"/><rect class="cls-4" x="39.39" y="119.09" width="24.1" height="2.2"/><rect class="cls-4" x="43.1" y="93.13" width="24.1" height="2.2"/><rect class="cls-4" x="31.82" y="172.62" width="24.1" height="2.2"/><polygon class="cls-4" points="86.2 185.52 71.21 85.21 49.74 85.21 64.72 185.23 62.41 185.52 47.11 83.01 73.22 83.01 88.51 185.23 86.2 185.52"/><rect class="cls-4" x="55.76" y="139.77" width="24.1" height="2.2"/><rect class="cls-4" x="52.98" y="113.51" width="24.1" height="2.2"/><rect class="cls-4" x="49.74" y="92.69" width="24.1" height="2.2"/><rect class="cls-4" x="61.02" y="168.8" width="24.1" height="2.2"/><path class="cls-4" d="M228.22,445.17a5.87,5.87,0,0,0,2.62,4.4,28.48,28.48,0,0,1,2.94,1.61,2.25,2.25,0,0,1,.77,2.79h-10a5.71,5.71,0,0,0-1.55-2.64c-.77-.74-1.85-1.47-2.16-2.5a4.68,4.68,0,0,1,.31-2.49c.31-.88.62-1.61.93-2.49a.8.8,0,0,1,.46-.74.76.76,0,0,1,.77,0C224.82,443.85,226.52,444.43,228.22,445.17Z" transform="translate(-183.57 -306.72)"/><path class="cls-3" d="M242.27,375.8a91.91,91.91,0,0,1,6.65,27.28,25.8,25.8,0,0,1-.78,10.85c-1.23,3.81-4,7.19-6.33,10.56a97.68,97.68,0,0,0-12.05,22.14c-2.63-.29-6.18-2.2-8.8-2.49,2.62-9.68,5.4-16.28,9.73-22.88,2.62-4,4.79-5.42,4.94-10.12a22.44,22.44,0,0,0-2.16-8.21l-10.35-23.17c5.56-1,12.67-4.84,17.45-7.77Z" transform="translate(-183.57 -306.72)"/><path class="cls-4" d="M226.67,393.84a5.31,5.31,0,0,1,2-2.06,22.16,22.16,0,0,1,10.19-2.93,40,40,0,0,1,4,13.93,41.9,41.9,0,0,1-11.43,5.28,75.52,75.52,0,0,1-4.63-11A5.71,5.71,0,0,1,226.67,393.84Z" transform="translate(-183.57 -306.72)"/><path class="cls-4" d="M237.64,390.32a7.45,7.45,0,0,1,2.32.88,31.8,31.8,0,0,0,2.31-15.11h-1.08A34.65,34.65,0,0,1,237.64,390.32Z" transform="translate(-183.57 -306.72)"/><path class="cls-5" d="M236.71,393.54a1.08,1.08,0,1,1-1.08-1,1,1,0,0,1,1.08,1Z" transform="translate(-183.57 -306.72)"/><path class="cls-5" d="M230.38,395.45a1.08,1.08,0,1,1-1.08-1,1,1,0,0,1,1.08,1Z" transform="translate(-183.57 -306.72)"/><path class="cls-5" d="M246,376.24c1.08-1.17,3.24-3.52,3.4-5a5.92,5.92,0,0,0-.46-2.34c-1.86-4.7-3.4-6.6-5.26-11.15-1.54-4.11-3.55-11-5.71-14.81a12.83,12.83,0,0,0-5.41-5.58,10.44,10.44,0,0,0-6.33-.44,23.33,23.33,0,0,0-5.87,2.64,37.87,37.87,0,0,0-12.21,11.74c8.19,10.26,13.6,25.08,18.08,37.1C231.46,390.32,240.26,382.4,246,376.24Z" transform="translate(-183.57 -306.72)"/><path class="cls-9" d="M217.09,352.33a11.26,11.26,0,0,1,2.63,7.92,31.87,31.87,0,0,1-1.54,8.36l-4-7.62A12.85,12.85,0,0,0,217.09,352.33Z" transform="translate(-183.57 -306.72)"/><path class="cls-9" d="M228.83,338a4,4,0,0,0-3.09-.88,14.34,14.34,0,0,0-6.33,1.91,15.15,15.15,0,0,0-5.41,4.84,4.25,4.25,0,0,0-.77,1.9,2,2,0,0,0,.47,1.91,3.72,3.72,0,0,0,2,1,13.48,13.48,0,0,0,9.27-.74,8.11,8.11,0,0,0,4.64-7.33A3.22,3.22,0,0,0,228.83,338Z" transform="translate(-183.57 -306.72)"/><path class="cls-10" d="M214.47,346.32a3,3,0,0,0,2,1.32,11.68,11.68,0,0,0,7.1-.88,8.37,8.37,0,0,0,4.48-5.13,3.09,3.09,0,0,0,0-2.35,2.41,2.41,0,0,0-1.7-1.47,4.69,4.69,0,0,0-2,.3,23.72,23.72,0,0,0-9.11,6A1.77,1.77,0,0,0,214.47,346.32Z" transform="translate(-183.57 -306.72)"/><path class="cls-10" d="M212.31,334.29a.62.62,0,0,0,0,.74l3.55,9.24a11.14,11.14,0,0,0,9.27-5.72,28,28,0,0,1-6.65-7.34l-5.56,2.5C212.77,334,212.46,334.15,212.31,334.29Z" transform="translate(-183.57 -306.72)"/><path class="cls-4" d="M222.35,336.2a29.42,29.42,0,0,1-3.71-4.84l-5.72,2.49c-.15,0-.31.15-.46.15A7.83,7.83,0,0,0,222.35,336.2Z" transform="translate(-183.57 -306.72)"/><path class="cls-10" d="M220.65,326.81q.91,2.64,1.85,5.28a1.59,1.59,0,0,1,.15,1.18,1.46,1.46,0,0,1-.61.73,8.48,8.48,0,0,1-5.56,2.2,8.81,8.81,0,0,1-5.72-1.76,9.44,9.44,0,0,1-2.78-4,7.74,7.74,0,0,1-.77-4.11,6.67,6.67,0,0,1,3.09-4,12,12,0,0,1,5.4-1.46,5.78,5.78,0,0,1,2.63,3.08,1.84,1.84,0,0,0,.15.88c.31.44,1.09.44,1.55.73C220.34,326.08,220.65,326.37,220.65,326.81Z" transform="translate(-183.57 -306.72)"/><path class="cls-4" d="M218.33,319.34a.85.85,0,0,1-.77.44,3.55,3.55,0,0,0,.15-2.2,7.23,7.23,0,0,1-3.86,1.46,14.47,14.47,0,0,0-4.17,1,3.71,3.71,0,0,0-2.47,3.08,1.05,1.05,0,0,0-.93.15c-.15.14-.46.43-.46.73a8.11,8.11,0,0,0,5.25,10.56.58.58,0,0,1,.31.14c-.16-.88-.31-1.9-.46-2.78-.62-.15-1.09-.44-1.7-.59a4.47,4.47,0,0,1-1.24-1.17,1.53,1.53,0,0,1,.15-1.62,1.25,1.25,0,0,1,1.55-.29c.15.29.46.59.62.88a1,1,0,0,0,1.08.15,7.86,7.86,0,0,1-1.86-3.52,1.06,1.06,0,0,1,.16-1.17l.93-.44a19.26,19.26,0,0,0,4.63-1.47A6.77,6.77,0,0,0,218.33,319.34Z" transform="translate(-183.57 -306.72)"/><path class="cls-10" d="M224.66,398.68l.47.44c.31.44.61.73.92,1.17a1.21,1.21,0,0,0,1.39.15,9.24,9.24,0,0,1-.77-1.76Z" transform="translate(-183.57 -306.72)"/><path class="cls-5" d="M229.92,400.58c-.16-.73-.47-1.46-.62-2.2a40.06,40.06,0,0,0,8.34-.88c0,.3.15.3.15.59C235.32,398.68,232.85,399.56,229.92,400.58Z" transform="translate(-183.57 -306.72)"/><ellipse class="cls-4" cx="47.11" cy="92.39" rx="0.46" ry="0.44"/><path class="cls-3" d="M229.45,399.85a14.21,14.21,0,0,0-6.95.73,5.6,5.6,0,0,1-1.54.3c-.62,0-1.09-.59-.93-1a14.17,14.17,0,0,1,5.1-1c1.7,0,3.7.3,4.63-1.17.46.59,0,1.17.16,1.47s.15.73-.16.88A.48.48,0,0,0,229.45,399.85Z" transform="translate(-183.57 -306.72)"/><path class="cls-3" d="M229.14,399.41a15,15,0,0,1-6.64,1.47,3.52,3.52,0,0,0-1.7.29c-.46.29-.93.73-.62,1.17a15.26,15.26,0,0,0,5.1-.73c1.7-.44,3.4-1.32,4.79-.44.15-.59-.31-1-.31-1.32s0-.73-.31-.73A.32.32,0,0,1,229.14,399.41Z" transform="translate(-183.57 -306.72)"/><path class="cls-5" d="M215.09,366v-.29a45.18,45.18,0,0,1,2.47-6.45,12,12,0,0,0,0-7.34,5.13,5.13,0,0,0-4.95-3.52,5.42,5.42,0,0,0-3.86,2.35,13.76,13.76,0,0,0-1.7,4.11,50.19,50.19,0,0,0-1.85,9.53A20.3,20.3,0,0,0,215.09,366Z" transform="translate(-183.57 -306.72)"/><path class="cls-10" d="M226.36,397.94c0-.14,0-.14-.15-.29l-.16-.15a8.76,8.76,0,0,1-2.16-1.9c-.15-.15-.15-.3-.31-.3a1,1,0,0,0-.62-.14,15.81,15.81,0,0,1-2.47-.59,2.52,2.52,0,0,1-1.08-.59,7.14,7.14,0,0,1-1.08-1l-.31-.44a99.92,99.92,0,0,1-2.63-9.68,31.37,31.37,0,0,1-.3-16.87,20.61,20.61,0,0,1-9.89-1.61,45.5,45.5,0,0,0,.46,12.91,56.56,56.56,0,0,0,9,19.79,28.63,28.63,0,0,0,3.09,5.58l.47.44c.3.14.61.14.92.29a6.55,6.55,0,0,1,1.08.59,1.25,1.25,0,0,0,1.24-.15l.15-.15h.31c.31,0,.47.15.77.15a.83.83,0,0,0,.62-.29v-.3c.16-.29.62-.14.93-.14.62,0,.77-.88,1.39-1.18.15-.14.46-.14.62-.29.31-.15.46-.29.46-.44s-.31-.44-.62-.59a3.19,3.19,0,0,1-1.54-.88,2.68,2.68,0,0,1-.93-1.32,5,5,0,0,1,1.24.59h1.85A3.7,3.7,0,0,1,226.36,397.94Z" transform="translate(-183.57 -306.72)"/><path class="cls-4" d="M326.77,486.09c-4.94,0-9.73-.15-14.68-.59a22,22,0,0,1,.31-6.31,12.88,12.88,0,0,0,4.79-1.46,3,3,0,0,0,1.55,2.93,9.41,9.41,0,0,0,3.24,1.17,6.32,6.32,0,0,1,3.24,1.32A2.94,2.94,0,0,1,326.77,486.09Z" transform="translate(-183.57 -306.72)"/><path class="cls-8" d="M304.37,403.66a14,14,0,0,1,4.94.44c1.24.74.93,5.43,1.09,6.9,4.78,23.61,9.26,43.7,7.87,68.34-2.16,1-5.56,1-7.87,1-1.7-17.9-7.27-34.91-13.6-51.77-2.93-7.92-6.18-12.47-4-24.5Z" transform="translate(-183.57 -306.72)"/><path class="cls-4" d="M290.93,485.94a8.56,8.56,0,0,1,2.63,1.32,2.39,2.39,0,0,1,.77,2.64,161.19,161.19,0,0,1-16.68-1.17,8.06,8.06,0,0,1,.15-4.26,21.78,21.78,0,0,1,1.7-4,30.05,30.05,0,0,0,6.33.3,4.72,4.72,0,0,0,1.86,3.22A8.89,8.89,0,0,0,290.93,485.94Z" transform="translate(-183.57 -306.72)"/><path class="cls-3" d="M285.06,402.93l-.93,7c-3.39,8.8-1.39,16.28-1.54,25.66-.15,16-1.08,30.51-4.33,46.06a8,8,0,0,0,9,.14c4.33-13.34,7.57-26.84,10.66-40.48a218,218,0,0,0,5.41-37.25C297.73,404,290.62,403.08,285.06,402.93Z" transform="translate(-183.57 -306.72)"/><path class="cls-9" d="M314.1,365a10.12,10.12,0,0,0-3.4,4.84,13.67,13.67,0,0,0,.16,7,24.71,24.71,0,0,0,2.32,6.45,24.73,24.73,0,0,0,7.72-5C319.35,374,318,369.64,314.1,365Z" transform="translate(-183.57 -306.72)"/><path class="cls-4" d="M340.67,371.84a1.81,1.81,0,0,1-.77-.73,2.22,2.22,0,0,1,.15-2.2,4.8,4.8,0,0,1,2.78-2.06c.16,0,.47-.14.62-.14a14,14,0,0,1,4.33.58c0,.3-.31.74-.62.74a.58.58,0,0,0-.31.14c.46.15.77.3,1.24.44a.15.15,0,0,1,.15.15c.16.15,0,.29-.15.44s-.16.15-.31.15h0a1,1,0,0,1-.93.73,3.13,3.13,0,0,1-1.24-.15,7.32,7.32,0,0,0-2.47,0,1.12,1.12,0,0,0-.77,1h0v.44a.79.79,0,0,1-.46.29A1.69,1.69,0,0,1,340.67,371.84Z" transform="translate(-183.57 -306.72)"/><path class="cls-10" d="M341.91,368.76c.31-.44.62-1,1.08-1s.93-.14,1.39-.14,1.08.14,1.54,0a1.28,1.28,0,0,0,.93-1,6.64,6.64,0,0,0-2.93-.15,14,14,0,0,0-2.48.3,9.17,9.17,0,0,0-1.85,1.46,6.72,6.72,0,0,0-1.08.74,2.53,2.53,0,0,0-.62,1.46,17.72,17.72,0,0,1-1.85,3.82,62.54,62.54,0,0,1-10.35,7,28.7,28.7,0,0,0-2.63,1.76h0a42.18,42.18,0,0,1-2.16-4.54,24.53,24.53,0,0,1-7.72,5,21.34,21.34,0,0,0,7.26,8.8,1.3,1.3,0,0,0,.92.44h.16c.15.15.31.15.62.3a2.38,2.38,0,0,0,1.69-.59c6-3.67,10.51-9.24,14.83-14.81a8.12,8.12,0,0,1,2.32-2.2,3.75,3.75,0,0,0,1.7-.88c.46-.44.62-1.17,1.08-1.61a7.27,7.27,0,0,1,2-1.18c.15-.14.31-.14.46-.44s-.31-.58-.46-.58a2.24,2.24,0,0,0-2.16.29,4,4,0,0,0-.78.73,1.39,1.39,0,0,1-1.08.44c-.31,0-.61-.29-.92-.58.15-.3.15-.59.31-.88A7,7,0,0,1,341.91,368.76Z" transform="translate(-183.57 -306.72)"/><path class="cls-5" d="M297.57,362.45a8.39,8.39,0,0,0-5.56,1.18,9.58,9.58,0,0,0-2.47,4.1,117.63,117.63,0,0,0-6.49,39.89c9.74-.88,18.69-1,28.43-1-.78-7.63-1.7-13.79.31-21.27.77-3.08,2.16-5.72,3.08-8.65A14.17,14.17,0,0,0,314,365,55.83,55.83,0,0,0,297.57,362.45Z" transform="translate(-183.57 -306.72)"/><path class="cls-9" d="M310.24,370.08a5.27,5.27,0,0,0,1.7-2.35,2.75,2.75,0,0,0-.62-2.78,4.49,4.49,0,0,0-2.16-1.18,25.15,25.15,0,0,0-5.72-1.17,8.13,8.13,0,0,0-4.17.29,1.54,1.54,0,0,0-.92.74.87.87,0,0,0,0,.88,9.54,9.54,0,0,0,2.93,5.42A7.29,7.29,0,0,0,310.24,370.08Z" transform="translate(-183.57 -306.72)"/><path class="cls-9" d="M295.26,368.32c2.78,2.93,3.55,7,3.09,11s-1.55,7.62-2.17,11.58a35.84,35.84,0,0,0,.93,15.11l-4.94.15h-7.88c-.77-9.39,1.08-18.92,3.71-28A17.42,17.42,0,0,1,295.26,368.32Z" transform="translate(-183.57 -306.72)"/><path class="cls-10" d="M309.47,364.51c-.16-1.91.62-6.75.46-8.66l-7.41,2.64A41.18,41.18,0,0,0,301,363c-.77,0-.77.29-1.54.44a7.61,7.61,0,0,0,3.4,5.87,6.3,6.3,0,0,0,6.95-.15,2.47,2.47,0,0,0,1.08-3.52,2.12,2.12,0,0,0-1.39-1.17Z" transform="translate(-183.57 -306.72)"/><path class="cls-4" d="M309,356.29l-6.33,2.2c-.46,1.18-.77,2.2-1.23,3.38A6.8,6.8,0,0,0,309,356.29Z" transform="translate(-183.57 -306.72)"/><path class="cls-10" d="M304.68,345.44c-1.08,0-2.47,0-3.09.88s-.15,1.61-.31,2.49a6.11,6.11,0,0,1-1.08,1.62,6.34,6.34,0,0,0-1.08,4.1,18.45,18.45,0,0,0,.93,4.26,4.43,4.43,0,0,0,.77,1.46,2.55,2.55,0,0,0,2,.44,10.89,10.89,0,0,0,6-2.05c1.39-1.17,1.85-2.93,2.94-4.4a6.56,6.56,0,0,0,1.39-4.69,5.44,5.44,0,0,0-3.4-3.38A19.45,19.45,0,0,0,304.68,345.44Z" transform="translate(-183.57 -306.72)"/><path class="cls-4" d="M302.21,343.68l.92.44a2.89,2.89,0,0,0-1.85,1,2.41,2.41,0,0,0-.31,2.05,2.25,2.25,0,0,1,.93-.73,4.25,4.25,0,0,0,3.71,2.49c-.16-.29,0-.44.15-.59a1.56,1.56,0,0,0,.93.74,2.29,2.29,0,0,1,1.08.29,2.1,2.1,0,0,1,1.08,1.47,15.59,15.59,0,0,1-.15,2.64c.92-.15,1.08-1.32,1.54-1.18s.46.3.62.74a2,2,0,0,1,0,1.32,2.78,2.78,0,0,1-.46,1.46,1.45,1.45,0,0,1-1.24.59,2.84,2.84,0,0,0,.15,2.49,19.2,19.2,0,0,0,4.17-2.64l-.46-.14a6.9,6.9,0,0,0,2-7.48,3.54,3.54,0,0,0-1.85-3.08,25.33,25.33,0,0,1-3.4-1.91l-.16.73A14.31,14.31,0,0,0,302.21,343.68Z" transform="translate(-183.57 -306.72)"/><path class="cls-4" d="M295.1,468.93a13.06,13.06,0,0,1-10.35-4.55,8.33,8.33,0,0,1-1.23-1.91A23,23,0,0,1,277,452.35a30.59,30.59,0,0,1,3.55-25.81,13.41,13.41,0,0,1,4.48-4.69,10.37,10.37,0,0,1,1.24-1.61,10.94,10.94,0,0,1,2-1.76,7.39,7.39,0,0,1,3.86-3.82l.46,1.47a5.58,5.58,0,0,1,1.55-.29,4.13,4.13,0,0,1,4.48-.15,7.84,7.84,0,0,1,2,1.91l.93-.44a12.66,12.66,0,0,1,1.24,3.08,11.11,11.11,0,0,1,2.31,2.34,31.41,31.41,0,0,1,7.11,15.11c0,.29.15.44.15.73,1.86,5.72,2,10.85.62,15.11a15.93,15.93,0,0,1-3.71,6.16,17.94,17.94,0,0,1-8,8.36A27.08,27.08,0,0,1,295.1,468.93Zm-4.63-3.08a12.81,12.81,0,0,0,9.88-.15,13.15,13.15,0,0,0,4.33-3.23l-.46.15a17.7,17.7,0,0,1-13.75,3.23Zm-4.94-4.7A11.68,11.68,0,0,0,290,463.5a14.71,14.71,0,0,0,8.35-.29l-1.86-.44a6.77,6.77,0,0,1-2.31.58,9.68,9.68,0,0,1-7.11-2.64,13.07,13.07,0,0,1-2.47-3.22A15.38,15.38,0,0,0,285.53,461.15Zm-.78-9.09a10.24,10.24,0,0,0,.78,1.91,16.42,16.42,0,0,0,3.24,5.13,7.94,7.94,0,0,0,4,2,17.93,17.93,0,0,1-5.41-5.28,18.92,18.92,0,0,1-2.32-5.42c-.15.44-.15,1-.31,1.61ZM299.12,461h2a4.36,4.36,0,0,0,1.85-.44l.93-.88a18.19,18.19,0,0,0,4.79-7.34,32.48,32.48,0,0,0-2.17-13.78c-.61-1.47-1.08-3.37-1.7-5.43S303.6,429,303,427a4,4,0,0,1-.15,1.32,25.23,25.23,0,0,0,.15,8.36c1.39,4.84,2.32,12.17-.62,19.21a11.46,11.46,0,0,1-3.24,5.14Zm-13-19.66c0,5.72,1.08,10,3.09,13.2a13.8,13.8,0,0,0,6.95,5.72,11.07,11.07,0,0,0,4-5.13c2.78-6.45,1.85-13.2.62-17.89a25.63,25.63,0,0,1-.31-9.09,27,27,0,0,0,.15-6.16c-.46-.44-.92-1-1.39-1.47a13.16,13.16,0,0,0-1.54-1.32,8.7,8.7,0,0,0-3.86-.88c-.62.44-1.24,1-1.86,1.47s-1.23,1-1.85,1.46a155.6,155.6,0,0,0-4,20.09Zm-4-12.9a28.73,28.73,0,0,0-2.78,23.32,21.9,21.9,0,0,0,2.93,6,32.82,32.82,0,0,1,0-5.43,39.47,39.47,0,0,1-.15-23.9Zm4.17-4a11.93,11.93,0,0,0-1.08,2.49,36.49,36.49,0,0,0-1.86,19.07c.16-1.62.47-3.23.62-4.84v-.44a58.23,58.23,0,0,1,2.32-16.28Zm20.08,5c.31,1.17.62,2.2.93,3.22.61,2.06,1.08,3.81,1.69,5.28a38.75,38.75,0,0,1,1.7,5.72,37.45,37.45,0,0,0-.46-5.87,83,83,0,0,0-3.86-8.35Z" transform="translate(-183.57 -306.72)"/><path class="cls-5" d="M294.18,380.64a41.42,41.42,0,0,1,1.39-4.11,51.59,51.59,0,0,0,2.31-6.89,9.44,9.44,0,0,0-2-7.19l-2.31.3a8.34,8.34,0,0,0-5.25,3.37,19.06,19.06,0,0,0-2.48,5.72,58.37,58.37,0,0,0-1.39,7A21.78,21.78,0,0,0,294.18,380.64Z" transform="translate(-183.57 -306.72)"/><path class="cls-10" d="M301.44,418.92a3.07,3.07,0,0,0,.77,1.17,1.05,1.05,0,0,0,1.23.44,6.57,6.57,0,0,1-.61-2.49v-.3l-.16-.14a6.58,6.58,0,0,1-1.85-2.2.33.33,0,0,0-.31-.3,1.25,1.25,0,0,0-.62-.29l-2.32-.88a3.3,3.3,0,0,1-.92-.59A48.26,48.26,0,0,1,294,380.78a22,22,0,0,1-9.73-1.76,55.06,55.06,0,0,0,5.41,33.59,16.09,16.09,0,0,0,1.23,2.05,49.73,49.73,0,0,0,2.32,6.75c.15.15.15.44.31.59s.46.29.77.44.62.44,1.08.73a1,1,0,0,0,1.24,0l.15-.15h.31c.31.15.46.15.77.3s.47,0,.62-.3c0-.14,0-.14.16-.29a.29.29,0,0,1,.46,0,2.82,2.82,0,0,0,1.54.15,8.73,8.73,0,0,0-1.23-2.5c-.31-.44-2.32-1.17.46-2.34A1.84,1.84,0,0,1,301.44,418.92Z" transform="translate(-183.57 -306.72)"/><ellipse class="cls-5" cx="88.51" cy="13.05" rx="6.02" ry="5.72"/><rect class="cls-5" x="86.04" y="4.99" width="4.79" height="4.99"/><rect class="cls-4" x="85.27" y="0.73" width="6.33" height="4.99"/><rect class="cls-3" x="31.51" width="157.56" height="1.47"/></svg>