<svg id="Capa_1" enable-background="new 0 0 512 512" height="512" viewBox="0 0 512 512" width="512" xmlns="http://www.w3.org/2000/svg"><g><g><g><g><g><path d="m391.928 191.958c0-86.408-55.602-159.824-132.977-186.433-11.173-3.843-23.159-4.835-34.814-2.898-91.413 15.188-161.109 94.624-161.109 190.345 0 117.998 104.002 217.775 159.303 262.489 3.832 3.098 9.323 3.045 13.072-.153 59.167-50.475 156.525-151.507 156.525-263.35z" fill="#e07f84"/><path d="m256 0c-11.479 0-22.723 1.008-33.651 2.93 90.532 15.921 159.321 94.946 159.321 190.042 0 118.01-104.024 217.796-159.321 262.504 20.018 16.185 33.651 25.152 33.651 25.152s192.972-126.925 192.972-287.656c0-106.575-86.397-192.972-192.972-192.972z" fill="#db636e"/><path d="m384.656 491.737.165-15.728-2.942-4.187h-298.762c-11.095 0-20.089 8.994-20.089 20.089 0 11.095 8.994 20.089 20.089 20.089h284.52c9.652-1.643 17.019-10.154 17.019-20.263z" fill="#b3e59f"/><path d="m428.883 512c11.095 0 20.089-8.994 20.089-20.089 0-11.095-8.994-20.089-20.089-20.089h-47.004l-.209 19.918c0 10.954-8.772 20.032-19.673 20.261h66.886z" fill="#95d6a4"/></g><g><circle cx="256" cy="188.814" fill="#eaf2ff" r="133.501"/><path d="m294.143 122.166c-4.439-2.522-9.953.65-9.953 5.756v57.523c0 9.642-7.816 17.459-17.459 17.459h-21.462c-9.642 0-17.459-7.816-17.459-17.459v-57.523c0-5.105-5.514-8.278-9.953-5.756-23.397 13.294-39.179 38.439-39.179 67.273 0 19.785 7.431 37.833 19.655 51.507.112.125.224.25.335.373 14.946 16.603 23.316 38.081 23.316 60.421v16.196c10.861 2.854 22.259 4.379 34.016 4.379 11.756 0 23.155-1.526 34.016-4.379v-16.196c0-22.34 8.37-43.818 23.316-60.421.111-.124.223-.248.335-.373 12.223-13.674 19.655-31.722 19.655-51.507 0-28.834-15.783-53.979-39.179-67.273z" fill="#9bc4f9"/></g></g><path d="m256 322.315c2.595 0 5.168-.087 7.726-.233v-69.172c0-4.267-3.459-7.726-7.726-7.726s-7.726 3.459-7.726 7.726v69.172c2.557.146 5.131.233 7.726.233z" fill="#eaf2ff"/></g></g><g><path d="m256 330.041c-77.873 0-141.228-63.354-141.228-141.227s63.355-141.228 141.228-141.228 141.227 63.355 141.227 141.228-63.354 141.227-141.227 141.227zm0-265.291c-68.409 0-124.064 55.655-124.064 124.064s55.655 124.063 124.064 124.063 124.063-55.655 124.063-124.063c0-68.409-55.655-124.064-124.063-124.064z" fill="#bcd6f9"/></g></g></svg>