<?xml version="1.0" encoding="iso-8859-1"?>
<!-- Generator: Adobe Illustrator 19.0.0, SVG Export Plug-In . SVG Version: 6.00 Build 0)  -->
<svg version="1.1" id="Layer_1" xmlns="http://www.w3.org/2000/svg" xmlns:xlink="http://www.w3.org/1999/xlink" x="0px" y="0px"
	 viewBox="0 0 512 512" style="enable-background:new 0 0 512 512;" xml:space="preserve">
<g>
	<g>
		<path d="M459.033,245.113c-7.829-16.135-24.39-27.184-43.337-27.184c-9.625,0-18.792,2.826-26.527,7.942
			c-7.737-5.117-16.904-7.942-26.528-7.942c-18.947,0-35.507,11.049-43.337,27.184c-26.49,0.066-48.023,21.638-48.023,48.144
			c0,2.107,0.148,4.191,0.413,6.247h234.937c0.273-2.064,0.427-4.148,0.427-6.247C507.056,266.751,485.523,245.179,459.033,245.113z
			"/>
	</g>
</g>
<g>
	<g>
		<polygon points="458.488,332.895 442.201,393.864 336.135,393.864 319.848,332.895 277.602,332.895 298.978,511.971 
			479.358,511.971 500.734,332.895 		"/>
	</g>
</g>
<g>
	<g>
		<path d="M373.142,0c-22.436,0-40.69,18.253-40.69,40.69c0,22.437,18.253,40.688,40.69,40.688c22.436,0,40.69-18.253,40.69-40.69
			C413.832,18.252,395.578,0,373.142,0z M373.142,47.988c-4.025,0-7.298-3.273-7.298-7.298c0-4.025,3.273-7.298,7.298-7.298
			c4.024,0,7.298,3.273,7.298,7.298C380.441,44.714,377.167,47.988,373.142,47.988z"/>
	</g>
</g>
<g>
	<g>
		<path d="M441.143,78.234c-22.437,0-40.69,18.254-40.69,40.69s18.253,40.69,40.69,40.69c22.437,0,40.69-18.253,40.69-40.69
			S463.579,78.234,441.143,78.234z M441.143,126.221c-4.025,0-7.298-3.273-7.298-7.298c0-4.025,3.275-7.298,7.298-7.298
			s7.298,3.273,7.298,7.298C448.441,122.948,445.167,126.221,441.143,126.221z"/>
	</g>
</g>
<g>
	<g>
		<path d="M349.148,123.353c-22.437,0-40.69,18.253-40.69,40.69c0,22.437,18.254,40.69,40.69,40.69s40.69-18.253,40.69-40.69
			C389.838,141.606,371.585,123.353,349.148,123.353z M349.148,171.342c-4.025,0-7.298-3.273-7.298-7.298s3.275-7.298,7.298-7.298
			s7.298,3.273,7.298,7.298S353.173,171.342,349.148,171.342z"/>
	</g>
</g>
<g>
	<g>
		<path d="M146.652,360.471V64.682h-33.391v295.79H4.944v86.888h12.628V512h224.769v-64.641h12.627v-86.888H146.652z
			 M65.416,478.609H50.963v-31.25h14.453V478.609z M98.807,478.609v-31.25h14.453v31.25H98.807z M161.105,478.609h-14.453v-31.25
			h14.453V478.609z M208.949,478.609h-14.453v-31.25h14.453V478.609z"/>
	</g>
</g>
<g>
	<g>
		<polygon points="354.41,332.895 361.777,360.472 416.559,360.472 423.926,332.895 		"/>
	</g>
</g>
<g>
</g>
<g>
</g>
<g>
</g>
<g>
</g>
<g>
</g>
<g>
</g>
<g>
</g>
<g>
</g>
<g>
</g>
<g>
</g>
<g>
</g>
<g>
</g>
<g>
</g>
<g>
</g>
<g>
</g>
</svg>
