<svg id="Layer_1" data-name="Layer 1" xmlns="http://www.w3.org/2000/svg" viewBox="0 0 226.77 226.77"><defs><style>.cls-1{fill:#79c1e1;}.cls-2{fill:#243965;}.cls-3{fill:#0094b8;}.cls-4{fill:#c9453d;}.cls-5{fill:#d39d81;}.cls-6{fill:#0e7f93;}.cls-7{fill:#f26a58;}</style></defs><title>plumber</title><path class="cls-1" d="M183.53,466.09c.31,13.88,3.56,32.83,13.9,42.65,7.88,7.44,21.93,11.17,33,11.67s22.4-.67,33.52.17a207.56,207.56,0,0,1,45.55,7.62c16.37,4.74,34.29,7.78,50.66,2.71A51.32,51.32,0,0,0,385.85,513c3.55-4.74,6.17-10.16,9.88-14.89s8.49-8.64,11.74-13.71,4.17-12,.31-16.59Z" transform="translate(-183.53 -306.76)"/><path class="cls-2" d="M325.77,476.41c0,1.53-2.78,2.71-6,2.71s-6-1.18-6-2.71,2.63-2.53,6-2.53S325.77,474.89,325.77,476.41Z" transform="translate(-183.53 -306.76)"/><path class="cls-3" d="M322.22,475.74a5.16,5.16,0,0,1-4.94,0V444.43h4.94Z" transform="translate(-183.53 -306.76)"/><path class="cls-2" d="M304.46,372.51h-3.25v-9.82a1,1,0,0,1,.93-1h1.24a1,1,0,0,1,.92,1h0v9.82Z" transform="translate(-183.53 -306.76)"/><path class="cls-2" d="M310,367.26H295.81a1.54,1.54,0,0,1-1.55-1.69h0a1.53,1.53,0,0,1,1.55-1.69H310a1.53,1.53,0,0,1,1.54,1.69h0A1.62,1.62,0,0,1,310,367.26Z" transform="translate(-183.53 -306.76)"/><rect class="cls-3" x="102.7" y="68.62" width="34.13" height="10.83"/><rect class="cls-3" x="41.39" y="71.5" width="147.02" height="5.08"/><rect class="cls-2" x="136.52" y="66.76" width="3.55" height="14.72"/><rect class="cls-3" x="116.29" y="79.12" width="4.79" height="48.06"/><rect class="cls-3" x="114.28" y="76.92" width="8.49" height="14.22"/><rect class="cls-2" x="111.35" y="90.28" width="14.52" height="2.88"/><rect class="cls-2" x="113.05" y="95.36" width="11.27" height="5.25"/><path class="cls-2" d="M322.53,453.57h-8.34V447c0-.17-.16-.34-.31-.17h-7.11c-4.78,0-8.64-4.23-8.64-9.48v-6.77h8.34v6.77a.15.15,0,0,0,.15.17h7.1c4.79,0,8.65,4.23,8.65,9.48v6.6Z" transform="translate(-183.53 -306.76)"/><path class="cls-3" d="M312,380.8c0,5.41-4.16,9.81-9.11,9.81s-9-4.57-9-10,4-9.82,9-9.82c5.1,0,9.11,4.4,9.11,10Z" transform="translate(-183.53 -306.76)"/><path class="cls-2" d="M307.55,380.8a4.84,4.84,0,0,1-4.64,4.91c-2.47,0-4.48-2.37-4.48-5.08a4.71,4.71,0,0,1,4.48-4.91,4.79,4.79,0,0,1,4.64,5.08Z" transform="translate(-183.53 -306.76)"/><path class="cls-2" d="M306.47,404.32a4.5,4.5,0,1,1-4.48-4.91C304.46,399.24,306.47,401.61,306.47,404.32Z" transform="translate(-183.53 -306.76)"/><rect class="cls-2" x="100.38" y="66.76" width="3.55" height="14.72"/><rect class="cls-2" x="84.17" y="69.13" width="3.55" height="10.32"/><rect class="cls-2" x="151.35" y="69.13" width="3.55" height="10.32"/><path class="cls-4" d="M248.71,381.48a11.6,11.6,0,0,0-4.64-2,4.71,4.71,0,0,0-4.48,1.87,5.72,5.72,0,0,0-.15,5.24,12,12,0,0,0,3.24,4.23,78.73,78.73,0,0,0,10,7.11l3.24,2a73.07,73.07,0,0,0,5.26-9.81C256.43,387.06,253,384.52,248.71,381.48Z" transform="translate(-183.53 -306.76)"/><path class="cls-5" d="M303.38,393.66c.15-.34.46-.51.46-.85a2.39,2.39,0,0,0-.15-1c-.16-.17-.31-.17-.47-.34.16-.17.16-.34.31-.51a1.6,1.6,0,0,0,.16-.84.52.52,0,0,0-.47-.51.53.53,0,0,0-.46-.17v-.34l-.16-.17-2.47-1.35c-1.08.84-2.78.34-3.86,1.18a3.86,3.86,0,0,0-1.08,1.19l-1.85,1.52a3.73,3.73,0,0,0-.77,1.35h0A112.81,112.81,0,0,1,274.19,396a10.77,10.77,0,0,1-4.64-.34,29.24,29.24,0,0,1-4.78-3.05l-3.55-2.36a49.13,49.13,0,0,1-5.26,9.81c2.63,1.35,5.26,2.88,7.88,4.4a10.5,10.5,0,0,0,4.48,1.35,39.88,39.88,0,0,0,4.48-.33c9.11-.85,21.93-7.62,24.09-7.62a14.12,14.12,0,0,1,2.47.34,4.34,4.34,0,0,0,2.47-.51c.16,0,.31-.17.62-.34h.31c.15,0,.31-.17.46-.34a.62.62,0,0,0,.16-.5c0-.17-.16-.34-.47-.51h0a1.15,1.15,0,0,0,.78-.34,1.39,1.39,0,0,0,.3-.85.7.7,0,0,0-.46-.67h-.15V394C303.22,394,303.38,393.83,303.38,393.66Z" transform="translate(-183.53 -306.76)"/><path class="cls-2" d="M229.25,457.46c1.39.17,2.93,2,3.86,3.05a18.43,18.43,0,0,0,4,2c-1.23,2.2-1.08,6.09-2.31,8.29-.78-1.19-4.17-.34-5.56.68a17.62,17.62,0,0,0-3.86,3,12.08,12.08,0,0,1-4.48,3.05,2,2,0,0,1-1.39-.17,4.22,4.22,0,0,1-.93-.85Z" transform="translate(-183.53 -306.76)"/><path class="cls-6" d="M255.5,431.91c2.32,8.8,6.95,13.2,11.43,20.13,4.94,8,8.65,14,4.17,21.5-7.26,2.37-7,3-14.52,2.37A201.92,201.92,0,0,1,234,472.18a93.43,93.43,0,0,1,.31-11.34,135.48,135.48,0,0,0,23.48.51c-11.12-4.91-19.31-15.91-21.47-28.94A182.76,182.76,0,0,0,255.5,431.91Z" transform="translate(-183.53 -306.76)"/><path class="cls-2" d="M222.3,463.38c1.39.17,2.93,2,3.86,3.05a18,18,0,0,0,4,2c-1.23,2.2-1.08,6.09-2.31,8.29-.78-1.18-4.17-.34-5.41.68a17.66,17.66,0,0,0-3.86,3.05,12.09,12.09,0,0,1-4.48,3,2,2,0,0,1-1.39-.17,4.15,4.15,0,0,1-.92-.84Z" transform="translate(-183.53 -306.76)"/><path class="cls-3" d="M253.49,432.24a169.62,169.62,0,0,1-22.7,1.53,35.82,35.82,0,0,0,10.81,23.69c5.72,5.25,10.19,8,15.6,13.54a71.21,71.21,0,0,1-29.65-4.4,57.14,57.14,0,0,0,0,14.55c15.29-.17,21.46,6.43,39.69,2.2,2-2,6-6.26,5.25-8.8-2.32-7.61-4.79-12.52-9.58-20.64C258.74,446.8,254.42,440.54,253.49,432.24Z" transform="translate(-183.53 -306.76)"/><path class="cls-4" d="M248.09,383.17a4,4,0,0,0-1.55-2.88,4.48,4.48,0,0,0-2.16-.34,15.85,15.85,0,0,0-7.72,1.86,1.79,1.79,0,0,0-.93,1.19c-.15.68.47,1.18.93,1.69a29.34,29.34,0,0,0,9,3.55,2.13,2.13,0,0,0,2-.16,2,2,0,0,0,.47-1.36A14.06,14.06,0,0,0,248.09,383.17Z" transform="translate(-183.53 -306.76)"/><path class="cls-7" d="M247.32,380.46a36.91,36.91,0,0,1,6.17,17.94c.78,6.43.47,13,.78,19.46a46.56,46.56,0,0,0,4,18.78,84.15,84.15,0,0,1-26.87,1.19,2.2,2.2,0,0,1-1.7-.68,3.79,3.79,0,0,1-.62-2.87c.31-7.11-1.23-14-2.16-21s-.93-15.57,1.7-22c2.93-6.94,10.66-13.71,15.75-11.68Z" transform="translate(-183.53 -306.76)"/><path class="cls-4" d="M231.87,395.69a5.67,5.67,0,0,0-1.54,4.4,89.45,89.45,0,0,0,2.47,26.4,4,4,0,0,0,.93,1.86,1.71,1.71,0,0,0,2.16-.17,4.53,4.53,0,0,0,1.39-2,42.55,42.55,0,0,0,3.55-14.38,25.2,25.2,0,0,0-.62-9,12,12,0,0,0-4.79-6.94A3,3,0,0,0,231.87,395.69Z" transform="translate(-183.53 -306.76)"/><path class="cls-3" d="M258.28,436.64c-2.78-5.75-3.4-12.35-3.71-18.78-.15-3.55-.3-9.65-.46-13.37-4.17,3.05-10.35,5.59-12.82,11-1.85,3.05-1.39,8.8-2.31,11.85-1.55,4.74-4.17,6.26-6.34,10.66A81.46,81.46,0,0,0,258.28,436.64Z" transform="translate(-183.53 -306.76)"/><path class="cls-3" d="M240.06,391a11.61,11.61,0,0,0-6.8-3.72c-1.39-.17-2.78-.17-3.55,1.86a7.17,7.17,0,0,1,6.64.85,14.16,14.16,0,0,1,4.63,5.58,34.55,34.55,0,0,1,3.87,16.76c.92-.17,1.23.5,1.69-.34a10.86,10.86,0,0,0,0-3.22,32.13,32.13,0,0,0-2.31-10.83A27.66,27.66,0,0,0,240.06,391Z" transform="translate(-183.53 -306.76)"/><path class="cls-5" d="M246.54,385.71a1.34,1.34,0,0,0,.31-.85c.47-3.72.77-7.45,1.24-11.17-2.32,0-4.79-1.52-7.11-2.54-1.54,5.76-3.24,6.94-4.78,11,3.24,1.19,6.17,3.56,9.57,3.56C246.08,385.88,246.39,385.88,246.54,385.71Z" transform="translate(-183.53 -306.76)"/><path class="cls-2" d="M242.84,372c-.93,4.74.92,8.63,4.32,10l.93-8.29A12.1,12.1,0,0,1,242.84,372Z" transform="translate(-183.53 -306.76)"/><path class="cls-5" d="M247.47,356.09a6.82,6.82,0,0,0-4.32,1.52,8.56,8.56,0,0,0-2.78,4.57,14.15,14.15,0,0,0,1.85,12.19,11.57,11.57,0,0,0,10,5.41A32.54,32.54,0,0,0,256.58,369c.62-3.89-.15-8.46-3.09-10.83A8.22,8.22,0,0,0,247.47,356.09Z" transform="translate(-183.53 -306.76)"/><path class="cls-2" d="M255,358a10.37,10.37,0,0,0-6.49-2.71,6.88,6.88,0,0,0-4.79,1.19,8.58,8.58,0,0,0-3.08,4.06,14.44,14.44,0,0,0,.46,11.85,5.41,5.41,0,0,1,.77-1.7,1.34,1.34,0,0,1-.31-.84,5.44,5.44,0,0,1,.16-2.71,2.8,2.8,0,0,1,.77-1.52,1.25,1.25,0,0,1,1.7.67,2,2,0,0,1,.46,1.36,16.17,16.17,0,0,0,3.71-3.72,16.91,16.91,0,0,0,8.18,1C256.43,362.35,256.74,359.64,255,358Z" transform="translate(-183.53 -306.76)"/><path class="cls-4" d="M257.51,358.46a5.39,5.39,0,0,0-2.63-2.71,20,20,0,0,0-9.26-2.37,12,12,0,0,0-5.56,6.94,17.36,17.36,0,0,0,8.18,4.91,28.78,28.78,0,0,0,9.27.68C257.35,363.37,258.44,360.83,257.51,358.46Z" transform="translate(-183.53 -306.76)"/><path class="cls-7" d="M260.91,369.29c.31,0,.46.17.77.17s.62,0,.77-.34-.15-.68-.46-1a19,19,0,0,0-7.11-4.07c-2.93-.5-5.87.51-8.8-.16a3.59,3.59,0,0,0,1.54,1.52l4.64,3a18.38,18.38,0,0,0,3.09,1.7,4.68,4.68,0,0,0,3.39-.17A3.33,3.33,0,0,1,260.91,369.29Z" transform="translate(-183.53 -306.76)"/><path class="cls-7" d="M295.5,398.4l4.63-4.74a1.14,1.14,0,0,1,1.7,0l2.32,2a1.14,1.14,0,0,1,.15,1.52h0l-1.08,1.53-1.54-1,.62-1.18-1.39-1.19-4.17,5.08Z" transform="translate(-183.53 -306.76)"/><path class="cls-2" d="M300.6,400.09l-3.25-3.38a1.07,1.07,0,0,0-1.39,0l-4.63,4.57h0a2.54,2.54,0,0,1,.15,3.38l-.15.17-14.05,12.69a10.74,10.74,0,0,0-3.4,4.57,4.35,4.35,0,0,0,0,2,2,2,0,0,0,1.39,1.36c.93.16,1.7-.68,2.47-1.36,5.1-5.92,10.35-11.84,15.44-17.6a2.26,2.26,0,0,1,3.25-.17h0l4.17-4.74A1,1,0,0,0,300.6,400.09Z" transform="translate(-183.53 -306.76)"/><polygon class="cls-7" points="110.89 95.19 109.8 94.01 112.89 90.96 113.97 92.15 110.89 95.19"/><path class="cls-7" d="M241.14,399.41a20.93,20.93,0,0,0-2.63-6.77,5.84,5.84,0,0,0-5.71-2.87,6.15,6.15,0,0,0-3.86,4.74,15.7,15.7,0,0,0,.46,6.6A59.93,59.93,0,0,0,235,415.49c2.94-1.86,6.18-4.06,9.58-5.92A70.41,70.41,0,0,1,241.14,399.41Z" transform="translate(-183.53 -306.76)"/><path class="cls-5" d="M285.31,413.8l-2-1.36a2.8,2.8,0,0,0-2.32-.67c-.15.17-.31.17-.61.34-.78.33-1.39-.51-2.17-.51a2.1,2.1,0,0,0-1.54.84,3.57,3.57,0,0,1-1.7,1l-5.1,1c-1.54.33-3.08.67-4.78,1-3.56.68-6.95,1.35-10.51,1.69a27.22,27.22,0,0,1-3.7.34,11.4,11.4,0,0,1-3.4,0c-1.08-2.54-2.16-5.08-3.09-7.78-3.4,1.86-6.64,4.06-9.57,5.92,2.16,4.06,4.63,8.12,7.1,11.85a6.23,6.23,0,0,0,2.16,2.37,6.38,6.38,0,0,0,5.25-.17c7.88-2.54,15.6-5.59,23.17-8.8a4.16,4.16,0,0,1,1.39-.34c.31,0,.46.17.77.34l1.39,1a7.16,7.16,0,0,0,1.85.34h3.56a1.05,1.05,0,0,0,.61-.17c.47-.34.31-1,.62-1.35s1.08,0,1.39-.34.16-1.19.47-1.69,1.08-.51,1.08-1-.31-1,0-1.35c0-.17.15-.17.15-.34a.7.7,0,0,0,.46-.68A1.73,1.73,0,0,0,285.31,413.8Z" transform="translate(-183.53 -306.76)"/><polygon class="cls-7" points="113.82 94.85 112.12 92.99 112.58 92.48 114.28 94.18 113.82 94.85"/><polygon class="cls-7" points="117.06 99.76 115.83 97.39 117.06 95.02 119.69 95.02 120.92 97.39 119.69 99.76 117.06 99.76"/><path class="cls-7" d="M379.2,349.66A57.37,57.37,0,0,0,375,337.31c-2-3.9-2.94-5.76-7.11-7.28s-12.66-1.52-15.6,1.69a12.32,12.32,0,0,0-2.78,8.63,37.16,37.16,0,0,0,1.7,9.14,233.45,233.45,0,0,1,7.26,42.65,23,23,0,0,0,24.09-4.57,9.35,9.35,0,0,0,2.94-4.74,11.56,11.56,0,0,0-.62-5.08C382.76,369,381.52,358.8,379.2,349.66Z" transform="translate(-183.53 -306.76)"/><path class="cls-2" d="M390,499.43c.46-1.52-.47-4.23-.78-5.75s-1.85-3.05-1.7-4.57c-2.16,0-4,.5-6.17.5a3.27,3.27,0,0,1-1.86,3.56,11.25,11.25,0,0,1-4.17,1.35,6.35,6.35,0,0,0-3.7,2,3.48,3.48,0,0,0-.62,1.36,4.18,4.18,0,0,0,.15,1.35Z" transform="translate(-183.53 -306.76)"/><path class="cls-6" d="M383.37,384.52c3.4,9.14,2.63,19.46.93,29.28s-4,19.29-3.86,29.28c.46,16.41,8,32,7.88,48.4-2.78.84-4.95,2.7-9,1.52-3.24-9.31-6-17.6-9.27-26.91-2.78-7.78-5.4-15.57-6.33-23.86-1.85-18.28,5.87-36.89,1.55-54.49l16.83-6.94Z" transform="translate(-183.53 -306.76)"/><path class="cls-2" d="M365.15,506.54c.62-1.53-.15-3.9-.31-5.42a14.22,14.22,0,0,1-.31-4.4c-2.31-.17-6.33,0-8.8,0,.46,1.36-.62,2.88-2,3.56a16.23,16.23,0,0,1-4.63,1.35,8.17,8.17,0,0,0-4.17,2,2.18,2.18,0,0,0-.62,1.35,4,4,0,0,0,.16,1.36Z" transform="translate(-183.53 -306.76)"/><path class="cls-3" d="M354.65,498.75l13.13-1.35a158.48,158.48,0,0,1,6.79-70.57c2.32-6.94,5.1-13.71,5.72-21.15.46-6.6-.78-13.2-2.17-19.64a85.76,85.76,0,0,1-17.45,1.87c-1.23,10-2.47,20.13-3.86,30.12a275.38,275.38,0,0,0-2.93,33.68C353.72,467.61,356.35,483.18,354.65,498.75Z" transform="translate(-183.53 -306.76)"/><path class="cls-5" d="M368.86,331.72a35.48,35.48,0,0,0-12.36,3.89A21,21,0,0,0,353.11,325c2.62.34,4.63-1.52,7.1-2.71A34.61,34.61,0,0,0,368.86,331.72Z" transform="translate(-183.53 -306.76)"/><path class="cls-7" d="M352.8,318.52a3.92,3.92,0,0,0-2.94-1.69,8.13,8.13,0,0,0-3.4.68,3.25,3.25,0,0,0-1.69,1.35,5.21,5.21,0,0,0-.31,1.52c-.16,2.71-1.7,5.08-1.86,7.79,0,.67.16,1.69.78,2s1.23-.17,1.69-.51a8.28,8.28,0,0,1,3.4-1.18,3.88,3.88,0,0,0,4.17-3.56,10.64,10.64,0,0,0,.62-3.21A4.49,4.49,0,0,0,352.8,318.52Z" transform="translate(-183.53 -306.76)"/><path class="cls-5" d="M353.72,309.21a7.14,7.14,0,0,0-5.71,2,13.08,13.08,0,0,0-3.09,10.33,20.83,20.83,0,0,0,4.48,10.83,2.33,2.33,0,0,0,3.24,1,.16.16,0,0,0,.16-.17,17.93,17.93,0,0,0,7.25-7.1,13.79,13.79,0,0,0,1.09-10.5A9.64,9.64,0,0,0,353.72,309.21Z" transform="translate(-183.53 -306.76)"/><path class="cls-2" d="M345.38,319a4.06,4.06,0,0,0,2.32,3.21v-1.35a1.12,1.12,0,0,1,.62-1,1.66,1.66,0,0,1,1.7.5,4.61,4.61,0,0,1,.77,3.22,18.14,18.14,0,0,0,5.25.17,7.43,7.43,0,0,1,5.25,1,14.45,14.45,0,0,0-1.7-12.35,5.47,5.47,0,0,0-1.7-1.69,4.77,4.77,0,0,0-1.54-.17,14.25,14.25,0,0,0-6.49,1.52,7.91,7.91,0,0,0-3.7,5.75Z" transform="translate(-183.53 -306.76)"/><path class="cls-4" d="M355.11,307a5,5,0,0,0-3.09,0,12.4,12.4,0,0,0-4.32,1.7,9,9,0,0,0-4.17,9,15.36,15.36,0,0,0,1.39,5.24,34.3,34.3,0,0,1,3.86-5.58,14.13,14.13,0,0,1,5.1-4.23,7.49,7.49,0,0,1,6.33-.34,19.83,19.83,0,0,0-2.63-3.73A9.62,9.62,0,0,0,355.11,307Z" transform="translate(-183.53 -306.76)"/><path class="cls-7" d="M372,341.54a15.2,15.2,0,0,0-2.17-8.63,4.81,4.81,0,0,0-3.7-2.37c-1.86.17-3.09,2.37-3.86,4.23-2,5.07-3.4,10.49-5.41,15.57a11.54,11.54,0,0,0,10.66,4.9,46.47,46.47,0,0,0,2.16-4.9A25.64,25.64,0,0,0,372,341.54Z" transform="translate(-183.53 -306.76)"/><path class="cls-5" d="M357,350.34a12.88,12.88,0,0,1-.47,1.35,67.84,67.84,0,0,1-17.45,26.06,13.38,13.38,0,0,0-2.47.68,2.86,2.86,0,0,0-1.39,1.69,9.41,9.41,0,0,1-2.16,3.39l-1.39,1c-.16.17-1.39.51-1.39.85a.63.63,0,0,0,.31.84c.31.17.46.34.77.34.93.17,1.7.17,2.63.34a12.85,12.85,0,0,0,3.55-.51,9.52,9.52,0,0,0,2.16-.34,6.5,6.5,0,0,0,3.09-2.87c.77-1.19,2-1.86,2.31-3.22,8.5-7.44,17.61-14.72,22.86-24.71A11.46,11.46,0,0,1,357,350.34Z" transform="translate(-183.53 -306.76)"/><path class="cls-7" d="M379.05,349.49a51.06,51.06,0,0,0-4.32-12.35c-2-3.9-2.94-5.76-7.11-7.28S355,328.34,352,331.55a11.66,11.66,0,0,0-2.78,8.63,37.16,37.16,0,0,0,1.7,9.14A233.45,233.45,0,0,1,358.2,392a23,23,0,0,0,24.09-4.57,9.35,9.35,0,0,0,2.94-4.74,14.19,14.19,0,0,0-.47-5.08C382.6,368.61,381.37,358.63,379.05,349.49Z" transform="translate(-183.53 -306.76)"/><path class="cls-4" d="M363.3,349.32a27.53,27.53,0,0,0-1.55-8.8,12.87,12.87,0,0,0-5.4-6.6,3.19,3.19,0,0,0-2.78-.34,3.59,3.59,0,0,0-1.55,1.86,17.77,17.77,0,0,0-1.39,8,49.54,49.54,0,0,0,1.24,8.12c1.24,5.59,2.47,11.34,3.71,16.92a14,14,0,0,0,6.33-8.12A27.1,27.1,0,0,0,363.3,349.32Z" transform="translate(-183.53 -306.76)"/><path class="cls-3" d="M359.13,373.86a2,2,0,0,0-1.39,1.18c-1.7-9.3-3.4-18.61-4.48-27.92a88.19,88.19,0,0,1-.62-11,9.64,9.64,0,0,1,.62-3.55,4.88,4.88,0,0,1,2-2.71C354.34,344.58,356.66,359.31,359.13,373.86Z" transform="translate(-183.53 -306.76)"/><path class="cls-3" d="M371.79,386.38c-8,0-12-10.66-13.59-19.63-1.08,0-1.7-.67-2.93.68,1.54,8.29,1.54,17.09,2.31,25.55,8.65,3.22,18.07,1.19,25.18-4.9a11,11,0,0,0,2.78-4.24A20.49,20.49,0,0,1,371.79,386.38Z" transform="translate(-183.53 -306.76)"/><path class="cls-3" d="M385.38,384c0-.17.31-1.52.31-1.52-1.85-5.58-3.86-11.17-5.71-16.75-3.09-9-6.18-17.94-11.12-25.73-2.47-3.89-6.18-6.43-8.81-10.32a1.66,1.66,0,0,0-2.47-.51,95,95,0,0,1,16.84,26.23c4,9.14,6.95,19.8,10,29.45Z" transform="translate(-183.53 -306.76)"/><path class="cls-3" d="M374.57,338.83a14.9,14.9,0,0,0-1.08-4.57c-.62-1.35-.77-2-2.16-2.54,3.24,7.45,2.16,14.39,2.47,22.68a126.67,126.67,0,0,1-3.55,35.71l5.25-1C376.12,372.34,376.73,355.41,374.57,338.83Z" transform="translate(-183.53 -306.76)"/><path class="cls-5" d="M354,357.61c-4.32-.33-8-1.86-10.81-6.93-.31.5-.46,1-.77,1.52a70.63,70.63,0,0,1-22.39,25.72l-2.32-.17a10.67,10.67,0,0,0-2.32.17,11.14,11.14,0,0,0-2.47,1c-.77.34-.93.34-1.85.67a.83.83,0,0,0-.77.51c-.16.17-.31.68,0,.85a1.11,1.11,0,0,0,.77.34c.77,0,.62.33,1.39.17a3.91,3.91,0,0,1,3.86,0,15.61,15.61,0,0,1-6.18,4.06,1.19,1.19,0,0,0,.16,1c.31.17.46.34.77.51a16.56,16.56,0,0,0,2.78.68,14.66,14.66,0,0,0,3.86,0,5.39,5.39,0,0,0,2.32-.17,6.61,6.61,0,0,0,3.7-2.71c.93-1.18,2.32-1.86,2.94-3.22C336.73,374.71,347.39,367.94,354,357.61Z" transform="translate(-183.53 -306.76)"/><path class="cls-7" d="M360.52,342.89a17.5,17.5,0,0,0-1.24-10.15,5.22,5.22,0,0,0-3.7-3.22c-2.17-.17-3.71,2.2-4.79,4.23-2.94,5.59-5.1,11.34-7.88,16.93,2.78,5.24,6.8,6.76,11.28,7.1a55,55,0,0,0,3.08-5.24A33.29,33.29,0,0,0,360.52,342.89Z" transform="translate(-183.53 -306.76)"/><path class="cls-2" d="M308.63,469.31H276.5v-15.4h32.13Zm-30.74-1.7h29v-12h-29Z" transform="translate(-183.53 -306.76)"/><polygon class="cls-7" points="122.93 154.42 95.44 154.42 91.58 163.05 91.58 174.56 126.64 174.56 126.64 163.05 122.93 154.42"/><rect class="cls-7" x="99.46" y="145.79" width="19.92" height="4.06"/><rect class="cls-2" x="93.13" y="162.88" width="32.59" height="1.02"/><path class="cls-2" d="M294.11,477.77h-2.32a1.88,1.88,0,0,1-1.85-2V468a1.88,1.88,0,0,1,1.85-2h2.32a1.88,1.88,0,0,1,1.85,2v7.79A2,2,0,0,1,294.11,477.77Zm-2.32-10.16a.35.35,0,0,0-.31.34v7.79a.35.35,0,0,0,.31.34h2.32a.35.35,0,0,0,.31-.34V468a.35.35,0,0,0-.31-.34Z" transform="translate(-183.53 -306.76)"/></svg>